{"glyphs":{"0":{"ha":769,"x_min":42,"x_max":729,"o":"m 42 374 l 42 665 q 115 929 42 838 q 385 1044 207 1044 q 669 907 575 1044 q 716 806 703 860 q 729 665 729 753 l 729 374 q 668 110 729 200 q 393 -18 581 -18 q 92 136 182 -18 q 42 374 42 222 m 628 390 l 628 642 q 581 860 628 796 q 386 951 513 951 q 264 923 318 951 q 179 843 210 894 q 143 642 143 781 l 143 390 q 189 172 143 238 q 389 75 254 75 q 594 186 538 75 q 628 390 628 250 z "},"1":{"ha":769,"x_min":215,"x_max":492,"o":"m 390 0 l 390 933 l 215 933 l 215 1026 l 492 1026 l 492 0 l 390 0 z "},"2":{"ha":769,"x_min":46,"x_max":703,"o":"m 46 0 l 46 93 l 406 440 q 528 565 497 528 q 600 738 600 650 q 538 891 600 831 q 378 951 475 951 q 261 921 313 951 q 182 836 210 890 q 156 694 156 782 l 54 694 q 76 844 54 785 q 192 991 111 938 q 379 1044 272 1044 q 611 956 519 1044 q 703 732 703 868 q 663 581 703 650 q 514 408 622 511 l 185 93 l 697 93 l 697 0 l 46 0 z "},"3":{"ha":769,"x_min":46,"x_max":700,"o":"m 215 771 l 114 771 q 188 971 118 897 q 374 1044 258 1044 q 560 972 488 1044 q 632 785 632 899 q 526 588 632 661 q 700 311 700 500 q 607 77 700 172 q 378 -18 514 -18 q 210 25 286 -18 q 90 143 133 68 q 46 321 50 214 l 147 321 q 188 175 154 225 q 375 75 256 75 q 533 142 469 75 q 597 306 597 208 q 549 449 597 386 q 424 531 501 511 q 304 539 390 538 l 304 631 l 328 629 q 354 628 340 628 q 482 672 435 628 q 529 789 529 715 q 486 906 529 861 q 374 951 443 951 q 258 904 299 951 q 215 771 217 857 z "},"4":{"ha":769,"x_min":17,"x_max":732,"o":"m 536 0 l 536 188 l 17 188 l 17 281 l 517 1026 l 638 1026 l 638 281 l 732 281 l 732 188 l 638 188 l 638 0 l 536 0 m 536 281 l 536 885 l 135 281 l 536 281 z "},"5":{"ha":769,"x_min":36,"x_max":733,"o":"m 93 521 l 185 1026 l 647 1026 l 647 933 l 267 933 l 217 650 q 393 699 304 699 q 635 595 536 699 q 733 342 733 492 q 633 86 733 190 q 389 -18 533 -18 q 201 37 286 -18 q 71 186 115 92 q 36 322 49 236 l 136 322 q 219 144 150 213 q 385 75 288 75 q 559 152 488 75 q 631 342 631 229 q 560 530 631 454 q 385 606 489 606 q 172 490 265 606 l 93 521 z "},"6":{"ha":769,"x_min":35,"x_max":735,"o":"m 411 1026 l 529 1026 l 288 669 q 408 699 351 699 q 640 596 544 699 q 735 346 735 493 q 637 85 735 189 q 389 -18 539 -18 q 136 84 238 -18 q 35 339 35 186 q 59 477 35 415 q 157 649 83 539 l 411 1026 m 386 606 q 209 531 281 606 q 138 344 138 456 q 209 151 138 228 q 389 75 281 75 q 563 151 494 75 q 632 342 632 226 q 563 531 632 457 q 386 606 493 606 z "},"7":{"ha":769,"x_min":89,"x_max":681,"o":"m 153 0 l 575 933 l 89 933 l 89 1026 l 681 1026 l 681 933 l 261 0 l 153 0 z "},"8":{"ha":769,"x_min":58,"x_max":711,"o":"m 232 574 q 165 626 185 601 q 113 779 113 688 q 191 969 113 893 q 386 1044 269 1044 q 581 969 504 1044 q 657 779 657 894 q 535 574 657 631 q 711 303 711 496 q 620 72 711 163 q 389 -18 529 -18 q 153 72 247 -18 q 58 299 58 163 q 232 574 58 490 m 386 521 q 224 459 288 521 q 161 300 161 397 q 224 138 161 201 q 388 75 288 75 q 547 138 485 75 q 608 300 608 201 q 546 459 608 397 q 386 521 483 521 m 506 904 q 482 928 506 904 q 385 951 458 951 q 263 906 311 951 q 215 788 215 860 q 265 665 215 714 q 390 617 314 617 q 507 665 460 617 q 554 785 554 713 q 506 904 554 857 z "},"9":{"ha":769,"x_min":35,"x_max":3793,"o":"m 3793 1271 l 3476 1271 l 3476 1532 l 3793 1532 l 3793 1271 m 1904 1271 l 1588 1271 l 1588 1426 l 1904 1426 l 1904 1271 m 1588 1271 l 1271 1271 l 1271 1324 l 1588 1324 l 1588 1271 m 358 0 l 240 0 l 482 357 q 361 328 418 328 q 130 431 225 328 q 35 681 35 533 q 133 941 35 838 q 381 1044 231 1044 q 633 942 532 1044 q 735 688 735 840 q 710 549 735 611 q 613 378 686 488 l 358 0 m 381 951 q 206 876 275 951 q 138 685 138 801 q 207 495 138 569 q 383 421 276 421 q 560 496 489 421 q 632 682 632 571 q 560 875 632 799 q 381 951 489 951 z "}," ":{"ha":385,"x_min":111,"x_max":247,"o":"m 193 508 q 190 511 193 508 q 179 514 188 514 q 165 508 171 514 q 160 494 160 503 q 165 481 160 486 q 179 475 171 475 q 193 481 188 475 q 199 494 199 486 q 193 508 199 501 m 179 526 q 192 524 186 526 q 202 517 197 521 q 209 506 207 513 q 211 494 211 500 q 202 472 211 481 q 179 463 193 463 q 156 472 165 463 q 147 494 147 481 q 156 517 147 507 q 179 526 165 526 m 199 543 q 195 545 199 543 q 179 547 190 547 q 159 543 168 547 q 142 531 150 539 q 130 515 133 524 q 126 494 126 506 q 130 474 126 483 q 142 456 133 464 q 159 444 150 449 q 179 440 168 440 q 199 444 190 440 q 217 456 208 449 q 228 474 225 464 q 232 494 232 483 q 228 515 232 506 q 217 531 225 524 q 199 543 208 539 m 153 558 q 159 560 153 558 q 179 563 165 563 q 206 558 193 563 q 228 542 218 553 q 242 520 238 532 q 247 494 247 508 q 242 468 247 481 q 228 446 238 456 q 206 431 218 436 q 179 425 193 425 q 153 431 165 425 q 131 446 140 436 q 116 468 121 456 q 111 494 111 481 q 116 520 111 508 q 131 542 121 532 q 153 558 140 553 z "},"!":{"ha":410,"x_min":154,"x_max":257,"o":"m 154 0 l 154 175 l 257 175 l 257 0 l 154 0 m 154 274 l 154 1026 l 257 1026 l 257 274 l 154 274 z "},"\"":{"ha":429,"x_min":103,"x_max":329,"o":"m 329 713 l 260 713 l 260 1026 l 329 1026 l 329 713 m 172 713 l 103 713 l 103 1026 l 172 1026 l 172 713 z "},"#":{"ha":769,"x_min":7,"x_max":763,"o":"m 742 414 l 742 329 l 554 329 l 494 0 l 403 0 l 463 329 l 235 329 l 172 0 l 82 0 l 144 329 l 7 329 l 7 414 l 161 414 l 201 629 l 29 629 l 29 714 l 217 714 l 275 1026 l 364 1026 l 307 714 l 533 714 l 589 1026 l 682 1026 l 625 714 l 763 714 l 763 629 l 610 629 l 571 414 l 742 414 m 518 629 l 292 629 l 251 414 l 478 414 l 518 629 z "},"$":{"ha":769,"x_min":103,"x_max":665,"o":"m 340 -78 l 340 40 q 160 133 221 63 q 104 317 100 204 l 200 317 q 254 176 206 226 q 385 125 303 125 q 513 178 463 125 q 563 311 563 231 q 504 446 563 396 q 375 504 465 478 q 259 549 297 528 q 193 606 221 571 q 139 767 139 671 q 193 927 139 861 q 340 1011 247 993 l 340 1125 l 432 1125 l 432 1011 q 594 929 535 996 q 657 760 653 863 l 560 760 q 513 881 556 838 q 399 924 471 924 q 284 879 326 924 q 242 758 242 835 q 277 660 242 694 q 411 594 313 626 q 589 504 540 553 q 665 314 665 432 q 600 128 665 204 q 432 40 535 51 l 432 -78 l 340 -78 z "},"%":{"ha":1076,"x_min":18,"x_max":1044,"o":"m 714 1026 l 817 1026 l 353 0 l 253 0 l 714 1026 m 803 469 q 973 397 901 469 q 1044 226 1044 325 q 973 53 1044 125 q 800 -18 901 -18 q 628 53 700 -18 q 557 225 557 125 q 628 399 557 328 q 803 469 700 469 m 801 378 q 694 333 738 378 q 650 225 650 289 q 694 118 650 163 q 800 74 739 74 q 906 118 861 74 q 950 225 950 163 q 906 333 950 288 q 801 378 863 378 m 264 1040 q 434 968 363 1040 q 506 796 506 896 q 434 623 506 694 q 261 551 363 551 q 90 623 161 551 q 18 796 18 694 q 90 969 18 899 q 264 1040 161 1040 m 263 949 q 154 904 199 949 q 110 796 110 860 q 154 688 110 733 q 261 643 199 643 q 367 688 322 643 q 411 796 411 732 q 367 903 411 858 q 263 949 324 949 z "},"&":{"ha":1051,"x_min":79,"x_max":1021,"o":"m 836 668 l 950 668 l 761 306 l 1021 53 l 950 -18 l 713 213 q 578 37 651 92 q 403 -18 504 -18 q 171 72 261 -18 q 79 296 79 167 q 192 525 79 435 q 315 601 242 564 q 226 716 251 668 q 201 817 201 764 q 272 978 201 913 q 444 1044 343 1044 q 622 978 551 1044 q 692 810 692 911 q 599 632 692 701 q 492 571 572 611 l 686 379 l 836 668 m 636 286 l 389 528 q 228 417 275 472 q 181 285 181 363 q 243 136 181 197 q 396 75 306 75 q 525 124 469 75 q 636 286 581 172 m 417 644 q 551 722 508 679 q 594 818 594 764 q 552 913 594 875 q 447 951 510 951 q 346 913 388 951 q 304 819 304 875 q 417 644 304 747 z "},"'":{"ha":275,"x_min":103,"x_max":172,"o":"m 172 713 l 103 713 l 103 1026 l 172 1026 l 172 713 z "},"(":{"ha":513,"x_min":79,"x_max":465,"o":"m 465 1026 l 465 939 q 286 765 350 869 q 182 429 182 606 q 314 49 182 225 q 465 -83 369 -24 l 465 -174 q 326 -98 385 -144 q 213 26 268 -51 q 79 429 79 210 q 133 690 79 561 q 279 911 186 818 q 465 1026 354 988 z "},")":{"ha":513,"x_min":47,"x_max":433,"o":"m 47 -174 l 47 -85 q 226 88 160 -19 q 331 425 331 250 q 199 804 331 628 q 47 936 140 881 l 47 1026 q 185 952 126 999 q 300 826 244 906 q 433 424 433 643 q 381 165 433 293 q 233 -58 328 36 q 47 -174 156 -136 z "},"*":{"ha":590,"x_min":89,"x_max":500,"o":"m 371 1044 l 436 1006 l 357 878 l 500 882 l 500 810 l 358 813 l 435 688 l 369 650 l 296 776 l 222 650 l 156 689 l 235 813 l 89 810 l 89 882 l 235 878 l 157 1006 l 225 1044 l 299 919 l 371 1044 z "},"+":{"ha":842,"x_min":71,"x_max":771,"o":"m 368 474 l 368 774 l 475 774 l 475 474 l 771 474 l 771 371 l 475 371 l 475 68 l 368 68 l 368 371 l 71 371 l 71 474 l 368 474 z "},",":{"ha":385,"x_min":126,"x_max":351,"o":"m 126 -93 l 249 175 l 351 175 l 229 -93 l 126 -93 z "},"-":{"ha":461,"x_min":43,"x_max":419,"o":"m 43 411 l 419 411 l 419 324 l 43 324 l 43 411 z "},".":{"ha":385,"x_min":140,"x_max":243,"o":"m 140 0 l 140 175 l 243 175 l 243 0 l 140 0 z "},"/":{"ha":607,"x_min":56,"x_max":551,"o":"m 56 -178 l 454 1026 l 551 1026 l 149 -178 l 56 -178 z "},":":{"ha":385,"x_min":140,"x_max":243,"o":"m 140 0 l 140 175 l 243 175 l 243 0 l 140 0 m 140 529 l 140 704 l 243 704 l 243 529 l 140 529 z "},";":{"ha":385,"x_min":57,"x_max":282,"o":"m 57 -93 l 179 175 l 282 175 l 160 -93 l 57 -93 m 174 529 l 174 704 l 276 704 l 276 529 l 174 529 z "},"<":{"ha":842,"x_min":68,"x_max":775,"o":"m 775 785 l 775 676 l 218 417 l 775 160 l 775 51 l 68 372 l 68 463 l 775 785 z "},"=":{"ha":842,"x_min":71,"x_max":771,"o":"m 771 606 l 771 503 l 71 503 l 71 606 l 771 606 m 771 331 l 771 228 l 71 228 l 71 331 l 771 331 z "},">":{"ha":842,"x_min":67,"x_max":774,"o":"m 67 51 l 67 160 l 625 419 l 67 676 l 67 785 l 774 464 l 774 374 l 67 51 z "},"?":{"ha":821,"x_min":90,"x_max":729,"o":"m 363 0 l 363 175 l 465 175 l 465 0 l 363 0 m 188 706 l 90 706 q 140 901 94 828 q 415 1044 232 1044 q 640 959 551 1044 q 729 743 729 874 q 701 622 729 675 q 604 507 674 569 q 495 386 526 439 q 463 268 464 333 l 365 268 q 399 415 367 353 q 510 551 431 478 q 603 656 581 618 q 626 746 626 694 q 567 893 626 835 q 415 951 507 951 q 301 923 353 951 q 221 844 249 894 q 188 706 194 799 z "},"@":{"ha":1204,"x_min":99,"x_max":1107,"o":"m 911 797 l 782 411 q 754 304 754 326 q 767 276 754 288 q 801 265 781 265 q 925 333 860 265 q 1038 603 1038 443 q 920 867 1038 760 q 628 974 803 974 q 305 838 439 974 q 171 511 171 701 q 304 185 171 319 q 629 51 438 51 q 954 192 821 51 l 1010 146 q 842 26 946 69 q 626 -18 739 -18 q 252 135 406 -18 q 99 510 99 289 q 253 888 99 732 q 629 1044 408 1044 q 957 926 819 1044 q 1107 601 1107 800 q 965 275 1107 406 q 783 193 878 193 q 706 211 735 193 q 661 272 678 229 q 496 200 589 200 q 358 258 411 200 q 304 406 304 315 q 409 694 304 565 q 643 824 514 824 q 754 793 708 824 q 803 728 782 776 l 826 797 l 911 797 m 647 749 q 480 642 556 749 q 404 408 404 536 q 435 316 404 351 q 515 281 465 281 q 675 404 606 281 q 728 529 706 460 q 750 638 750 599 q 722 719 750 689 q 647 749 694 749 z "},"A":{"ha":1028,"x_min":15,"x_max":6897,"o":"m 3086 1844 l 3086 1844 q 3061 1800 3081 1800 l 3058 1800 q 3047 1811 3047 1803 l 3047 1811 q 3086 1844 3047 1822 m 3169 1894 l 3169 1894 q 3144 1853 3164 1853 l 3144 1853 q 3131 1861 3131 1856 l 3131 1861 q 3169 1894 3131 1872 m 3242 1919 l 3242 1919 q 3219 1878 3236 1878 l 3217 1878 q 3206 1886 3206 1878 l 3206 1886 q 3242 1919 3206 1897 m 3256 1861 l 3256 1861 q 3231 1817 3250 1817 l 3231 1817 q 3219 1828 3219 1819 l 3219 1828 q 3256 1861 3219 1839 m 3328 1903 l 3328 1903 q 3306 1861 3322 1861 l 3303 1861 q 3292 1869 3292 1861 l 3292 1869 q 3328 1903 3292 1881 m 3350 1861 l 3353 1861 q 3328 1817 3344 1817 l 3325 1817 q 3314 1828 3314 1819 l 3314 1828 q 3350 1861 3314 1839 m 3333 1792 l 3333 1792 q 3308 1747 3328 1747 l 3308 1747 q 3294 1758 3294 1750 l 3294 1758 q 3333 1792 3294 1792 m 3175 1800 l 3186 1800 l 3186 1800 l 3186 1778 l 3186 1778 q 3333 1689 3278 1778 q 3342 1672 3342 1675 l 3342 1669 l 3342 1669 q 3333 1681 3336 1672 q 3314 1686 3328 1686 l 3306 1686 q 3253 1667 3275 1686 l 3253 1658 q 3250 1656 3253 1656 l 3244 1667 q 3186 1678 3214 1678 l 3186 1553 q 3164 1531 3186 1536 l 3158 1531 q 3133 1547 3139 1531 l 3131 1553 l 3131 1558 l 3133 1558 l 3142 1558 l 3142 1558 l 3142 1556 q 3158 1536 3144 1536 l 3161 1536 q 3175 1547 3169 1536 l 3175 1556 l 3175 1678 q 3117 1667 3133 1678 q 3108 1656 3111 1656 l 3108 1658 l 3108 1658 l 3108 1669 l 3108 1669 q 3056 1686 3094 1681 l 3042 1686 q 3014 1675 3022 1686 l 3011 1672 l 3008 1672 l 3008 1672 q 3061 1736 3022 1697 q 3172 1778 3108 1778 l 3172 1800 l 3175 1800 m 692 1275 l 692 1275 q 667 1231 686 1231 l 664 1231 q 653 1242 653 1233 l 653 1242 q 692 1275 653 1253 m 775 1325 l 775 1325 q 750 1283 769 1283 l 750 1283 q 736 1292 736 1286 l 736 1292 q 775 1325 736 1303 m 847 1350 l 847 1350 q 825 1308 842 1308 l 822 1308 q 811 1317 811 1308 l 811 1317 q 847 1350 811 1328 m 861 1292 l 861 1292 q 836 1247 856 1247 l 836 1247 q 825 1258 825 1250 l 825 1258 q 861 1292 825 1269 m 933 1333 l 933 1333 q 911 1292 928 1292 l 908 1292 q 897 1300 897 1292 l 897 1300 q 933 1333 897 1311 m 956 1292 l 958 1292 q 933 1247 950 1247 l 931 1247 q 919 1258 919 1250 l 919 1258 q 956 1292 919 1269 m 939 1222 l 939 1222 q 914 1178 933 1178 l 914 1178 q 900 1189 900 1181 l 900 1189 q 939 1222 900 1222 m 781 1231 l 792 1231 l 792 1231 l 792 1208 l 792 1208 q 939 1119 886 1208 q 947 1103 947 1106 l 947 1100 l 947 1100 q 939 1111 942 1103 q 919 1117 933 1117 l 911 1117 q 858 1097 881 1117 l 858 1089 q 856 1086 858 1086 l 850 1097 q 792 1108 819 1108 l 792 983 q 769 961 792 967 l 764 961 q 739 978 744 961 l 736 983 l 736 989 l 739 989 l 747 989 l 747 989 l 747 986 q 764 967 750 967 l 767 967 q 781 978 775 967 l 781 986 l 781 1108 q 722 1097 739 1108 q 714 1086 717 1086 l 714 1089 l 714 1089 l 714 1100 l 714 1100 q 661 1117 700 1111 l 647 1117 q 619 1106 628 1117 l 617 1103 l 614 1103 l 614 1103 q 667 1167 633 1136 q 778 1208 714 1208 l 778 1231 l 781 1231 m 6456 1425 l 6703 1425 l 6581 1672 l 6456 1425 m 6419 1400 l 6581 1719 l 6739 1400 l 6419 1400 m 6614 1744 l 6864 1744 l 6739 1992 l 6614 1744 m 6581 1719 l 6739 2039 l 6897 1719 l 6581 1719 m 6456 2064 l 6703 2064 l 6578 2311 l 6456 2064 m 6419 2039 l 6578 2358 l 6739 2039 l 6419 2039 m 888 -297 l 1138 -297 l 1013 -47 l 888 -297 m 854 -319 l 1013 0 l 1171 -319 l 854 -319 m 15 0 l 456 1026 l 571 1026 l 1013 0 l 900 0 l 751 346 l 274 346 l 124 0 l 15 0 m 313 439 l 711 439 l 514 910 l 313 439 z "},"B":{"ha":797,"x_min":106,"x_max":756,"o":"m 106 0 l 106 1026 l 346 1026 q 606 967 522 1026 q 697 760 697 899 q 583 547 697 611 q 756 294 756 478 q 725 151 756 215 q 640 54 694 88 q 360 0 550 0 l 106 0 m 208 93 l 349 93 q 571 131 501 93 q 629 193 607 150 q 651 289 651 236 q 556 463 651 414 q 331 492 496 492 l 208 492 l 208 93 m 208 585 l 333 585 q 514 611 456 585 q 593 758 593 647 q 576 841 593 803 q 533 897 560 879 q 332 933 481 933 l 208 933 l 208 585 z "},"C":{"ha":1129,"x_min":61,"x_max":9181,"o":"m 3056 -536 l 2739 -536 l 2739 -275 l 3056 -275 l 3056 -536 m 2364 -536 l 2047 -536 l 2047 -378 l 2364 -378 l 2364 -536 m 1728 -536 l 1411 -536 l 1411 -483 l 1728 -483 l 1728 -536 m 6578 -1597 q 6572 -1587 6578 -1589 q 6544 -1586 6567 -1586 q 6489 -1581 6536 -1586 l 6458 -1622 l 6436 -1625 l 6450 -1575 l 6436 -1569 l 6450 -1567 l 6436 -1517 l 6458 -1519 l 6489 -1561 l 6503 -1558 q 6526 -1557 6514 -1558 q 6550 -1556 6539 -1556 l 6561 -1556 q 6578 -1544 6578 -1556 q 6578 -1542 6578 -1544 l 6578 -1539 q 6569 -1503 6578 -1521 l 6533 -1422 l 6547 -1422 q 6556 -1424 6553 -1422 q 6564 -1433 6557 -1425 l 6581 -1456 l 6606 -1456 q 6610 -1457 6608 -1456 q 6611 -1461 6611 -1458 q 6610 -1467 6611 -1464 q 6606 -1469 6608 -1469 l 6592 -1469 l 6614 -1497 l 6639 -1497 l 6639 -1500 q 6642 -1506 6642 -1503 q 6640 -1511 6642 -1508 q 6636 -1514 6639 -1514 l 6625 -1514 l 6656 -1553 l 6658 -1556 l 6689 -1556 q 6739 -1569 6739 -1556 q 6719 -1582 6739 -1578 q 6656 -1589 6700 -1586 l 6625 -1628 l 6636 -1628 q 6640 -1631 6639 -1628 q 6642 -1636 6642 -1633 q 6639 -1642 6642 -1639 l 6639 -1642 l 6614 -1642 l 6592 -1672 l 6606 -1672 q 6610 -1674 6608 -1672 q 6611 -1678 6611 -1675 q 6610 -1683 6611 -1681 q 6606 -1686 6608 -1686 l 6581 -1686 l 6564 -1708 q 6556 -1718 6557 -1717 q 6547 -1719 6553 -1719 l 6533 -1719 l 6569 -1639 q 6578 -1597 6578 -1603 m 9029 -1106 l 9029 -1100 q 9031 -1086 9029 -1094 q 9035 -1067 9032 -1078 q 9043 -1046 9038 -1056 q 9057 -1026 9049 -1036 q 9078 -1012 9065 -1017 q 9110 -1008 9090 -1008 q 9136 -1012 9124 -1008 q 9158 -1026 9149 -1017 q 9174 -1049 9168 -1036 q 9181 -1075 9179 -1061 q 9176 -1104 9182 -1089 q 9160 -1136 9169 -1124 l 9029 -1308 l 9029 -1106 m 9013 -1106 l 9013 -1308 l 8882 -1136 q 8867 -1104 8871 -1122 q 8863 -1075 8863 -1089 q 8868 -1049 8863 -1061 q 8883 -1026 8874 -1036 q 8906 -1012 8893 -1017 q 8935 -1008 8918 -1008 q 8965 -1012 8951 -1008 q 8986 -1026 8979 -1017 l 9000 -1046 q 9008 -1067 9007 -1056 q 9011 -1086 9010 -1078 q 9013 -1100 9013 -1094 l 9013 -1106 m 781 1381 l 781 1386 q 782 1400 781 1392 q 785 1419 783 1408 q 794 1440 786 1431 l 808 1460 q 828 1474 814 1469 q 861 1478 842 1478 q 888 1474 875 1478 q 910 1460 900 1469 q 925 1438 919 1450 q 931 1411 931 1425 q 928 1382 931 1397 q 911 1350 922 1364 l 781 1178 l 781 1381 m 764 1381 l 764 1178 l 633 1350 q 617 1382 625 1363 q 613 1411 611 1397 q 619 1438 614 1425 q 635 1460 625 1450 q 657 1474 644 1469 q 683 1478 669 1478 q 714 1474 700 1478 q 736 1460 728 1469 q 750 1440 744 1450 q 758 1419 756 1431 q 763 1400 761 1408 q 764 1386 764 1392 l 764 1381 m 956 269 l 1069 269 q 600 -18 914 -18 q 215 133 369 -18 q 61 510 61 285 q 213 892 61 740 q 593 1044 364 1044 q 879 968 753 1044 q 1065 760 1006 892 l 950 760 q 838 881 897 843 q 597 950 735 950 q 290 824 414 950 q 165 514 165 699 q 293 205 165 333 q 599 76 421 76 q 853 161 746 76 q 956 269 894 193 z "},"D":{"ha":1033,"x_min":106,"x_max":972,"o":"m 106 0 l 106 1026 l 347 1026 q 577 1008 488 1026 q 739 946 667 989 q 972 510 972 808 q 735 76 972 217 q 382 0 604 0 l 106 0 m 208 93 l 351 93 q 574 115 488 93 q 721 185 660 136 q 868 514 868 304 q 819 722 868 629 q 682 867 771 814 q 351 933 572 933 l 208 933 l 208 93 z "},"E":{"ha":744,"x_min":106,"x_max":667,"o":"m 106 0 l 106 1026 l 667 1026 l 667 933 l 208 933 l 208 565 l 651 565 l 651 472 l 208 472 l 208 93 l 667 93 l 667 0 l 106 0 z "},"F":{"ha":674,"x_min":106,"x_max":626,"o":"m 106 0 l 106 1026 l 626 1026 l 626 933 l 208 933 l 208 563 l 611 563 l 611 469 l 208 469 l 208 0 l 106 0 z "},"G":{"ha":1211,"x_min":61,"x_max":1154,"o":"m 457 474 l 1154 474 q 1019 156 1143 299 q 619 -18 867 -18 q 222 136 383 -18 q 61 515 61 290 q 219 891 61 738 q 606 1044 376 1044 q 907 964 774 1044 q 1092 753 1040 883 l 976 753 q 828 898 924 846 q 614 950 733 950 q 294 824 424 950 q 165 513 165 697 q 296 203 165 329 q 615 76 426 76 q 922 199 800 76 q 1031 381 1008 285 l 457 381 l 457 474 z "},"H":{"ha":949,"x_min":106,"x_max":843,"o":"m 106 0 l 106 1026 l 208 1026 l 208 575 l 740 575 l 740 1026 l 843 1026 l 843 0 l 740 0 l 740 482 l 208 482 l 208 0 l 106 0 z "},"I":{"ha":314,"x_min":-108,"x_max":1694,"o":"m 1379 53 q 1388 50 1383 53 q 1386 43 1386 49 q 1398 43 1390 44 q 1410 36 1406 42 q 1405 36 1410 36 q 1400 36 1400 36 l 1406 28 l 1399 22 l 1397 15 q 1392 13 1394 15 q 1386 10 1389 11 q 1381 10 1383 10 q 1385 3 1383 7 q 1381 -1 1383 1 q 1376 -3 1378 -3 q 1400 7 1389 3 q 1460 19 1431 17 q 1491 15 1472 21 q 1518 6 1510 10 q 1542 -11 1533 -3 q 1521 -14 1521 -14 q 1508 -5 1517 -11 q 1493 4 1499 1 l 1507 -8 q 1483 7 1490 1 q 1487 -1 1485 4 q 1490 -7 1489 -6 q 1483 -3 1488 -6 q 1476 1 1479 -1 q 1469 4 1472 3 q 1472 -6 1469 0 q 1464 0 1468 -4 q 1454 -6 1458 -1 q 1448 -6 1453 -6 q 1442 -6 1443 -7 q 1467 -25 1454 -12 q 1481 -57 1479 -37 q 1472 -46 1475 -51 q 1469 -51 1471 -49 l 1471 -53 q 1491 -70 1481 -58 q 1507 -92 1501 -82 q 1504 -90 1506 -92 q 1501 -89 1503 -89 q 1507 -107 1506 -96 q 1500 -103 1504 -104 q 1500 -106 1500 -104 l 1503 -110 l 1500 -119 q 1492 -117 1494 -119 l 1485 -118 l 1490 -125 q 1482 -129 1488 -128 l 1481 -128 q 1476 -129 1479 -129 l 1472 -124 q 1472 -129 1472 -126 q 1464 -129 1468 -131 q 1463 -117 1464 -122 q 1461 -129 1463 -125 q 1451 -125 1457 -128 q 1451 -118 1451 -124 q 1450 -112 1451 -112 q 1442 -111 1446 -112 q 1439 -94 1439 -107 q 1436 -104 1438 -99 l 1436 -103 q 1436 -126 1438 -115 q 1435 -123 1436 -126 q 1433 -117 1435 -119 q 1428 -125 1432 -124 q 1417 -94 1419 -110 q 1416 -89 1417 -92 q 1414 -83 1415 -86 q 1413 -81 1413 -81 q 1408 -79 1411 -81 q 1408 -79 1408 -79 l 1407 -79 q 1406 -82 1407 -79 q 1406 -86 1406 -85 q 1403 -75 1403 -79 l 1403 -74 q 1397 -79 1400 -76 q 1406 -100 1400 -92 q 1418 -119 1413 -110 q 1435 -143 1424 -129 q 1461 -167 1447 -157 l 1568 -254 q 1660 -349 1625 -301 q 1694 -389 1679 -374 l 1653 -389 q 1592 -303 1628 -339 q 1522 -239 1560 -271 l 1488 -210 q 1431 -160 1440 -169 q 1385 -106 1406 -135 q 1383 -101 1385 -104 q 1382 -103 1383 -103 l 1385 -110 l 1385 -110 q 1403 -146 1396 -137 l 1381 -118 l 1381 -121 q 1392 -169 1388 -140 q 1388 -175 1389 -174 q 1386 -181 1386 -179 q 1384 -183 1386 -182 q 1382 -185 1382 -185 q 1385 -194 1383 -187 q 1378 -199 1381 -196 q 1372 -206 1376 -201 q 1368 -197 1371 -203 q 1363 -200 1365 -200 q 1360 -194 1363 -197 q 1358 -189 1358 -190 q 1353 -187 1356 -189 q 1351 -174 1353 -179 q 1344 -174 1349 -172 q 1349 -162 1346 -167 l 1342 -162 q 1342 -156 1342 -162 q 1343 -149 1342 -149 q 1340 -146 1342 -147 q 1336 -143 1338 -144 q 1339 -136 1339 -139 l 1331 -124 q 1336 -106 1336 -118 q 1342 -94 1339 -97 q 1336 -82 1342 -93 q 1338 -68 1338 -76 l 1332 -65 q 1336 -76 1333 -72 q 1326 -62 1329 -69 q 1332 -82 1332 -82 q 1329 -75 1331 -78 q 1328 -86 1329 -81 q 1324 -89 1325 -87 q 1324 -90 1324 -89 q 1324 -90 1324 -90 l 1324 -89 q 1324 -89 1324 -89 q 1319 -93 1321 -93 q 1323 -104 1319 -96 q 1326 -117 1326 -112 q 1324 -119 1326 -117 q 1319 -122 1321 -122 q 1319 -127 1319 -125 q 1319 -131 1319 -129 q 1321 -136 1319 -133 q 1317 -137 1321 -136 q 1313 -137 1314 -139 q 1307 -142 1310 -139 q 1306 -143 1307 -143 q 1308 -149 1307 -146 q 1308 -157 1308 -153 q 1310 -164 1308 -161 l 1304 -160 q 1304 -169 1304 -164 q 1303 -178 1304 -175 l 1299 -174 l 1301 -181 l 1297 -182 q 1294 -189 1297 -182 q 1292 -188 1293 -189 q 1290 -187 1290 -187 q 1290 -190 1290 -187 q 1289 -194 1289 -193 q 1283 -193 1286 -194 q 1279 -181 1282 -187 q 1278 -185 1279 -181 q 1278 -190 1278 -189 q 1276 -187 1276 -190 q 1274 -183 1275 -185 q 1271 -190 1271 -187 q 1268 -184 1269 -189 q 1265 -176 1267 -179 l 1263 -183 q 1263 -169 1261 -178 q 1264 -158 1264 -161 q 1263 -157 1264 -158 q 1260 -156 1261 -156 q 1268 -136 1261 -146 q 1265 -132 1267 -135 q 1263 -129 1263 -129 q 1265 -137 1265 -137 l 1260 -131 q 1260 -137 1260 -131 q 1258 -144 1260 -144 q 1253 -136 1257 -139 q 1257 -146 1254 -142 q 1253 -143 1257 -146 q 1249 -139 1250 -140 l 1253 -151 l 1250 -146 q 1251 -157 1251 -151 q 1244 -147 1249 -151 q 1246 -156 1244 -151 l 1239 -149 l 1243 -160 l 1238 -154 q 1238 -167 1236 -160 q 1235 -163 1238 -165 q 1232 -160 1232 -161 q 1229 -168 1231 -165 l 1225 -161 q 1226 -170 1225 -164 q 1225 -179 1226 -176 l 1222 -175 l 1222 -181 q 1218 -169 1219 -176 q 1232 -129 1221 -151 q 1246 -108 1235 -122 q 1264 -86 1257 -93 q 1288 -64 1275 -75 q 1290 -57 1289 -60 q 1289 -54 1289 -56 q 1286 -56 1288 -54 q 1288 -53 1288 -54 q 1288 -50 1288 -51 l 1285 -51 q 1282 -55 1285 -51 q 1279 -60 1279 -58 l 1279 -56 l 1278 -53 q 1271 -69 1274 -60 q 1269 -63 1271 -69 q 1268 -53 1268 -57 q 1265 -61 1268 -57 q 1261 -68 1261 -65 q 1263 -56 1261 -64 l 1256 -72 q 1256 -65 1256 -69 q 1256 -58 1256 -60 q 1247 -74 1249 -67 q 1247 -62 1246 -67 q 1236 -79 1239 -72 l 1233 -68 q 1224 -81 1226 -75 q 1222 -68 1222 -76 q 1219 -76 1221 -71 q 1217 -83 1218 -81 q 1218 -72 1217 -78 l 1211 -87 q 1211 -75 1210 -82 q 1204 -87 1206 -82 l 1203 -76 q 1201 -81 1201 -78 q 1201 -87 1201 -83 q 1200 -93 1200 -90 q 1197 -85 1197 -89 q 1194 -94 1194 -89 q 1193 -79 1192 -86 q 1188 -100 1193 -81 q 1185 -82 1186 -86 q 1183 -91 1185 -85 q 1182 -99 1182 -97 q 1181 -92 1181 -96 q 1181 -87 1181 -89 q 1175 -101 1175 -101 l 1176 -90 q 1174 -94 1175 -92 q 1173 -100 1174 -97 q 1172 -104 1172 -103 q 1172 -97 1172 -103 q 1172 -89 1172 -92 q 1184 -75 1174 -86 q 1203 -58 1194 -64 q 1258 -36 1222 -43 q 1256 -31 1257 -35 q 1254 -26 1256 -28 q 1251 -31 1253 -28 q 1247 -33 1249 -33 q 1247 -32 1247 -33 q 1231 -42 1240 -37 l 1238 -35 l 1226 -37 l 1232 -26 l 1221 -33 l 1226 -25 q 1219 -30 1225 -26 q 1210 -35 1213 -33 l 1214 -29 l 1206 -33 q 1201 -28 1203 -32 q 1196 -24 1199 -25 q 1229 -11 1207 -18 q 1235 -4 1231 -7 q 1222 -3 1228 -3 q 1244 6 1229 1 q 1276 8 1260 10 q 1282 8 1278 8 q 1278 11 1279 10 q 1285 18 1283 17 q 1280 16 1283 18 q 1274 14 1276 14 q 1269 25 1271 18 q 1260 25 1265 26 q 1257 35 1260 25 q 1252 35 1256 36 q 1247 35 1249 35 q 1249 42 1249 39 q 1258 46 1253 44 q 1260 51 1258 47 q 1274 48 1260 51 q 1293 40 1288 44 q 1294 31 1293 33 q 1295 34 1294 32 q 1296 36 1296 36 q 1301 35 1296 36 q 1306 32 1306 33 q 1304 28 1304 29 q 1307 31 1307 29 q 1322 17 1311 28 q 1335 4 1332 7 l 1336 4 q 1338 3 1336 3 l 1335 14 q 1342 15 1338 15 q 1344 17 1343 17 q 1343 33 1344 29 q 1349 35 1346 35 q 1356 35 1351 35 q 1362 43 1357 38 q 1368 51 1367 49 q 1379 53 1375 53 m 100 1513 q 108 1510 104 1513 q 107 1503 107 1507 q 118 1503 111 1504 q 131 1496 125 1501 q 126 1496 131 1496 q 121 1494 121 1496 l 126 1488 l 118 1482 l 118 1475 q 113 1473 115 1475 q 107 1470 110 1471 q 101 1469 104 1469 q 106 1461 104 1467 q 101 1459 104 1461 q 97 1456 99 1457 q 121 1465 110 1463 q 181 1479 151 1476 q 212 1475 193 1481 q 239 1465 231 1469 q 263 1449 254 1457 q 242 1446 242 1446 q 228 1455 238 1449 q 214 1463 219 1461 l 226 1451 q 204 1467 211 1461 q 208 1459 206 1464 q 211 1451 210 1454 q 204 1456 208 1453 q 197 1460 200 1458 q 190 1464 193 1463 q 193 1454 190 1460 q 185 1460 189 1456 q 175 1454 179 1457 q 169 1453 174 1454 q 163 1453 164 1453 q 186 1435 175 1447 q 201 1403 199 1422 q 193 1414 196 1408 q 190 1408 190 1411 l 192 1407 q 212 1390 201 1401 q 228 1368 222 1378 q 225 1369 226 1368 q 222 1371 224 1371 q 228 1353 226 1364 q 221 1356 225 1356 q 221 1354 221 1356 l 224 1350 l 219 1340 q 213 1343 215 1340 l 206 1342 l 211 1335 q 203 1331 208 1332 l 201 1332 q 197 1329 200 1331 l 193 1335 q 193 1329 193 1333 q 185 1331 189 1328 q 183 1343 185 1336 q 182 1331 183 1335 q 172 1335 178 1332 q 172 1341 172 1335 q 171 1347 172 1347 q 163 1349 167 1347 q 160 1365 160 1353 q 157 1356 158 1361 l 157 1357 q 157 1333 158 1344 q 156 1337 157 1333 q 154 1343 154 1340 q 149 1335 153 1336 q 136 1364 140 1350 q 137 1371 138 1368 q 135 1376 136 1374 q 133 1379 133 1378 q 129 1379 132 1379 q 129 1381 129 1379 l 128 1381 q 127 1378 128 1381 q 125 1374 126 1375 q 124 1385 124 1379 l 122 1386 q 118 1381 121 1383 q 126 1360 121 1368 q 139 1340 133 1350 q 157 1317 144 1331 q 182 1293 168 1304 l 289 1206 q 381 1111 343 1163 q 415 1071 400 1086 l 374 1071 q 313 1157 349 1121 q 242 1219 289 1179 l 208 1250 q 151 1300 164 1288 q 106 1354 126 1324 q 104 1358 106 1356 q 103 1357 103 1357 l 106 1350 l 106 1350 q 124 1314 117 1322 l 101 1342 l 101 1339 q 113 1290 108 1321 q 108 1285 110 1286 q 107 1278 107 1281 q 105 1276 107 1278 q 101 1275 103 1275 q 106 1265 104 1272 q 99 1261 101 1264 q 93 1253 97 1258 q 88 1261 92 1257 q 83 1260 86 1260 q 81 1265 83 1261 q 79 1269 79 1269 q 74 1272 76 1271 q 72 1286 74 1281 q 65 1286 69 1286 q 69 1296 67 1293 l 63 1297 q 63 1304 63 1297 q 63 1311 63 1311 q 60 1314 63 1313 q 57 1317 58 1315 q 60 1324 60 1319 l 51 1336 q 57 1354 57 1342 q 63 1365 60 1363 q 57 1378 63 1367 q 58 1392 58 1383 l 53 1394 q 57 1383 54 1388 q 46 1397 50 1390 q 53 1378 53 1378 q 49 1385 51 1382 q 49 1374 50 1379 q 44 1371 46 1372 q 44 1370 44 1371 q 44 1369 44 1369 l 44 1369 q 44 1371 44 1371 q 40 1367 42 1367 q 44 1355 40 1364 q 47 1343 47 1346 q 44 1340 47 1343 q 40 1336 42 1338 q 40 1333 40 1335 q 40 1328 40 1331 q 42 1324 40 1326 q 38 1322 42 1324 q 33 1321 35 1321 q 28 1318 31 1321 q 26 1317 28 1317 q 28 1310 28 1314 q 29 1303 29 1307 q 29 1296 29 1299 l 25 1299 q 25 1290 25 1296 q 24 1282 25 1285 l 18 1286 l 22 1279 l 18 1278 q 15 1269 18 1278 q 13 1270 14 1269 q 10 1271 11 1271 q 10 1269 10 1271 q 10 1265 10 1267 q 4 1265 7 1265 q 0 1279 3 1272 q -1 1275 0 1279 q -1 1268 -1 1271 q -3 1272 -3 1269 q -6 1276 -4 1275 q -8 1269 -8 1272 q -11 1276 -10 1271 q -14 1282 -12 1281 l -17 1276 q -17 1290 -18 1281 q -15 1301 -15 1299 q -17 1303 -15 1301 q -19 1304 -18 1304 q -11 1324 -18 1314 q -15 1328 -12 1325 q -17 1331 -17 1331 q -14 1322 -14 1322 l -19 1329 q -19 1322 -19 1329 q -21 1315 -19 1315 q -26 1324 -22 1321 q -22 1313 -25 1318 q -26 1316 -22 1313 q -31 1321 -29 1319 l -26 1307 l -29 1314 q -28 1303 -28 1307 q -35 1313 -31 1308 q -33 1304 -35 1308 l -40 1311 l -36 1299 l -43 1306 q -42 1293 -43 1300 q -44 1297 -42 1294 q -47 1300 -47 1299 q -50 1292 -49 1294 l -54 1299 q -53 1290 -54 1296 q -54 1281 -53 1283 l -57 1285 l -58 1279 q -61 1289 -60 1283 q -49 1331 -58 1308 q -33 1352 -44 1338 q -15 1374 -22 1367 q 8 1396 -4 1385 q 11 1403 10 1400 q 10 1406 10 1404 q 7 1404 8 1406 q 8 1407 8 1406 q 8 1410 8 1408 l 6 1408 q 3 1405 6 1408 q 0 1400 0 1401 l 0 1403 l -1 1407 q -8 1390 -6 1399 q -10 1397 -8 1390 q -11 1406 -11 1403 q -15 1398 -12 1403 q -18 1392 -18 1393 q -17 1404 -18 1396 l -24 1388 q -24 1394 -24 1390 q -24 1401 -24 1399 q -32 1386 -31 1393 q -32 1397 -33 1393 q -43 1381 -42 1388 l -46 1392 q -56 1379 -53 1383 q -57 1392 -57 1383 q -60 1384 -58 1389 q -62 1376 -61 1379 q -62 1388 -64 1382 l -68 1372 q -68 1383 -69 1378 q -75 1372 -74 1376 l -76 1383 q -78 1378 -78 1381 q -78 1372 -78 1375 q -79 1367 -79 1368 q -82 1375 -82 1371 q -85 1365 -85 1371 q -86 1379 -87 1374 q -92 1358 -86 1379 q -94 1376 -93 1374 q -97 1369 -96 1375 q -99 1361 -97 1363 q -99 1367 -99 1363 q -99 1372 -99 1371 q -104 1358 -104 1358 l -103 1369 q -105 1365 -104 1367 q -106 1360 -106 1363 q -107 1356 -107 1357 q -108 1363 -107 1357 q -107 1371 -108 1368 q -95 1384 -106 1374 q -76 1401 -85 1394 q -21 1424 -57 1415 q -23 1428 -22 1425 q -25 1433 -24 1432 q -28 1429 -26 1432 q -32 1426 -31 1426 q -32 1428 -32 1426 q -49 1417 -39 1422 l -43 1425 l -53 1422 l -49 1433 l -58 1426 l -53 1433 q -60 1430 -54 1433 q -69 1425 -67 1426 l -65 1429 l -74 1426 q -78 1431 -76 1428 q -83 1436 -81 1433 q -50 1447 -72 1442 q -44 1456 -49 1453 q -57 1457 -51 1457 q -35 1465 -50 1461 q -3 1468 -19 1469 q 1 1468 -1 1468 q -1 1471 0 1469 q 6 1478 4 1476 q 1 1476 4 1478 q -6 1474 -3 1474 q -10 1485 -8 1478 q -19 1485 -14 1485 q -22 1494 -19 1485 q -27 1495 -24 1496 q -32 1494 -31 1494 q -31 1501 -31 1499 q -21 1506 -26 1504 q -19 1510 -21 1507 q -6 1506 -19 1510 q 14 1500 8 1503 q 15 1490 14 1493 q 16 1493 15 1492 q 17 1496 17 1494 q 22 1494 17 1496 q 26 1492 26 1493 q 25 1486 25 1489 q 28 1490 28 1489 q 42 1477 32 1488 q 56 1464 53 1467 l 56 1464 q 58 1463 57 1463 l 56 1474 q 61 1475 58 1475 q 65 1475 64 1475 q 63 1492 64 1489 q 69 1494 67 1494 q 76 1493 72 1494 q 83 1503 78 1497 q 89 1510 88 1508 q 100 1513 96 1513 m 1378 1826 q 1372 1836 1378 1835 q 1344 1838 1367 1838 q 1289 1843 1336 1838 l 1258 1801 l 1236 1799 l 1250 1849 l 1236 1854 l 1250 1857 l 1236 1907 l 1258 1904 l 1289 1863 l 1303 1865 q 1326 1867 1314 1865 q 1350 1868 1339 1868 l 1361 1868 q 1378 1879 1378 1868 l 1378 1882 l 1378 1885 q 1369 1921 1378 1903 l 1333 2001 l 1347 2001 q 1356 2000 1353 2001 q 1364 1990 1357 2000 l 1381 1968 l 1406 1968 q 1410 1967 1408 1968 q 1411 1963 1411 1965 q 1410 1957 1411 1960 q 1406 1954 1408 1954 l 1392 1954 l 1414 1926 l 1439 1926 l 1439 1924 q 1442 1918 1442 1921 q 1440 1913 1442 1915 q 1436 1910 1439 1910 l 1425 1910 l 1456 1871 l 1458 1868 l 1489 1868 q 1539 1854 1539 1868 q 1519 1842 1539 1846 q 1456 1835 1500 1838 l 1425 1796 l 1436 1796 q 1440 1793 1439 1796 q 1442 1788 1442 1790 q 1439 1782 1442 1785 l 1439 1782 l 1414 1782 l 1392 1751 l 1406 1751 q 1410 1750 1408 1751 q 1411 1746 1411 1749 q 1410 1740 1411 1743 q 1406 1738 1408 1738 l 1381 1738 l 1364 1715 q 1356 1706 1357 1707 q 1347 1704 1353 1704 l 1333 1704 l 1369 1785 q 1378 1826 1378 1821 m 106 0 l 106 1026 l 208 1026 l 208 0 l 106 0 z "},"J":{"ha":669,"x_min":15,"x_max":564,"o":"m 564 1026 l 564 321 q 524 114 564 190 q 290 -19 458 -19 q 95 50 168 -19 q 15 243 22 119 l 117 243 q 169 120 122 165 q 292 75 215 75 q 461 321 461 75 l 461 1026 l 564 1026 z "},"K":{"ha":821,"x_min":106,"x_max":813,"o":"m 106 0 l 106 1026 l 208 1026 l 208 436 l 683 1026 l 813 1026 l 407 526 l 813 0 l 683 0 l 342 444 l 208 281 l 208 0 l 106 0 z "},"L":{"ha":642,"x_min":106,"x_max":633,"o":"m 106 0 l 106 1026 l 208 1026 l 208 93 l 633 93 l 633 0 l 106 0 z "},"M":{"ha":1276,"x_min":106,"x_max":6032,"o":"m 5829 -983 l 5829 -983 l 5829 -983 l 5832 -983 l 5832 -983 l 5832 -986 l 5829 -986 l 5829 -986 l 5829 -983 m 5776 -981 l 5776 -975 l 5768 -975 l 5763 -975 l 5763 -972 l 5763 -969 l 5760 -969 l 5754 -969 l 5754 -967 l 5754 -961 l 5751 -961 l 5749 -961 l 5749 -967 l 5749 -969 l 5749 -969 l 5746 -969 l 5746 -967 l 5746 -967 l 5743 -967 l 5740 -967 l 5740 -961 l 5740 -958 l 5738 -958 l 5732 -958 l 5732 -956 l 5732 -953 l 5729 -953 l 5729 -953 l 5729 -953 l 5729 -956 l 5726 -956 l 5724 -956 l 5724 -953 l 5724 -947 l 5721 -947 l 5718 -947 l 5718 -950 l 5718 -953 l 5715 -953 l 5713 -953 l 5713 -950 l 5713 -947 l 5710 -947 l 5707 -947 l 5707 -947 l 5707 -944 l 5704 -944 l 5704 -944 l 5704 -942 l 5701 -942 l 5701 -942 l 5693 -942 l 5693 -939 l 5693 -939 l 5690 -939 l 5690 -936 l 5690 -933 l 5688 -933 l 5685 -933 l 5685 -936 l 5685 -939 l 5688 -939 l 5690 -939 l 5690 -939 l 5690 -942 l 5688 -942 l 5685 -942 l 5685 -939 l 5685 -939 l 5685 -939 l 5682 -939 l 5682 -936 l 5682 -933 l 5679 -933 l 5674 -933 l 5674 -933 l 5674 -931 l 5665 -931 l 5657 -931 l 5657 -931 l 5657 -928 l 5654 -928 l 5649 -928 l 5649 -925 l 5649 -922 l 5646 -922 l 5646 -922 l 5646 -919 l 5646 -917 l 5643 -917 l 5640 -917 l 5640 -917 l 5640 -914 l 5640 -914 l 5638 -914 l 5638 -908 l 5638 -903 l 5635 -903 l 5635 -903 l 5635 -903 l 5635 -900 l 5635 -900 l 5638 -900 l 5638 -894 l 5638 -889 l 5635 -889 l 5635 -889 l 5635 -883 l 5635 -878 l 5635 -878 l 5638 -878 l 5638 -872 l 5638 -867 l 5640 -867 l 5640 -867 l 5640 -867 l 5640 -867 l 5643 -867 l 5646 -867 l 5646 -858 l 5646 -853 l 5649 -853 l 5651 -853 l 5651 -847 l 5651 -844 l 5651 -839 l 5654 -839 l 5657 -839 l 5657 -833 l 5657 -831 l 5660 -831 l 5663 -831 l 5663 -825 l 5663 -819 l 5665 -819 l 5668 -819 l 5668 -817 l 5668 -814 l 5671 -814 l 5674 -814 l 5674 -808 l 5674 -806 l 5674 -803 l 5676 -803 l 5679 -803 l 5679 -806 l 5679 -806 l 5682 -806 l 5682 -806 l 5682 -800 l 5682 -794 l 5685 -794 l 5685 -794 l 5685 -794 l 5685 -792 l 5688 -792 l 5690 -792 l 5690 -789 l 5690 -786 l 5696 -786 l 5701 -786 l 5701 -786 l 5701 -778 l 5704 -778 l 5707 -778 l 5710 -778 l 5710 -775 l 5710 -772 l 5718 -772 l 5724 -772 l 5724 -767 l 5724 -764 l 5732 -764 l 5738 -764 l 5738 -761 l 5738 -758 l 5740 -758 l 5740 -758 l 5740 -756 l 5740 -753 l 5746 -753 l 5749 -753 l 5749 -756 l 5749 -758 l 5751 -758 l 5754 -758 l 5754 -756 l 5754 -750 l 5763 -750 l 5768 -750 l 5768 -750 l 5768 -747 l 5771 -747 l 5774 -747 l 5774 -750 l 5774 -750 l 5776 -750 l 5779 -750 l 5779 -753 l 5779 -753 l 5782 -753 l 5785 -753 l 5785 -756 l 5785 -758 l 5785 -758 l 5788 -758 l 5788 -764 l 5788 -767 l 5785 -767 l 5779 -767 l 5779 -767 l 5779 -764 l 5779 -764 l 5776 -764 l 5776 -772 l 5776 -778 l 5779 -778 l 5779 -778 l 5779 -778 l 5779 -775 l 5782 -775 l 5785 -775 l 5785 -778 l 5785 -781 l 5785 -781 l 5785 -778 l 5788 -778 l 5790 -778 l 5790 -775 l 5790 -772 l 5793 -772 l 5793 -772 l 5793 -772 l 5793 -775 l 5799 -775 l 5804 -775 l 5804 -778 l 5804 -778 l 5807 -778 l 5810 -778 l 5810 -781 l 5810 -781 l 5810 -781 l 5807 -781 l 5807 -792 l 5807 -800 l 5810 -800 l 5810 -800 l 5810 -792 l 5810 -786 l 5813 -786 l 5815 -786 l 5815 -786 l 5815 -789 l 5832 -789 l 5849 -789 l 5849 -792 l 5849 -794 l 5851 -794 l 5854 -794 l 5854 -789 l 5860 -789 l 5860 -792 l 5860 -794 l 5857 -794 l 5854 -794 l 5854 -797 l 5854 -800 l 5857 -800 l 5860 -800 l 5860 -797 l 5860 -794 l 5868 -794 l 5876 -794 l 5876 -797 l 5876 -800 l 5882 -800 l 5882 -806 l 5882 -811 l 5888 -811 l 5890 -811 l 5890 -806 l 5890 -803 l 5893 -803 l 5893 -803 l 5893 -806 l 5893 -806 l 5899 -806 l 5901 -806 l 5901 -808 l 5901 -811 l 5904 -811 l 5910 -811 l 5910 -808 l 5910 -806 l 5910 -806 l 5910 -806 l 5910 -814 l 5910 -819 l 5913 -819 l 5915 -819 l 5915 -817 l 5915 -814 l 5918 -814 l 5921 -814 l 5921 -811 l 5921 -811 l 5924 -811 l 5926 -811 l 5926 -811 l 5926 -814 l 5926 -814 l 5929 -814 l 5929 -814 l 5929 -817 l 5926 -817 l 5926 -817 l 5926 -819 l 5926 -822 l 5929 -822 l 5932 -822 l 5932 -822 l 5932 -819 l 5938 -819 l 5943 -819 l 5943 -825 l 5943 -831 l 5949 -831 l 5949 -825 l 5949 -822 l 5951 -822 l 5954 -822 l 5954 -828 l 5954 -833 l 5954 -833 l 5957 -833 l 5957 -831 l 5957 -831 l 5960 -831 l 5960 -831 l 5960 -833 l 5960 -839 l 5963 -839 l 5965 -839 l 5965 -839 l 5965 -842 l 5968 -842 l 5971 -842 l 5971 -839 l 5971 -839 l 5974 -839 l 5976 -839 l 5976 -839 l 5976 -842 l 5979 -842 l 5982 -842 l 5982 -842 l 5982 -844 l 5982 -844 l 5985 -844 l 5985 -850 l 5985 -856 l 5988 -856 l 5990 -856 l 5990 -861 l 5990 -867 l 5993 -867 l 5996 -867 l 5996 -867 l 5996 -867 l 5993 -867 l 5990 -867 l 5990 -867 l 5990 -867 l 5985 -867 l 5982 -867 l 5982 -867 l 5982 -867 l 5985 -867 l 5990 -867 l 5990 -872 l 5990 -878 l 5990 -878 l 5988 -878 l 5988 -881 l 5988 -883 l 5990 -883 l 5996 -883 l 5996 -875 l 5996 -867 l 5996 -867 l 5999 -867 l 5999 -864 l 5999 -861 l 5999 -861 l 6001 -861 l 6001 -867 l 6001 -872 l 5999 -872 l 5999 -872 l 5999 -875 l 5999 -878 l 6004 -878 l 6013 -878 l 6015 -878 l 6015 -886 l 6018 -886 l 6018 -892 l 6018 -897 l 6018 -897 l 6015 -897 l 6015 -894 l 6015 -894 l 6013 -894 l 6010 -894 l 6010 -894 l 6010 -897 l 6007 -897 l 6004 -897 l 6004 -897 l 6004 -900 l 6001 -900 l 5999 -900 l 5999 -897 l 5999 -897 l 6001 -897 l 6001 -892 l 6001 -889 l 6001 -889 l 5999 -889 l 5999 -892 l 5999 -894 l 5999 -894 l 5996 -894 l 5996 -897 l 5996 -900 l 5996 -903 l 5999 -903 l 6004 -903 l 6004 -906 l 6004 -906 l 6007 -906 l 6010 -906 l 6010 -908 l 6010 -911 l 6004 -911 l 5999 -911 l 5999 -911 l 5999 -914 l 5999 -914 l 6001 -914 l 6001 -917 l 6001 -917 l 5999 -917 l 5999 -917 l 5999 -917 l 5999 -925 l 5985 -925 l 5985 -914 l 5988 -914 l 5990 -914 l 5990 -917 l 5990 -917 l 5993 -917 l 5996 -917 l 5996 -914 l 5996 -911 l 5990 -911 l 5988 -911 l 5988 -908 l 5988 -906 l 5985 -906 l 5985 -906 l 5985 -911 l 5985 -914 l 5982 -914 l 5982 -914 l 5982 -922 l 5982 -931 l 5976 -931 l 5974 -931 l 5974 -933 l 5974 -933 l 5971 -933 l 5971 -933 l 5971 -931 l 5971 -928 l 5968 -928 l 5965 -928 l 5965 -925 l 5965 -922 l 5963 -922 l 5957 -922 l 5957 -928 l 5957 -931 l 5954 -931 l 5954 -931 l 5954 -933 l 5954 -933 l 5957 -933 l 5960 -933 l 5960 -939 l 5960 -942 l 5954 -942 l 5949 -942 l 5949 -939 l 5949 -939 l 5949 -939 l 5946 -939 l 5946 -939 l 5946 -942 l 5943 -942 l 5943 -942 l 5943 -944 l 5943 -944 l 5940 -944 l 5938 -944 l 5938 -947 l 5938 -947 l 5935 -947 l 5929 -947 l 5929 -947 l 5929 -944 l 5926 -944 l 5926 -944 l 5926 -947 l 5926 -947 l 5918 -947 l 5910 -947 l 5910 -953 l 5910 -956 l 5913 -956 l 5915 -956 l 5915 -953 l 5915 -953 l 5915 -953 l 5921 -953 l 5921 -958 l 5921 -958 l 5921 -958 l 5918 -958 l 5918 -956 l 5918 -956 l 5918 -956 l 5915 -956 l 5915 -958 l 5915 -961 l 5913 -961 l 5910 -961 l 5910 -964 l 5910 -967 l 5913 -967 l 5915 -967 l 5915 -969 l 5915 -972 l 5913 -972 l 5910 -972 l 5910 -969 l 5910 -967 l 5910 -967 l 5910 -967 l 5910 -961 l 5910 -956 l 5907 -956 l 5904 -956 l 5904 -956 l 5904 -958 l 5901 -958 l 5901 -958 l 5901 -967 l 5901 -975 l 5899 -975 l 5899 -975 l 5899 -972 l 5899 -969 l 5890 -969 l 5885 -969 l 5885 -972 l 5885 -972 l 5879 -972 l 5876 -972 l 5876 -975 l 5876 -975 l 5874 -975 l 5871 -975 l 5871 -975 l 5871 -972 l 5865 -972 l 5860 -972 l 5860 -972 l 5860 -969 l 5857 -969 l 5854 -969 l 5854 -967 l 5854 -967 l 5854 -967 l 5854 -967 l 5854 -961 l 5854 -958 l 5851 -958 l 5849 -958 l 5849 -961 l 5849 -961 l 5849 -961 l 5846 -961 l 5846 -964 l 5846 -967 l 5843 -967 l 5843 -967 l 5843 -967 l 5843 -969 l 5838 -969 l 5832 -969 l 5832 -972 l 5832 -972 l 5849 -972 l 5849 -975 l 5849 -975 l 5851 -975 l 5854 -975 l 5854 -978 l 5854 -981 l 5851 -981 l 5849 -981 l 5849 -981 l 5849 -983 l 5846 -983 l 5843 -983 l 5843 -981 l 5843 -981 l 5846 -981 l 5849 -981 l 5849 -978 l 5849 -975 l 5843 -975 l 5838 -975 l 5838 -978 l 5838 -981 l 5838 -981 l 5835 -981 l 5835 -978 l 5835 -975 l 5832 -975 l 5829 -975 l 5829 -978 l 5829 -981 l 5826 -981 l 5826 -981 l 5826 -978 l 5826 -975 l 5824 -975 l 5821 -975 l 5821 -978 l 5821 -981 l 5818 -981 l 5818 -981 l 5818 -978 l 5818 -975 l 5815 -975 l 5815 -975 l 5815 -967 l 5815 -958 l 5810 -958 l 5807 -958 l 5807 -961 l 5807 -967 l 5810 -967 l 5810 -967 l 5810 -967 l 5810 -969 l 5807 -969 l 5804 -969 l 5804 -972 l 5804 -972 l 5807 -972 l 5810 -972 l 5810 -975 l 5810 -975 l 5813 -975 l 5815 -975 l 5815 -978 l 5815 -981 l 5810 -981 l 5807 -981 l 5807 -978 l 5807 -975 l 5804 -975 l 5801 -975 l 5801 -972 l 5801 -969 l 5799 -969 l 5793 -969 l 5793 -972 l 5793 -972 l 5793 -972 l 5790 -972 l 5790 -975 l 5790 -975 l 5788 -975 l 5788 -975 l 5788 -978 l 5788 -981 l 5785 -981 l 5785 -981 l 5785 -978 l 5785 -975 l 5782 -975 l 5779 -975 l 5779 -981 l 5779 -983 l 5779 -983 l 5776 -983 l 5776 -981 m 5768 -972 l 5768 -969 l 5771 -969 l 5774 -969 l 5774 -967 l 5774 -967 l 5774 -967 l 5776 -967 l 5776 -961 l 5776 -958 l 5774 -958 l 5774 -958 l 5774 -961 l 5774 -961 l 5771 -961 l 5768 -961 l 5768 -964 l 5768 -967 l 5768 -967 l 5765 -967 l 5765 -969 l 5765 -972 l 5768 -972 l 5768 -972 m 5826 -972 l 5826 -969 l 5824 -969 l 5821 -969 l 5821 -972 l 5821 -972 l 5824 -972 l 5826 -972 l 5826 -972 m 5885 -967 l 5885 -967 l 5879 -967 l 5876 -967 l 5876 -967 l 5876 -969 l 5879 -969 l 5885 -969 l 5885 -967 m 5835 -964 l 5835 -961 l 5835 -961 l 5832 -961 l 5832 -964 l 5832 -967 l 5835 -967 l 5835 -967 l 5835 -964 m 5863 -964 l 5863 -961 l 5863 -961 l 5860 -961 l 5860 -964 l 5860 -967 l 5863 -967 l 5863 -967 l 5863 -964 m 5893 -961 l 5893 -956 l 5893 -956 l 5890 -956 l 5890 -961 l 5890 -967 l 5893 -967 l 5893 -967 l 5893 -961 m 5849 -956 l 5849 -956 l 5849 -956 l 5846 -956 l 5846 -956 l 5846 -958 l 5849 -958 l 5849 -958 l 5849 -956 m 5876 -947 l 5876 -944 l 5874 -944 l 5874 -944 l 5874 -947 l 5874 -947 l 5874 -947 l 5876 -947 l 5876 -947 m 5815 -939 l 5815 -939 l 5821 -939 l 5826 -939 l 5826 -939 l 5826 -942 l 5835 -942 l 5846 -942 l 5846 -939 l 5846 -939 l 5849 -939 l 5854 -939 l 5854 -939 l 5854 -942 l 5860 -942 l 5865 -942 l 5865 -939 l 5865 -939 l 5868 -939 l 5874 -939 l 5874 -933 l 5874 -931 l 5871 -931 l 5871 -933 l 5868 -933 l 5863 -933 l 5863 -933 l 5863 -931 l 5863 -931 l 5860 -931 l 5860 -933 l 5860 -933 l 5849 -933 l 5838 -933 l 5838 -933 l 5838 -931 l 5840 -931 l 5843 -931 l 5843 -931 l 5843 -928 l 5846 -928 l 5849 -928 l 5849 -931 l 5849 -931 l 5851 -931 l 5854 -931 l 5854 -928 l 5854 -922 l 5857 -922 l 5860 -922 l 5860 -922 l 5860 -922 l 5863 -922 l 5865 -922 l 5865 -919 l 5865 -917 l 5868 -917 l 5871 -917 l 5871 -919 l 5871 -922 l 5871 -922 l 5874 -922 l 5874 -925 l 5874 -928 l 5874 -928 l 5876 -928 l 5876 -925 l 5876 -922 l 5874 -922 l 5874 -922 l 5874 -919 l 5874 -917 l 5876 -917 l 5882 -917 l 5882 -919 l 5882 -922 l 5885 -922 l 5885 -922 l 5885 -922 l 5888 -922 l 5888 -919 l 5888 -917 l 5890 -917 l 5893 -917 l 5893 -917 l 5893 -914 l 5896 -914 l 5899 -914 l 5899 -911 l 5899 -911 l 5899 -911 l 5901 -911 l 5901 -906 l 5901 -903 l 5901 -903 l 5904 -903 l 5904 -906 l 5904 -911 l 5907 -911 l 5910 -911 l 5910 -908 l 5910 -906 l 5913 -906 l 5915 -906 l 5915 -906 l 5915 -903 l 5918 -903 l 5921 -903 l 5921 -900 l 5921 -897 l 5924 -897 l 5926 -897 l 5926 -900 l 5926 -903 l 5926 -903 l 5929 -903 l 5929 -900 l 5929 -897 l 5932 -897 l 5935 -897 l 5935 -894 l 5935 -894 l 5940 -894 l 5946 -894 l 5946 -892 l 5946 -889 l 5943 -889 l 5943 -889 l 5943 -886 l 5943 -886 l 5935 -886 l 5929 -886 l 5929 -883 l 5929 -883 l 5935 -883 l 5938 -883 l 5938 -881 l 5938 -878 l 5935 -878 l 5932 -878 l 5932 -878 l 5932 -875 l 5935 -875 l 5935 -875 l 5935 -875 l 5935 -872 l 5932 -872 l 5926 -872 l 5926 -864 l 5926 -858 l 5921 -858 l 5918 -858 l 5918 -856 l 5918 -856 l 5918 -856 l 5915 -856 l 5915 -853 l 5915 -850 l 5913 -850 l 5910 -850 l 5910 -844 l 5907 -844 l 5904 -844 l 5904 -847 l 5904 -847 l 5901 -847 l 5901 -847 l 5901 -844 l 5901 -842 l 5899 -842 l 5896 -842 l 5890 -842 l 5890 -833 l 5885 -833 l 5882 -833 l 5882 -831 l 5882 -831 l 5876 -831 l 5874 -831 l 5874 -828 l 5874 -828 l 5865 -828 l 5860 -828 l 5860 -822 l 5860 -819 l 5857 -819 l 5854 -819 l 5854 -822 l 5854 -822 l 5843 -822 l 5832 -822 l 5832 -822 l 5832 -819 l 5824 -819 l 5815 -819 l 5815 -822 l 5815 -828 l 5813 -828 l 5810 -828 l 5810 -825 l 5810 -822 l 5804 -822 l 5801 -822 l 5801 -825 l 5801 -828 l 5799 -828 l 5793 -828 l 5793 -828 l 5793 -831 l 5793 -831 l 5790 -831 l 5790 -828 l 5788 -828 l 5788 -828 l 5788 -831 l 5788 -833 l 5785 -833 l 5779 -833 l 5779 -836 l 5779 -839 l 5776 -839 l 5774 -839 l 5774 -839 l 5774 -842 l 5771 -842 l 5768 -842 l 5768 -842 l 5768 -844 l 5765 -844 l 5763 -844 l 5763 -847 l 5763 -850 l 5760 -850 l 5760 -850 l 5760 -856 l 5760 -858 l 5754 -858 l 5751 -858 l 5751 -864 l 5751 -867 l 5751 -867 l 5749 -867 l 5749 -869 l 5749 -872 l 5751 -872 l 5751 -872 l 5751 -878 l 5751 -883 l 5754 -883 l 5754 -883 l 5754 -883 l 5754 -886 l 5754 -886 l 5751 -886 l 5751 -886 l 5751 -889 l 5754 -889 l 5754 -889 l 5754 -894 l 5754 -900 l 5757 -900 l 5760 -900 l 5760 -906 l 5765 -906 l 5765 -908 l 5765 -911 l 5768 -911 l 5768 -911 l 5768 -911 l 5768 -914 l 5776 -914 l 5785 -914 l 5785 -917 l 5785 -917 l 5782 -917 l 5779 -917 l 5779 -919 l 5779 -922 l 5782 -922 l 5785 -922 l 5785 -922 l 5785 -922 l 5793 -922 l 5801 -922 l 5801 -925 l 5801 -928 l 5801 -928 l 5804 -928 l 5804 -931 l 5804 -933 l 5801 -933 l 5801 -933 l 5801 -931 l 5801 -928 l 5796 -928 l 5790 -928 l 5790 -931 l 5790 -931 l 5793 -931 l 5793 -931 l 5793 -933 l 5793 -933 l 5799 -933 l 5801 -933 l 5801 -936 l 5801 -939 l 5804 -939 l 5810 -939 l 5810 -939 l 5810 -942 l 5813 -942 l 5815 -942 l 5815 -939 m 5810 -933 l 5810 -931 l 5810 -931 l 5807 -931 l 5807 -925 l 5807 -922 l 5804 -922 l 5804 -922 l 5804 -919 l 5804 -917 l 5801 -917 l 5799 -917 l 5799 -917 l 5799 -914 l 5796 -914 l 5793 -914 l 5793 -911 l 5793 -911 l 5793 -911 l 5790 -911 l 5790 -908 l 5790 -906 l 5788 -906 l 5788 -906 l 5788 -903 l 5788 -900 l 5785 -900 l 5785 -900 l 5785 -897 l 5785 -894 l 5782 -894 l 5779 -894 l 5779 -889 l 5779 -883 l 5779 -883 l 5776 -883 l 5776 -881 l 5776 -878 l 5779 -878 l 5779 -878 l 5779 -869 l 5779 -861 l 5782 -861 l 5785 -861 l 5785 -858 l 5785 -856 l 5785 -856 l 5788 -856 l 5788 -853 l 5788 -847 l 5788 -847 l 5790 -847 l 5790 -847 l 5790 -844 l 5793 -844 l 5793 -844 l 5793 -842 l 5793 -839 l 5799 -839 l 5801 -839 l 5801 -836 l 5801 -833 l 5807 -833 l 5815 -833 l 5815 -831 l 5815 -831 l 5824 -831 l 5835 -831 l 5835 -831 l 5835 -833 l 5838 -833 l 5843 -833 l 5843 -836 l 5843 -839 l 5846 -839 l 5849 -839 l 5849 -839 l 5849 -842 l 5851 -842 l 5854 -842 l 5854 -842 l 5854 -844 l 5854 -844 l 5854 -844 l 5854 -847 l 5854 -847 l 5857 -847 l 5860 -847 l 5860 -853 l 5860 -856 l 5854 -856 l 5846 -856 l 5843 -856 l 5843 -861 l 5843 -861 l 5840 -861 l 5838 -861 l 5838 -867 l 5838 -872 l 5840 -872 l 5843 -872 l 5843 -875 l 5843 -875 l 5849 -875 l 5854 -875 l 5854 -875 l 5854 -872 l 5857 -872 l 5860 -872 l 5860 -869 l 5860 -867 l 5863 -867 l 5863 -867 l 5863 -864 l 5863 -861 l 5865 -861 l 5865 -861 l 5865 -864 l 5865 -867 l 5868 -867 l 5871 -867 l 5871 -878 l 5871 -886 l 5868 -886 l 5865 -886 l 5865 -892 l 5865 -897 l 5865 -897 l 5863 -897 l 5863 -900 l 5863 -903 l 5863 -903 l 5860 -903 l 5860 -906 l 5860 -911 l 5857 -911 l 5854 -911 l 5854 -917 l 5849 -917 l 5849 -919 l 5849 -922 l 5843 -922 l 5835 -922 l 5835 -925 l 5835 -928 l 5835 -928 l 5832 -928 l 5832 -925 l 5832 -922 l 5824 -922 l 5815 -922 l 5815 -925 l 5815 -928 l 5813 -928 l 5810 -928 l 5810 -931 l 5810 -931 l 5813 -931 l 5815 -931 l 5815 -931 l 5815 -928 l 5818 -928 l 5821 -928 l 5821 -931 l 5821 -931 l 5818 -931 l 5818 -931 l 5818 -933 l 5818 -933 l 5815 -933 l 5810 -933 l 5810 -933 m 5829 -933 l 5829 -931 l 5829 -931 l 5832 -931 l 5832 -933 l 5832 -933 l 5829 -933 l 5829 -933 l 5829 -933 m 5885 -936 l 5885 -933 l 5879 -933 l 5876 -933 l 5876 -936 l 5876 -939 l 5879 -939 l 5885 -939 l 5885 -936 m 5888 -931 l 5888 -928 l 5885 -928 l 5885 -928 l 5885 -931 l 5885 -931 l 5885 -931 l 5888 -931 l 5888 -931 m 5946 -931 l 5946 -928 l 5943 -928 l 5943 -928 l 5943 -931 l 5943 -931 l 5943 -931 l 5946 -931 l 5946 -931 m 5910 -925 l 5910 -922 l 5913 -922 l 5915 -922 l 5915 -922 l 5915 -922 l 5910 -922 l 5910 -928 l 5910 -928 l 5910 -928 l 5910 -925 m 5929 -922 l 5929 -922 l 5926 -922 l 5921 -922 l 5921 -922 l 5921 -922 l 5926 -922 l 5929 -922 l 5929 -922 m 5976 -922 l 5976 -922 l 5974 -922 l 5971 -922 l 5971 -922 l 5971 -922 l 5974 -922 l 5976 -922 l 5976 -922 m 5965 -914 l 5960 -914 l 5960 -917 l 5960 -922 l 5963 -922 l 5965 -922 l 5965 -914 m 5935 -917 l 5935 -914 l 5932 -914 l 5929 -914 l 5929 -917 l 5929 -917 l 5932 -917 l 5935 -917 l 5935 -917 m 5946 -914 l 5946 -911 l 5943 -911 l 5943 -911 l 5943 -908 l 5943 -906 l 5946 -906 l 5949 -906 l 5949 -911 l 5949 -914 l 5951 -914 l 5954 -914 l 5954 -911 l 5954 -906 l 5951 -906 l 5949 -906 l 5949 -903 l 5949 -900 l 5951 -900 l 5954 -900 l 5954 -897 l 5954 -897 l 5949 -897 l 5943 -897 l 5943 -897 l 5943 -900 l 5943 -900 l 5946 -900 l 5946 -903 l 5946 -903 l 5943 -903 l 5943 -903 l 5943 -906 l 5943 -906 l 5940 -906 l 5938 -906 l 5938 -906 l 5938 -903 l 5935 -903 l 5932 -903 l 5932 -906 l 5932 -906 l 5935 -906 l 5938 -906 l 5938 -911 l 5938 -917 l 5943 -917 l 5946 -917 l 5946 -914 m 5918 -908 l 5918 -906 l 5918 -906 l 5915 -906 l 5915 -908 l 5915 -911 l 5918 -911 l 5918 -911 l 5918 -908 m 5963 -906 l 5963 -903 l 5963 -903 l 5960 -903 l 5960 -906 l 5960 -911 l 5963 -911 l 5963 -911 l 5963 -906 m 5985 -903 l 5985 -900 l 5982 -900 l 5976 -900 l 5976 -903 l 5976 -903 l 5982 -903 l 5985 -903 l 5985 -903 m 5749 -892 l 5749 -889 l 5749 -889 l 5746 -889 l 5746 -892 l 5746 -894 l 5749 -894 l 5749 -894 l 5749 -892 m 6013 -886 l 6013 -883 l 6010 -883 l 6010 -883 l 6010 -886 l 6010 -889 l 6010 -889 l 6013 -889 l 6013 -886 m 5982 -878 l 5982 -875 l 5976 -875 l 5974 -875 l 5974 -878 l 5974 -878 l 5976 -878 l 5982 -878 l 5982 -878 m 5954 -869 l 5954 -867 l 5951 -867 l 5949 -867 l 5949 -869 l 5949 -872 l 5951 -872 l 5954 -872 l 5954 -869 m 5974 -867 l 5974 -867 l 5971 -867 l 5971 -867 l 5971 -867 l 5971 -867 l 5971 -867 l 5974 -867 l 5974 -867 m 5988 -861 l 5988 -858 l 5982 -858 l 5976 -858 l 5976 -861 l 5976 -861 l 5982 -861 l 5988 -861 l 5988 -861 m 5963 -856 l 5963 -856 l 5963 -856 l 5960 -856 l 5960 -856 l 5960 -858 l 5963 -858 l 5963 -858 l 5963 -856 m 5929 -853 l 5929 -850 l 5932 -850 l 5932 -850 l 5932 -853 l 5932 -856 l 5935 -856 l 5938 -856 l 5938 -850 l 5932 -850 l 5932 -847 l 5932 -844 l 5932 -844 l 5929 -844 l 5929 -847 l 5929 -847 l 5926 -847 l 5926 -847 l 5926 -853 l 5926 -856 l 5926 -856 l 5929 -856 l 5929 -853 m 5971 -853 l 5971 -850 l 5971 -850 l 5974 -850 l 5974 -844 l 5974 -842 l 5971 -842 l 5971 -842 l 5971 -842 l 5971 -844 l 5968 -844 l 5965 -844 l 5965 -850 l 5965 -856 l 5968 -856 l 5971 -856 l 5971 -853 m 5921 -847 l 5921 -844 l 5924 -844 l 5926 -844 l 5926 -842 l 5926 -842 l 5921 -842 l 5921 -833 l 5918 -833 l 5915 -833 l 5915 -831 l 5915 -831 l 5913 -831 l 5910 -831 l 5910 -831 l 5910 -833 l 5910 -833 l 5910 -833 l 5910 -831 l 5910 -831 l 5904 -831 l 5899 -831 l 5899 -831 l 5899 -833 l 5901 -833 l 5904 -833 l 5904 -836 l 5904 -839 l 5907 -839 l 5910 -839 l 5910 -839 l 5910 -842 l 5913 -842 l 5915 -842 l 5915 -844 l 5915 -847 l 5918 -847 l 5921 -847 l 5921 -847 m 5957 -847 l 5957 -844 l 5954 -844 l 5954 -844 l 5954 -847 l 5954 -847 l 5954 -847 l 5957 -847 l 5957 -847 m 5982 -847 l 5982 -844 l 5979 -844 l 5976 -844 l 5976 -847 l 5976 -847 l 5979 -847 l 5982 -847 l 5982 -847 m 5946 -836 l 5946 -833 l 5943 -833 l 5943 -833 l 5943 -836 l 5943 -839 l 5943 -839 l 5946 -839 l 5946 -836 m 5938 -831 l 5938 -831 l 5938 -831 l 5935 -831 l 5935 -831 l 5935 -833 l 5938 -833 l 5938 -833 l 5938 -831 m 5890 -825 l 5890 -822 l 5893 -822 l 5899 -822 l 5899 -825 l 5899 -828 l 5899 -828 l 5901 -828 l 5901 -825 l 5901 -822 l 5899 -822 l 5899 -822 l 5899 -822 l 5899 -819 l 5893 -819 l 5890 -819 l 5890 -817 l 5890 -817 l 5888 -817 l 5885 -817 l 5885 -814 l 5885 -814 l 5879 -814 l 5876 -814 l 5876 -811 l 5876 -811 l 5874 -811 l 5874 -811 l 5874 -811 l 5874 -814 l 5868 -814 l 5863 -814 l 5863 -811 l 5863 -811 l 5863 -811 l 5860 -811 l 5860 -814 l 5860 -817 l 5865 -817 l 5871 -817 l 5871 -817 l 5871 -819 l 5874 -819 l 5876 -819 l 5876 -822 l 5876 -822 l 5879 -822 l 5882 -822 l 5882 -822 l 5882 -819 l 5882 -819 l 5885 -819 l 5885 -822 l 5885 -822 l 5885 -822 l 5888 -822 l 5888 -825 l 5888 -828 l 5890 -828 l 5890 -828 l 5890 -825 m 5921 -822 l 5921 -819 l 5921 -819 l 5918 -819 l 5918 -822 l 5918 -828 l 5921 -828 l 5921 -828 l 5921 -822 m 5938 -825 l 5938 -822 l 5938 -822 l 5935 -822 l 5935 -825 l 5935 -828 l 5938 -828 l 5938 -828 l 5938 -825 m 5799 -817 l 5799 -814 l 5796 -814 l 5793 -814 l 5793 -817 l 5793 -819 l 5796 -819 l 5799 -819 l 5799 -817 m 5790 -814 l 5790 -814 l 5788 -814 l 5788 -814 l 5788 -814 l 5788 -817 l 5788 -817 l 5790 -817 l 5790 -814 m 5807 -814 l 5807 -814 l 5807 -811 l 5807 -808 l 5807 -806 l 5804 -806 l 5804 -806 l 5804 -808 l 5804 -811 l 5801 -811 l 5801 -811 l 5801 -811 l 5801 -814 l 5801 -814 l 5804 -814 l 5804 -814 l 5804 -817 l 5804 -817 l 5807 -817 l 5807 -814 m 5826 -811 l 5826 -806 l 5821 -806 l 5818 -806 l 5818 -808 l 5818 -811 l 5815 -811 l 5810 -811 l 5810 -814 l 5810 -817 l 5818 -817 l 5826 -817 l 5826 -811 m 5838 -814 l 5838 -814 l 5838 -814 l 5835 -814 l 5835 -814 l 5835 -817 l 5838 -817 l 5838 -817 l 5838 -814 m 5854 -817 l 5854 -811 l 5851 -811 l 5849 -811 l 5843 -811 l 5843 -814 l 5846 -814 l 5846 -814 l 5846 -817 l 5851 -817 l 5854 -817 l 5854 -817 m 5910 -814 l 5910 -814 l 5907 -814 l 5904 -814 l 5904 -814 l 5904 -817 l 5907 -817 l 5910 -817 l 5910 -814 m 5846 -806 l 5846 -803 l 5843 -803 l 5843 -803 l 5843 -806 l 5843 -806 l 5843 -806 l 5846 -806 l 5846 -806 m 5838 -800 l 5838 -800 l 5838 -800 l 5835 -800 l 5835 -797 l 5835 -794 l 5838 -794 l 5838 -794 l 5838 -794 l 5838 -792 l 5835 -792 l 5832 -792 l 5832 -794 l 5832 -794 l 5829 -794 l 5829 -794 l 5829 -797 l 5829 -800 l 5832 -800 l 5835 -800 l 5835 -800 l 5835 -803 l 5838 -803 l 5838 -803 l 5838 -800 m 5779 -797 l 5779 -794 l 5779 -794 l 5776 -794 l 5776 -797 l 5776 -800 l 5779 -800 l 5779 -800 l 5779 -797 m 5846 -797 l 5846 -794 l 5843 -794 l 5843 -794 l 5843 -797 l 5843 -800 l 5843 -800 l 5846 -800 l 5846 -797 m 5746 -794 l 5746 -792 l 5743 -792 l 5740 -792 l 5740 -789 l 5740 -789 l 5738 -789 l 5738 -792 l 5740 -792 l 5740 -792 l 5740 -794 l 5740 -794 l 5743 -794 l 5746 -794 l 5746 -794 m 5763 -794 l 5763 -792 l 5760 -792 l 5760 -792 l 5760 -794 l 5760 -794 l 5760 -794 l 5763 -794 l 5763 -794 m 5818 -794 l 5818 -792 l 5815 -792 l 5815 -792 l 5815 -794 l 5815 -794 l 5815 -794 l 5818 -794 l 5818 -794 m 5754 -792 l 5754 -789 l 5760 -789 l 5763 -789 l 5763 -786 l 5763 -786 l 5760 -786 l 5760 -786 l 5760 -783 l 5760 -781 l 5765 -781 l 5774 -781 l 5774 -783 l 5774 -786 l 5768 -786 l 5765 -786 l 5765 -786 l 5765 -789 l 5771 -789 l 5776 -789 l 5776 -786 l 5776 -786 l 5779 -786 l 5779 -786 l 5779 -783 l 5779 -781 l 5776 -781 l 5774 -781 l 5774 -781 l 5774 -778 l 5771 -778 l 5768 -778 l 5768 -778 l 5768 -775 l 5768 -775 l 5765 -775 l 5765 -778 l 5765 -778 l 5760 -778 l 5754 -778 l 5754 -781 l 5754 -781 l 5749 -781 l 5740 -781 l 5740 -783 l 5740 -786 l 5743 -786 l 5746 -786 l 5746 -786 l 5746 -789 l 5749 -789 l 5749 -789 l 5749 -786 l 5749 -786 l 5751 -786 l 5751 -786 l 5751 -789 l 5751 -792 l 5754 -792 l 5754 -792 l 5754 -792 m 5785 -786 l 5785 -786 l 5782 -786 l 5779 -786 l 5779 -786 l 5779 -789 l 5782 -789 l 5785 -789 l 5785 -786 m 5793 -783 l 5793 -781 l 5790 -781 l 5788 -781 l 5788 -783 l 5788 -786 l 5790 -786 l 5793 -786 l 5793 -783 m 5804 -783 l 5804 -781 l 5801 -781 l 5801 -781 l 5801 -778 l 5799 -778 l 5799 -781 l 5799 -786 l 5801 -786 l 5804 -786 l 5804 -783 m 5732 -778 l 5732 -775 l 5729 -775 l 5729 -775 l 5729 -778 l 5729 -778 l 5729 -778 l 5732 -778 l 5732 -778 m 5751 -772 l 5751 -767 l 5751 -767 l 5749 -767 l 5749 -769 l 5749 -772 l 5749 -772 l 5746 -772 l 5746 -772 l 5746 -775 l 5749 -775 l 5751 -775 l 5751 -772 m 5760 -772 l 5760 -772 l 5757 -772 l 5754 -772 l 5754 -772 l 5754 -775 l 5757 -775 l 5760 -775 l 5760 -772 m 5774 -761 l 5774 -758 l 5771 -758 l 5768 -758 l 5768 -761 l 5768 -761 l 5771 -761 l 5774 -761 l 5774 -761 m 5871 -981 l 5871 -981 l 5874 -981 l 5876 -981 l 5876 -981 l 5876 -983 l 5874 -983 l 5871 -983 l 5871 -981 m 5885 -981 l 5885 -981 l 5885 -981 l 5888 -981 l 5888 -981 l 5888 -983 l 5885 -983 l 5885 -983 l 5885 -981 m 5790 -978 l 5790 -975 l 5793 -975 l 5793 -975 l 5793 -978 l 5793 -981 l 5793 -981 l 5790 -981 l 5790 -978 m 5849 -967 l 5849 -967 l 5851 -967 l 5854 -967 l 5854 -967 l 5854 -969 l 5851 -969 l 5849 -969 l 5849 -967 m 5926 -956 l 5926 -953 l 5935 -953 l 5935 -953 l 5935 -953 l 5935 -956 l 5935 -956 l 5932 -956 l 5932 -956 l 5932 -958 l 5929 -958 l 5926 -958 l 5926 -956 m 5943 -947 l 5943 -944 l 5943 -944 l 5946 -944 l 5946 -947 l 5946 -947 l 5943 -947 l 5943 -947 l 5943 -947 m 5963 -931 l 5963 -931 l 5960 -931 l 5960 -931 l 5960 -928 l 5963 -928 l 5963 -928 l 5963 -931 l 5963 -931 m 5640 -922 l 5640 -922 l 5643 -922 l 5646 -922 l 5646 -922 l 5646 -922 l 5643 -922 l 5640 -922 l 5640 -922 m 6015 -903 l 6015 -900 l 6018 -900 l 6018 -900 l 6018 -903 l 6018 -903 l 6018 -903 l 6015 -903 l 6015 -903 m 6010 -897 l 6010 -897 l 6010 -897 l 6013 -897 l 6013 -897 l 6013 -900 l 6010 -900 l 6010 -900 l 6010 -897 m 6029 -892 l 6029 -889 l 6032 -889 l 6032 -889 l 6032 -892 l 6032 -894 l 6032 -894 l 6029 -894 l 6029 -892 m 6004 -867 l 6004 -867 l 6007 -867 l 6010 -867 l 6010 -864 l 6010 -861 l 6010 -861 l 6013 -861 l 6013 -864 l 6013 -867 l 6010 -867 l 6010 -867 l 6010 -867 l 6010 -867 l 6007 -867 l 6004 -867 l 6004 -867 m 6004 -856 l 6004 -856 l 6007 -856 l 6010 -856 l 6010 -856 l 6010 -858 l 6007 -858 l 6004 -858 l 6004 -856 m 5960 -825 l 5960 -822 l 5963 -822 l 5963 -822 l 5963 -825 l 5963 -828 l 5963 -828 l 5960 -828 l 5960 -825 m 5921 -806 l 5921 -803 l 5924 -803 l 5926 -803 l 5926 -806 l 5926 -806 l 5924 -806 l 5921 -806 l 5921 -806 m 5785 -753 l 5785 -750 l 5782 -750 l 5779 -750 l 5779 -750 l 5779 -747 l 5785 -747 l 5788 -747 l 5788 -744 l 5788 -744 l 5793 -744 l 5799 -744 l 5799 -744 l 5799 -747 l 5799 -747 l 5801 -747 l 5801 -744 l 5801 -744 l 5801 -744 l 5804 -744 l 5804 -744 l 5804 -747 l 5801 -747 l 5801 -747 l 5801 -750 l 5801 -750 l 5799 -750 l 5799 -750 l 5799 -750 l 5799 -747 l 5793 -747 l 5790 -747 l 5790 -750 l 5790 -753 l 5788 -753 l 5785 -753 l 5785 -753 m 5810 -753 l 5810 -750 l 5813 -750 l 5815 -750 l 5815 -753 l 5815 -753 l 5813 -753 l 5810 -753 l 5810 -753 m 3006 1881 q 3003 1867 3003 1875 q 3025 1842 3019 1853 l 3031 1839 q 3036 1842 3036 1839 l 3036 1847 l 3036 1853 l 3031 1858 l 3006 1878 l 3006 1881 m 3019 1894 l 3014 1889 q 3033 1872 3022 1881 q 3047 1850 3044 1861 q 3050 1844 3050 1847 q 3056 1842 3053 1842 l 3058 1844 l 3058 1847 q 3056 1858 3058 1853 l 3053 1861 l 3019 1894 m 3122 2000 q 3114 2011 3122 2011 q 3106 1997 3106 2011 l 3103 1975 l 3103 1958 l 3094 1919 q 3089 1911 3094 1914 l 3078 1908 l 3072 1911 q 3064 1933 3072 1914 l 3058 1942 q 3033 1994 3050 1964 q 3025 2008 3031 2003 l 3019 2008 l 3014 2008 q 3011 2003 3011 2006 q 3019 1986 3011 1997 q 3025 1969 3022 1981 l 3044 1919 l 3072 1897 q 3111 1864 3092 1883 l 3111 1861 q 3106 1856 3111 1858 q 3097 1861 3100 1856 q 3094 1864 3094 1861 q 3061 1892 3086 1872 l 3053 1897 q 3042 1906 3050 1900 q 3031 1908 3036 1908 l 3028 1908 q 3025 1903 3028 1906 q 3039 1892 3028 1900 q 3047 1881 3047 1886 l 3058 1869 q 3069 1850 3069 1858 q 3067 1828 3069 1842 q 3061 1814 3064 1819 q 3072 1789 3061 1803 q 3083 1781 3078 1783 q 3094 1769 3094 1772 q 3097 1767 3097 1769 q 3092 1761 3097 1764 q 3056 1794 3067 1772 q 3053 1800 3056 1797 q 3050 1808 3050 1803 l 3053 1825 q 3051 1829 3053 1828 l 3047 1833 q 3033 1828 3042 1828 l 3028 1828 q 3019 1831 3022 1831 q 3006 1844 3008 1844 q 3008 1822 3008 1836 q 3014 1806 3011 1811 l 3031 1764 l 3031 1758 l 3031 1728 l 3119 1728 l 3119 1764 q 3121 1786 3119 1775 q 3122 1808 3122 1797 l 3122 1811 l 3122 1825 l 3122 1847 l 3122 1881 q 3119 1897 3119 1889 l 3119 1900 l 3122 1967 l 3122 1981 l 3122 2000 m 2989 1867 q 2997 1889 2989 1878 q 3006 1894 3003 1889 l 3017 1914 q 3028 1925 3019 1919 l 3031 1925 q 3017 1958 3025 1933 q 3006 1986 3011 1978 q 3000 2006 3000 1997 q 3003 2017 3000 2011 q 3017 2022 3008 2022 l 3022 2022 q 3036 2014 3033 2019 q 3067 1953 3053 1992 l 3075 1933 q 3081 1922 3078 1925 q 3086 1939 3083 1925 q 3089 1953 3086 1947 q 3092 1983 3089 1956 l 3092 1997 l 3092 2000 l 3092 2003 q 3100 2017 3092 2011 q 3114 2025 3106 2025 q 3131 2011 3125 2025 q 3133 2003 3133 2006 q 3136 1961 3136 1978 l 3136 1953 l 3133 1892 l 3133 1889 l 3133 1881 l 3133 1875 q 3136 1850 3136 1867 q 3133 1833 3136 1842 l 3136 1808 q 3131 1775 3136 1803 l 3131 1742 l 3131 1714 l 3019 1714 l 3019 1753 l 3019 1761 q 3008 1786 3017 1772 q 3000 1814 3000 1806 q 2994 1847 3000 1828 q 2989 1867 2989 1858 m 106 0 l 106 1026 l 265 1026 l 639 153 l 1011 1026 l 1171 1026 l 1171 0 l 1068 0 l 1068 914 l 682 0 l 593 0 l 503 214 q 444 172 475 189 q 342 146 397 146 l 336 146 l 333 146 q 231 172 278 146 q 208 186 219 179 l 208 0 l 106 0 m 346 226 q 344 228 346 226 q 338 229 342 229 q 331 226 333 229 q 328 218 328 224 q 331 210 328 213 q 336 207 333 207 q 346 210 342 207 q 350 218 350 213 q 346 226 350 224 m 314 240 q 318 244 314 240 q 336 249 322 249 q 360 240 350 249 q 369 218 369 232 q 360 196 369 204 q 336 188 350 188 q 315 196 325 188 q 306 218 306 204 q 314 240 306 232 m 389 263 q 406 218 406 243 q 389 174 406 193 q 478 221 433 185 q 389 263 433 251 m 336 268 q 303 253 317 268 q 289 218 289 238 q 303 185 289 199 q 336 171 317 171 q 372 185 358 171 q 386 218 386 199 q 372 253 386 238 q 336 268 358 268 m 336 335 l 339 335 q 467 300 407 335 l 208 914 l 208 300 q 336 335 268 335 m 208 213 q 286 174 247 183 q 269 218 269 193 q 286 263 269 243 q 208 228 247 253 l 208 213 m 481 265 q 339 315 413 315 l 336 315 q 208 275 272 315 l 208 250 q 256 274 232 263 q 336 290 292 290 l 339 290 q 421 274 383 290 q 494 232 458 257 l 496 232 l 481 265 z "},"N":{"ha":1028,"x_min":106,"x_max":922,"o":"m 106 0 l 106 1026 l 244 1026 l 819 175 l 819 1026 l 922 1026 l 922 0 l 819 0 l 208 903 l 208 0 l 106 0 z "},"O":{"ha":1207,"x_min":61,"x_max":1146,"o":"m 604 1044 q 987 888 828 1044 q 1146 513 1146 732 q 986 138 1146 294 q 604 -18 826 -18 q 219 139 378 -18 q 61 519 61 296 q 222 889 61 733 q 604 1044 383 1044 m 604 950 q 296 822 426 950 q 165 517 165 693 q 294 206 165 335 q 604 76 422 76 q 913 205 783 76 q 1042 511 1042 333 q 913 821 1042 692 q 604 950 783 950 z "},"P":{"ha":822,"x_min":106,"x_max":785,"o":"m 106 0 l 106 1026 l 389 1026 q 663 972 574 1026 q 785 715 785 900 q 682 479 785 554 q 406 415 594 415 l 208 415 l 208 0 l 106 0 m 208 508 l 399 508 q 596 543 536 508 q 681 715 681 590 q 588 903 681 856 q 354 933 526 933 l 208 933 l 208 508 z "},"Q":{"ha":1210,"x_min":61,"x_max":1165,"o":"m 1149 78 l 1149 -18 q 1026 3 1076 -17 q 924 71 976 22 q 615 -18 793 -18 q 223 137 385 -18 q 61 513 61 292 q 220 892 61 740 q 617 1044 379 1044 q 1009 894 853 1044 q 1165 515 1165 743 q 994 129 1165 275 q 1128 76 1068 76 q 1149 78 1140 76 m 224 300 q 343 167 264 226 q 615 76 461 76 q 840 139 739 76 q 622 285 729 240 q 385 329 515 329 q 224 300 297 329 m 181 388 q 400 424 289 424 q 790 301 618 424 q 921 197 865 246 q 1061 515 1061 332 q 933 825 1061 700 q 614 950 804 950 q 294 822 424 950 q 165 504 165 693 q 181 388 165 456 z "},"R":{"ha":843,"x_min":106,"x_max":801,"o":"m 499 383 l 786 0 l 658 0 l 313 465 q 542 483 471 465 q 697 700 697 525 q 589 896 697 844 q 353 933 510 933 l 208 933 l 208 0 l 106 0 l 106 1026 l 360 1026 q 647 976 556 1026 q 801 696 801 893 q 724 479 801 560 q 499 383 646 399 z "},"S":{"ha":692,"x_min":31,"x_max":2713,"o":"m 506 242 q 486 164 506 183 q 408 144 467 144 l 278 144 q 203 164 222 144 q 183 242 183 183 l 183 267 q 200 342 183 322 q 264 361 217 361 l 264 386 l 339 461 l 425 461 l 425 361 q 489 342 472 361 q 506 267 506 322 l 506 242 m 336 389 l 336 436 l 289 389 l 336 389 m 408 236 l 408 444 l 353 444 l 353 372 l 281 372 l 281 236 l 408 236 m 489 242 l 489 267 q 476 331 489 317 q 425 344 464 344 l 425 219 l 264 219 l 264 344 q 213 331 225 344 q 200 267 200 317 l 200 242 q 214 175 200 189 q 278 161 228 161 l 408 161 q 474 176 458 161 q 489 242 489 192 m 2713 1246 q 2693 1168 2713 1188 q 2615 1149 2674 1149 l 2488 1149 q 2410 1168 2429 1149 q 2390 1246 2390 1188 l 2390 1271 q 2407 1346 2390 1326 q 2471 1365 2424 1365 l 2471 1390 l 2546 1465 l 2632 1465 l 2632 1365 q 2696 1346 2679 1365 q 2713 1271 2713 1326 l 2713 1246 m 2543 1393 l 2543 1440 l 2496 1393 l 2543 1393 m 2615 1240 l 2615 1449 l 2560 1449 l 2560 1376 l 2488 1376 l 2488 1240 l 2615 1240 m 2696 1246 l 2696 1271 q 2683 1335 2696 1321 q 2632 1349 2671 1349 l 2632 1224 l 2471 1224 l 2471 1349 q 2419 1335 2432 1349 q 2407 1271 2407 1321 l 2407 1246 q 2422 1179 2407 1193 q 2488 1165 2438 1165 l 2615 1165 q 2681 1181 2665 1165 q 2696 1246 2696 1196 m 31 288 l 140 288 q 189 153 150 201 q 354 76 250 76 q 499 134 442 76 q 557 281 557 192 q 486 428 557 378 q 328 496 439 461 q 203 540 239 522 q 136 586 167 557 q 64 768 64 654 q 144 966 64 888 q 349 1044 225 1044 q 554 968 475 1044 q 636 767 633 892 l 529 767 q 474 900 524 850 q 346 950 424 950 q 219 899 269 950 q 168 771 168 849 q 217 651 168 696 q 368 588 250 622 q 558 506 501 547 q 661 286 661 429 q 573 69 661 156 q 351 -18 485 -18 q 125 65 213 -18 q 31 288 38 149 z "},"T":{"ha":592,"x_min":10,"x_max":2665,"o":"m 1093 -364 l 1065 -364 l 935 -56 l 965 -56 l 1093 -364 m 2214 556 l 2186 556 l 2056 864 l 2086 864 l 2214 556 m 2664 347 l 2636 347 l 2506 656 l 2536 656 l 2664 347 m 547 389 l 519 389 l 389 697 l 419 697 l 547 389 m 589 689 l 558 689 l 458 933 l 347 933 l 347 542 l 372 481 l 347 481 l 347 0 l 244 0 l 244 718 l 214 789 l 242 789 l 244 785 l 244 933 l 10 933 l 10 1026 l 582 1026 l 582 933 l 486 933 l 589 689 z "},"U":{"ha":910,"x_min":106,"x_max":804,"o":"m 106 1026 l 208 1026 l 208 386 q 256 174 208 246 q 338 103 285 129 q 456 76 392 76 q 572 103 518 76 q 654 174 625 129 q 701 386 701 246 l 701 1026 l 804 1026 l 804 386 q 732 108 804 204 q 613 15 686 49 q 454 -18 539 -18 q 297 15 369 -18 q 178 108 224 49 q 106 386 106 204 l 106 1026 z "},"V":{"ha":975,"x_min":14,"x_max":961,"o":"m 436 0 l 14 1026 l 126 1026 l 488 128 l 850 1026 l 961 1026 l 536 0 l 436 0 z "},"W":{"ha":1333,"x_min":14,"x_max":1319,"o":"m 307 0 l 14 1026 l 119 1026 l 372 133 l 618 1026 l 715 1026 l 961 133 l 1214 1026 l 1319 1026 l 1025 0 l 893 0 l 665 842 l 440 0 l 307 0 z "},"X":{"ha":846,"x_min":11,"x_max":835,"o":"m 11 0 l 360 525 l 31 1026 l 151 1026 l 424 615 l 694 1026 l 814 1026 l 485 525 l 835 0 l 714 0 l 424 439 l 132 0 l 11 0 z "},"Y":{"ha":822,"x_min":3,"x_max":819,"o":"m 358 0 l 358 343 l 3 1026 l 117 1026 l 408 451 l 707 1026 l 819 1026 l 461 343 l 461 0 l 358 0 z "},"Z":{"ha":667,"x_min":24,"x_max":658,"o":"m 24 0 l 24 93 l 528 933 l 39 933 l 39 1026 l 643 1026 l 643 933 l 140 93 l 658 93 l 658 0 l 24 0 z "},"[":{"ha":488,"x_min":156,"x_max":435,"o":"m 435 -69 l 435 -174 q 247 -60 325 -142 q 177 61 199 -6 q 156 228 156 128 l 156 642 q 257 922 156 817 q 435 1026 332 999 l 435 922 q 293 812 333 878 q 253 622 253 746 l 253 246 q 292 44 253 113 q 435 -69 332 -24 z "},"\\":{"ha":840,"x_min":117,"x_max":824,"o":"m 653 1463 q 532 1506 578 1463 q 486 1613 486 1549 q 533 1721 486 1679 q 656 1763 581 1763 q 775 1719 728 1763 q 822 1613 822 1676 q 775 1506 822 1549 q 653 1463 728 1463 m 769 1613 q 763 1661 769 1640 q 743 1696 756 1682 q 717 1721 731 1710 q 686 1738 703 1732 q 658 1746 669 1743 q 639 1749 647 1749 q 536 1704 575 1749 q 500 1615 500 1665 q 540 1518 500 1557 q 636 1479 581 1479 q 731 1518 692 1479 q 769 1613 769 1557 m 644 0 l 547 0 l 117 1026 l 214 1026 l 644 0 z "},"]":{"ha":488,"x_min":53,"x_max":332,"o":"m 53 922 l 53 1026 q 240 913 165 994 q 310 792 289 858 q 332 625 332 725 l 332 213 q 231 -69 332 36 q 53 -174 156 -146 l 53 -69 q 195 42 156 -24 q 235 231 235 108 l 235 608 q 195 808 235 740 q 53 922 156 876 z "},"^":{"ha":842,"x_min":25,"x_max":817,"o":"m 817 250 l 704 250 l 422 917 l 138 250 l 25 250 l 363 1026 l 481 1026 l 817 250 z "},"_":{"ha":694,"x_min":0,"x_max":694,"o":"m 0 -93 l 694 -93 l 694 -174 l 0 -174 l 0 -93 z "},"`":{"ha":525,"x_min":103,"x_max":422,"o":"m 147 1078 l 422 925 l 376 847 l 103 997 l 147 1078 z "},"a":{"ha":949,"x_min":58,"x_max":2168,"o":"m 1293 -53 l 976 -53 l 976 0 l 1293 0 l 1293 -53 m 2167 992 l 1850 992 l 1850 1044 l 2167 1044 l 2167 992 m 1596 1492 l 1279 1492 l 1279 1544 l 1596 1544 l 1596 1492 m 2000 1372 l 2000 1169 l 1869 1342 q 1854 1374 1858 1358 q 1850 1403 1850 1389 q 1856 1429 1850 1417 q 1871 1451 1861 1442 q 1893 1465 1881 1461 q 1919 1469 1906 1469 q 1953 1465 1939 1469 q 1974 1451 1967 1461 l 1988 1432 q 1996 1411 1994 1422 q 1999 1392 1997 1400 q 2000 1378 2000 1383 l 2000 1372 m 2017 1372 l 2017 1378 q 2018 1392 2017 1383 q 2022 1411 2019 1400 q 2031 1432 2025 1422 q 2044 1451 2036 1442 q 2067 1465 2053 1461 q 2097 1469 2081 1469 q 2124 1465 2111 1469 q 2146 1451 2136 1461 q 2161 1429 2156 1442 q 2168 1403 2167 1417 q 2164 1374 2169 1389 q 2147 1342 2158 1358 l 2017 1169 l 2017 1372 m 461 683 q 250 596 338 683 q 163 385 163 508 q 250 165 163 254 q 467 76 338 76 q 674 165 589 76 q 710 211 694 186 l 540 211 l 540 264 l 736 264 q 758 383 758 318 q 672 597 758 510 q 461 683 586 683 m 861 760 l 861 0 l 758 0 l 758 133 q 630 17 697 51 q 465 -18 563 -18 q 174 95 290 -18 q 58 378 58 208 q 173 663 58 549 q 458 778 288 778 q 758 625 650 778 l 758 760 l 861 760 z "},"b":{"ha":947,"x_min":88,"x_max":889,"o":"m 88 0 l 88 1026 l 190 1026 l 190 629 q 489 778 292 778 q 774 663 658 778 q 889 381 889 549 q 774 96 889 210 q 488 -18 660 -18 q 316 21 394 -18 q 190 131 238 60 l 190 0 l 88 0 m 699 597 q 657 640 699 597 q 486 683 614 683 q 271 597 358 683 q 183 383 183 510 q 271 167 183 256 q 485 76 360 76 q 699 165 613 76 q 785 383 785 253 q 699 597 785 511 z "},"c":{"ha":899,"x_min":58,"x_max":4143,"o":"m 4089 1261 l 4064 1261 l 4064 1236 l 4011 1236 l 4011 1261 l 4064 1261 l 4064 1289 l 4089 1289 l 4089 1261 m 4011 1314 l 3986 1314 l 3986 1339 l 4011 1339 l 4011 1314 m 4089 1314 l 4064 1314 l 4064 1339 l 4089 1339 l 4089 1314 m 3986 1208 l 4089 1208 l 4089 1183 l 3986 1183 l 3986 1208 m 3986 1208 l 3958 1208 l 3958 1236 l 3986 1236 l 3986 1208 m 4089 1208 l 4089 1236 l 4117 1236 l 4117 1208 l 4089 1208 m 3958 1236 l 3933 1236 l 3933 1261 l 3933 1289 l 3933 1314 l 3933 1339 l 3933 1367 l 3958 1367 l 3958 1339 l 3958 1314 l 3958 1289 l 3958 1261 l 3958 1236 m 4117 1236 l 4117 1261 l 4117 1289 l 4117 1314 l 4117 1339 l 4117 1367 l 4142 1367 l 4142 1339 l 4142 1314 l 4142 1289 l 4142 1261 l 4142 1236 l 4117 1236 m 4011 1261 l 3986 1261 l 3986 1289 l 4011 1289 l 4011 1261 m 3958 1367 l 3958 1392 l 3986 1392 l 3986 1367 l 3958 1367 m 4117 1367 l 4089 1367 l 4089 1392 l 4117 1392 l 4117 1367 m 3986 1392 l 3986 1419 l 4089 1419 l 4089 1392 l 3986 1392 m 844 -481 l 819 -481 l 819 -508 l 767 -508 l 767 -481 l 819 -481 l 819 -456 l 844 -456 l 844 -481 m 767 -431 l 742 -431 l 742 -403 l 767 -403 l 767 -431 m 844 -431 l 819 -431 l 819 -403 l 844 -403 l 844 -431 m 742 -533 l 844 -533 l 844 -561 l 742 -561 l 742 -533 m 742 -533 l 714 -533 l 714 -508 l 742 -508 l 742 -533 m 844 -533 l 844 -508 l 872 -508 l 872 -533 l 844 -533 m 714 -508 l 689 -508 l 689 -481 l 689 -456 l 689 -431 l 689 -403 l 689 -378 l 714 -378 l 714 -403 l 714 -431 l 714 -456 l 714 -481 l 714 -508 m 872 -508 l 872 -481 l 872 -456 l 872 -431 l 872 -403 l 872 -378 l 897 -378 l 897 -403 l 897 -431 l 897 -456 l 897 -481 l 897 -508 l 872 -508 m 767 -481 l 742 -481 l 742 -456 l 767 -456 l 767 -481 m 714 -378 l 714 -350 l 742 -350 l 742 -378 l 714 -378 m 872 -378 l 844 -378 l 844 -350 l 872 -350 l 872 -378 m 742 -350 l 742 -325 l 844 -325 l 844 -350 l 742 -350 m 728 224 l 844 224 q 725 68 790 119 q 472 -18 615 -18 q 178 97 297 -18 q 58 382 58 213 q 176 663 58 547 q 465 778 294 778 q 695 710 593 778 q 843 529 797 643 l 728 529 q 464 683 638 683 q 250 595 338 683 q 163 379 163 507 q 251 165 163 253 q 468 76 340 76 q 608 110 549 76 q 728 224 668 144 z "},"d":{"ha":951,"x_min":58,"x_max":864,"o":"m 864 1026 l 864 0 l 761 0 l 761 138 q 635 19 704 56 q 472 -18 567 -18 q 177 96 296 -18 q 58 379 58 210 q 174 663 58 549 q 463 778 290 778 q 761 639 646 778 l 761 1026 l 864 1026 m 460 683 q 249 596 336 683 q 163 383 163 508 q 251 165 163 253 q 469 76 339 76 q 678 167 592 76 q 765 382 765 257 q 676 595 765 507 q 460 683 586 683 z "},"e":{"ha":903,"x_min":58,"x_max":849,"o":"m 849 346 l 161 346 q 253 155 167 233 q 457 76 340 76 q 617 124 543 76 q 722 250 690 172 l 829 250 q 718 83 800 161 q 460 -18 610 -18 q 175 98 292 -18 q 58 383 58 214 q 173 663 58 549 q 453 778 288 778 q 653 724 561 778 q 797 581 746 671 q 849 346 849 489 m 164 439 l 746 439 q 641 618 719 553 q 451 683 563 683 q 264 616 343 683 q 164 439 185 549 z "},"f":{"ha":436,"x_min":22,"x_max":432,"o":"m 140 0 l 140 667 l 22 667 l 22 760 l 140 760 q 432 1026 136 1026 l 432 933 q 284 893 326 932 q 243 760 242 854 l 432 760 l 432 667 l 243 667 l 243 0 l 140 0 z "},"g":{"ha":935,"x_min":58,"x_max":847,"o":"m 847 760 l 847 136 q 831 -42 847 25 q 776 -162 815 -110 q 468 -299 674 -299 q 226 -228 325 -299 q 86 -24 128 -157 l 186 -24 q 261 -128 229 -100 q 465 -204 342 -204 q 618 -168 553 -204 q 714 -67 683 -132 q 744 103 744 -1 l 744 154 q 454 -18 657 -18 q 173 96 288 -18 q 58 376 58 210 q 169 663 58 549 q 447 778 281 778 q 744 625 632 778 l 744 760 l 847 760 m 453 683 q 244 599 326 683 q 163 385 163 515 q 246 165 163 253 q 454 76 329 76 q 661 166 578 76 q 744 389 744 256 q 660 598 744 513 q 453 683 575 683 z "},"h":{"ha":847,"x_min":88,"x_max":760,"o":"m 88 0 l 88 1026 l 190 1026 l 190 661 q 432 778 271 778 q 694 660 604 778 q 760 408 760 572 l 760 0 l 657 0 l 657 408 q 606 600 657 536 q 422 683 540 683 q 232 589 297 683 q 190 417 190 532 l 190 0 l 88 0 z "},"i":{"ha":278,"x_min":-14,"x_max":3144,"o":"m 981 147 l 872 17 l 967 -17 l 778 -186 l 900 -28 l 806 8 l 981 147 m 3144 1011 l 3036 881 l 3131 847 l 2942 678 l 3064 836 l 2969 872 l 3144 1011 m 2658 1728 l 2639 1656 l 2711 1675 l 2658 1619 l 2731 1597 l 2658 1575 l 2711 1522 l 2639 1542 l 2658 1467 l 2600 1522 l 2581 1447 l 2561 1522 l 2506 1467 l 2525 1542 l 2450 1522 l 2506 1575 l 2431 1597 l 2506 1619 l 2450 1675 l 2525 1656 l 2506 1728 l 2561 1675 l 2581 1747 l 2600 1675 l 2658 1728 m 194 1244 l 167 1244 l 36 1553 l 67 1553 l 194 1244 m 644 1036 l 617 1036 l 486 1344 l 517 1344 l 644 1036 m 88 851 l 88 1026 l 190 1026 l 190 851 l 88 851 m 144 1028 l 117 1028 l -14 1336 l 17 1336 l 144 1028 m 203 -125 l 175 -125 l 124 0 l 88 0 l 88 86 l 47 183 l 75 183 l 88 153 l 88 760 l 190 760 l 190 0 l 151 0 l 203 -125 z "},"j":{"ha":282,"x_min":-62,"x_max":194,"o":"m 194 760 l 194 53 q 174 -116 194 -58 q 97 -215 153 -174 q -62 -267 32 -262 l -62 -168 q 58 -114 24 -162 q 92 53 92 -65 l 92 760 l 194 760 m 92 851 l 92 1026 l 194 1026 l 194 851 l 92 851 z "},"k":{"ha":697,"x_min":88,"x_max":690,"o":"m 88 0 l 88 1026 l 190 1026 l 190 299 l 544 760 l 671 760 l 375 378 l 690 0 l 563 0 l 310 304 l 190 157 l 190 0 l 88 0 z "},"l":{"ha":278,"x_min":88,"x_max":190,"o":"m 88 0 l 88 1026 l 190 1026 l 190 0 l 88 0 z "},"m":{"ha":1303,"x_min":88,"x_max":4575,"o":"m 4372 1040 l 4372 1040 l 4372 1040 l 4375 1040 l 4375 1040 l 4375 1038 l 4372 1038 l 4372 1038 l 4372 1040 m 4319 1043 l 4319 1049 l 4311 1049 l 4306 1049 l 4306 1051 l 4306 1054 l 4303 1054 l 4297 1054 l 4297 1057 l 4297 1063 l 4294 1063 l 4292 1063 l 4292 1057 l 4292 1054 l 4292 1054 l 4289 1054 l 4289 1057 l 4289 1057 l 4286 1057 l 4283 1057 l 4283 1063 l 4283 1065 l 4281 1065 l 4275 1065 l 4275 1068 l 4275 1071 l 4272 1071 l 4272 1071 l 4272 1071 l 4272 1068 l 4269 1068 l 4267 1068 l 4267 1071 l 4267 1076 l 4264 1076 l 4261 1076 l 4261 1074 l 4261 1071 l 4258 1071 l 4256 1071 l 4256 1074 l 4256 1076 l 4253 1076 l 4250 1076 l 4250 1076 l 4250 1079 l 4247 1079 l 4247 1079 l 4247 1082 l 4244 1082 l 4244 1082 l 4236 1082 l 4236 1085 l 4236 1085 l 4233 1085 l 4233 1088 l 4233 1090 l 4231 1090 l 4228 1090 l 4228 1088 l 4228 1085 l 4231 1085 l 4233 1085 l 4233 1085 l 4233 1082 l 4231 1082 l 4228 1082 l 4228 1085 l 4228 1085 l 4228 1085 l 4225 1085 l 4225 1088 l 4225 1090 l 4222 1090 l 4217 1090 l 4217 1090 l 4217 1093 l 4208 1093 l 4200 1093 l 4200 1093 l 4200 1096 l 4197 1096 l 4192 1096 l 4192 1099 l 4192 1101 l 4189 1101 l 4189 1101 l 4189 1104 l 4189 1107 l 4186 1107 l 4183 1107 l 4183 1107 l 4183 1110 l 4183 1110 l 4181 1110 l 4181 1115 l 4181 1121 l 4178 1121 l 4178 1121 l 4178 1121 l 4178 1124 l 4178 1124 l 4181 1124 l 4181 1129 l 4181 1135 l 4178 1135 l 4178 1135 l 4178 1140 l 4178 1146 l 4178 1146 l 4181 1146 l 4181 1151 l 4181 1157 l 4183 1157 l 4183 1157 l 4183 1157 l 4183 1157 l 4186 1157 l 4189 1157 l 4189 1165 l 4189 1171 l 4192 1171 l 4194 1171 l 4194 1176 l 4194 1179 l 4194 1185 l 4197 1185 l 4200 1185 l 4200 1190 l 4200 1193 l 4203 1193 l 4206 1193 l 4206 1199 l 4206 1204 l 4208 1204 l 4211 1204 l 4211 1207 l 4211 1210 l 4214 1210 l 4217 1210 l 4217 1215 l 4217 1218 l 4217 1221 l 4219 1221 l 4222 1221 l 4222 1218 l 4222 1218 l 4225 1218 l 4225 1218 l 4225 1224 l 4225 1229 l 4228 1229 l 4228 1229 l 4228 1229 l 4228 1232 l 4231 1232 l 4233 1232 l 4233 1235 l 4233 1238 l 4239 1238 l 4244 1238 l 4244 1238 l 4244 1246 l 4247 1246 l 4250 1246 l 4253 1246 l 4253 1249 l 4253 1251 l 4261 1251 l 4267 1251 l 4267 1257 l 4267 1260 l 4275 1260 l 4281 1260 l 4281 1263 l 4281 1265 l 4283 1265 l 4283 1265 l 4283 1268 l 4283 1271 l 4289 1271 l 4292 1271 l 4292 1268 l 4292 1265 l 4294 1265 l 4297 1265 l 4297 1268 l 4297 1274 l 4306 1274 l 4311 1274 l 4311 1274 l 4311 1276 l 4314 1276 l 4317 1276 l 4317 1274 l 4317 1274 l 4319 1274 l 4322 1274 l 4322 1271 l 4322 1271 l 4325 1271 l 4328 1271 l 4328 1268 l 4328 1265 l 4328 1265 l 4331 1265 l 4331 1260 l 4331 1257 l 4328 1257 l 4322 1257 l 4322 1257 l 4322 1260 l 4322 1260 l 4319 1260 l 4319 1251 l 4319 1246 l 4322 1246 l 4322 1246 l 4322 1246 l 4322 1249 l 4325 1249 l 4328 1249 l 4328 1246 l 4328 1243 l 4328 1243 l 4328 1246 l 4331 1246 l 4333 1246 l 4333 1249 l 4333 1251 l 4336 1251 l 4336 1251 l 4336 1251 l 4336 1249 l 4342 1249 l 4347 1249 l 4347 1246 l 4347 1246 l 4350 1246 l 4353 1246 l 4353 1243 l 4353 1243 l 4353 1243 l 4350 1243 l 4350 1232 l 4350 1224 l 4353 1224 l 4353 1224 l 4353 1232 l 4353 1238 l 4356 1238 l 4358 1238 l 4358 1238 l 4358 1235 l 4375 1235 l 4392 1235 l 4392 1232 l 4392 1229 l 4394 1229 l 4397 1229 l 4397 1235 l 4403 1235 l 4403 1232 l 4403 1229 l 4400 1229 l 4397 1229 l 4397 1226 l 4397 1224 l 4400 1224 l 4403 1224 l 4403 1226 l 4403 1229 l 4411 1229 l 4419 1229 l 4419 1226 l 4419 1224 l 4425 1224 l 4425 1218 l 4425 1213 l 4431 1213 l 4433 1213 l 4433 1218 l 4433 1221 l 4436 1221 l 4436 1221 l 4436 1218 l 4436 1218 l 4442 1218 l 4444 1218 l 4444 1215 l 4444 1213 l 4447 1213 l 4453 1213 l 4453 1215 l 4453 1218 l 4453 1218 l 4453 1218 l 4453 1210 l 4453 1204 l 4456 1204 l 4458 1204 l 4458 1207 l 4458 1210 l 4461 1210 l 4464 1210 l 4464 1213 l 4464 1213 l 4467 1213 l 4469 1213 l 4469 1213 l 4469 1210 l 4469 1210 l 4472 1210 l 4472 1210 l 4472 1207 l 4469 1207 l 4469 1207 l 4469 1204 l 4469 1201 l 4472 1201 l 4475 1201 l 4475 1201 l 4475 1204 l 4481 1204 l 4486 1204 l 4486 1199 l 4486 1193 l 4492 1193 l 4492 1199 l 4492 1201 l 4494 1201 l 4497 1201 l 4497 1196 l 4497 1190 l 4497 1190 l 4500 1190 l 4500 1193 l 4500 1193 l 4503 1193 l 4503 1193 l 4503 1190 l 4503 1185 l 4506 1185 l 4508 1185 l 4508 1185 l 4508 1182 l 4511 1182 l 4514 1182 l 4514 1185 l 4514 1185 l 4517 1185 l 4519 1185 l 4519 1185 l 4519 1182 l 4522 1182 l 4525 1182 l 4525 1182 l 4525 1179 l 4525 1179 l 4528 1179 l 4528 1174 l 4528 1168 l 4531 1168 l 4533 1168 l 4533 1163 l 4533 1157 l 4536 1157 l 4539 1157 l 4539 1157 l 4539 1157 l 4536 1157 l 4533 1157 l 4533 1157 l 4533 1157 l 4528 1157 l 4525 1157 l 4525 1157 l 4525 1157 l 4528 1157 l 4533 1157 l 4533 1151 l 4533 1146 l 4533 1146 l 4531 1146 l 4531 1143 l 4531 1140 l 4533 1140 l 4539 1140 l 4539 1149 l 4539 1157 l 4539 1157 l 4542 1157 l 4542 1160 l 4542 1163 l 4542 1163 l 4544 1163 l 4544 1157 l 4544 1151 l 4542 1151 l 4542 1151 l 4542 1149 l 4542 1146 l 4547 1146 l 4556 1146 l 4558 1146 l 4558 1138 l 4561 1138 l 4561 1132 l 4561 1126 l 4561 1126 l 4558 1126 l 4558 1129 l 4558 1129 l 4556 1129 l 4553 1129 l 4553 1129 l 4553 1126 l 4550 1126 l 4547 1126 l 4547 1126 l 4547 1124 l 4544 1124 l 4542 1124 l 4542 1126 l 4542 1126 l 4544 1126 l 4544 1132 l 4544 1135 l 4544 1135 l 4542 1135 l 4542 1132 l 4542 1129 l 4542 1129 l 4539 1129 l 4539 1126 l 4539 1124 l 4539 1121 l 4542 1121 l 4547 1121 l 4547 1118 l 4547 1118 l 4550 1118 l 4553 1118 l 4553 1115 l 4553 1113 l 4547 1113 l 4542 1113 l 4542 1113 l 4542 1110 l 4542 1110 l 4544 1110 l 4544 1107 l 4544 1107 l 4542 1107 l 4542 1107 l 4542 1107 l 4542 1099 l 4528 1099 l 4528 1110 l 4531 1110 l 4533 1110 l 4533 1107 l 4533 1107 l 4536 1107 l 4539 1107 l 4539 1110 l 4539 1113 l 4533 1113 l 4531 1113 l 4531 1115 l 4531 1118 l 4528 1118 l 4528 1118 l 4528 1113 l 4528 1110 l 4525 1110 l 4525 1110 l 4525 1101 l 4525 1093 l 4519 1093 l 4517 1093 l 4517 1090 l 4517 1090 l 4514 1090 l 4514 1090 l 4514 1093 l 4514 1096 l 4511 1096 l 4508 1096 l 4508 1099 l 4508 1101 l 4506 1101 l 4500 1101 l 4500 1096 l 4500 1093 l 4497 1093 l 4497 1093 l 4497 1090 l 4497 1090 l 4500 1090 l 4503 1090 l 4503 1085 l 4503 1082 l 4497 1082 l 4492 1082 l 4492 1085 l 4492 1085 l 4492 1085 l 4489 1085 l 4489 1085 l 4489 1082 l 4486 1082 l 4486 1082 l 4486 1079 l 4486 1079 l 4483 1079 l 4481 1079 l 4481 1076 l 4481 1076 l 4478 1076 l 4472 1076 l 4472 1076 l 4472 1079 l 4469 1079 l 4469 1079 l 4469 1076 l 4469 1076 l 4461 1076 l 4453 1076 l 4453 1071 l 4453 1068 l 4456 1068 l 4458 1068 l 4458 1071 l 4458 1071 l 4458 1071 l 4464 1071 l 4464 1065 l 4464 1065 l 4464 1065 l 4461 1065 l 4461 1068 l 4461 1068 l 4461 1068 l 4458 1068 l 4458 1065 l 4458 1063 l 4456 1063 l 4453 1063 l 4453 1060 l 4453 1057 l 4456 1057 l 4458 1057 l 4458 1054 l 4458 1051 l 4456 1051 l 4453 1051 l 4453 1054 l 4453 1057 l 4453 1057 l 4453 1057 l 4453 1063 l 4453 1068 l 4450 1068 l 4447 1068 l 4447 1068 l 4447 1065 l 4444 1065 l 4444 1065 l 4444 1057 l 4444 1049 l 4442 1049 l 4442 1049 l 4442 1051 l 4442 1054 l 4433 1054 l 4428 1054 l 4428 1051 l 4428 1051 l 4422 1051 l 4419 1051 l 4419 1049 l 4419 1049 l 4417 1049 l 4414 1049 l 4414 1049 l 4414 1051 l 4408 1051 l 4403 1051 l 4403 1051 l 4403 1054 l 4400 1054 l 4397 1054 l 4397 1057 l 4397 1057 l 4397 1057 l 4397 1057 l 4397 1063 l 4397 1065 l 4394 1065 l 4392 1065 l 4392 1063 l 4392 1063 l 4392 1063 l 4389 1063 l 4389 1060 l 4389 1057 l 4386 1057 l 4386 1057 l 4386 1057 l 4386 1054 l 4381 1054 l 4375 1054 l 4375 1051 l 4375 1051 l 4392 1051 l 4392 1049 l 4392 1049 l 4394 1049 l 4397 1049 l 4397 1046 l 4397 1043 l 4394 1043 l 4392 1043 l 4392 1043 l 4392 1040 l 4389 1040 l 4386 1040 l 4386 1043 l 4386 1043 l 4389 1043 l 4392 1043 l 4392 1046 l 4392 1049 l 4386 1049 l 4381 1049 l 4381 1046 l 4381 1043 l 4381 1043 l 4378 1043 l 4378 1046 l 4378 1049 l 4375 1049 l 4372 1049 l 4372 1046 l 4372 1043 l 4369 1043 l 4369 1043 l 4369 1046 l 4369 1049 l 4367 1049 l 4364 1049 l 4364 1046 l 4364 1043 l 4361 1043 l 4361 1043 l 4361 1046 l 4361 1049 l 4358 1049 l 4358 1049 l 4358 1057 l 4358 1065 l 4353 1065 l 4350 1065 l 4350 1063 l 4350 1057 l 4353 1057 l 4353 1057 l 4353 1057 l 4353 1054 l 4350 1054 l 4347 1054 l 4347 1051 l 4347 1051 l 4350 1051 l 4353 1051 l 4353 1049 l 4353 1049 l 4356 1049 l 4358 1049 l 4358 1046 l 4358 1043 l 4353 1043 l 4350 1043 l 4350 1046 l 4350 1049 l 4347 1049 l 4344 1049 l 4344 1051 l 4344 1054 l 4342 1054 l 4336 1054 l 4336 1051 l 4336 1051 l 4336 1051 l 4333 1051 l 4333 1049 l 4333 1049 l 4331 1049 l 4331 1049 l 4331 1046 l 4331 1043 l 4328 1043 l 4328 1043 l 4328 1046 l 4328 1049 l 4325 1049 l 4322 1049 l 4322 1043 l 4322 1040 l 4322 1040 l 4319 1040 l 4319 1043 m 4311 1051 l 4311 1054 l 4314 1054 l 4317 1054 l 4317 1057 l 4317 1057 l 4317 1057 l 4319 1057 l 4319 1063 l 4319 1065 l 4317 1065 l 4317 1065 l 4317 1063 l 4317 1063 l 4314 1063 l 4311 1063 l 4311 1060 l 4311 1057 l 4311 1057 l 4308 1057 l 4308 1054 l 4308 1051 l 4311 1051 l 4311 1051 m 4369 1051 l 4369 1054 l 4367 1054 l 4364 1054 l 4364 1051 l 4364 1051 l 4367 1051 l 4369 1051 l 4369 1051 m 4428 1057 l 4428 1057 l 4422 1057 l 4419 1057 l 4419 1057 l 4419 1054 l 4422 1054 l 4428 1054 l 4428 1057 m 4378 1060 l 4378 1063 l 4378 1063 l 4375 1063 l 4375 1060 l 4375 1057 l 4378 1057 l 4378 1057 l 4378 1060 m 4406 1060 l 4406 1063 l 4406 1063 l 4403 1063 l 4403 1060 l 4403 1057 l 4406 1057 l 4406 1057 l 4406 1060 m 4436 1063 l 4436 1068 l 4436 1068 l 4433 1068 l 4433 1063 l 4433 1057 l 4436 1057 l 4436 1057 l 4436 1063 m 4392 1068 l 4392 1068 l 4392 1068 l 4389 1068 l 4389 1068 l 4389 1065 l 4392 1065 l 4392 1065 l 4392 1068 m 4419 1076 l 4419 1079 l 4417 1079 l 4417 1079 l 4417 1076 l 4417 1076 l 4417 1076 l 4419 1076 l 4419 1076 m 4358 1085 l 4358 1085 l 4364 1085 l 4369 1085 l 4369 1085 l 4369 1082 l 4378 1082 l 4389 1082 l 4389 1085 l 4389 1085 l 4392 1085 l 4397 1085 l 4397 1085 l 4397 1082 l 4403 1082 l 4408 1082 l 4408 1085 l 4408 1085 l 4411 1085 l 4417 1085 l 4417 1090 l 4417 1093 l 4414 1093 l 4414 1090 l 4411 1090 l 4406 1090 l 4406 1090 l 4406 1093 l 4406 1093 l 4403 1093 l 4403 1090 l 4403 1090 l 4392 1090 l 4381 1090 l 4381 1090 l 4381 1093 l 4383 1093 l 4386 1093 l 4386 1093 l 4386 1096 l 4389 1096 l 4392 1096 l 4392 1093 l 4392 1093 l 4394 1093 l 4397 1093 l 4397 1096 l 4397 1101 l 4400 1101 l 4403 1101 l 4403 1101 l 4403 1101 l 4406 1101 l 4408 1101 l 4408 1104 l 4408 1107 l 4411 1107 l 4414 1107 l 4414 1104 l 4414 1101 l 4414 1101 l 4417 1101 l 4417 1099 l 4417 1096 l 4417 1096 l 4419 1096 l 4419 1099 l 4419 1101 l 4417 1101 l 4417 1101 l 4417 1104 l 4417 1107 l 4419 1107 l 4425 1107 l 4425 1104 l 4425 1101 l 4428 1101 l 4428 1101 l 4428 1101 l 4431 1101 l 4431 1104 l 4431 1107 l 4433 1107 l 4436 1107 l 4436 1107 l 4436 1110 l 4439 1110 l 4442 1110 l 4442 1113 l 4442 1113 l 4442 1113 l 4444 1113 l 4444 1118 l 4444 1121 l 4444 1121 l 4447 1121 l 4447 1118 l 4447 1113 l 4450 1113 l 4453 1113 l 4453 1115 l 4453 1118 l 4456 1118 l 4458 1118 l 4458 1118 l 4458 1121 l 4461 1121 l 4464 1121 l 4464 1124 l 4464 1126 l 4467 1126 l 4469 1126 l 4469 1124 l 4469 1121 l 4469 1121 l 4472 1121 l 4472 1124 l 4472 1126 l 4475 1126 l 4478 1126 l 4478 1129 l 4478 1129 l 4483 1129 l 4489 1129 l 4489 1132 l 4489 1135 l 4486 1135 l 4486 1135 l 4486 1138 l 4486 1138 l 4478 1138 l 4472 1138 l 4472 1140 l 4472 1140 l 4478 1140 l 4481 1140 l 4481 1143 l 4481 1146 l 4478 1146 l 4475 1146 l 4475 1146 l 4475 1149 l 4478 1149 l 4478 1149 l 4478 1149 l 4478 1151 l 4475 1151 l 4469 1151 l 4469 1160 l 4469 1165 l 4464 1165 l 4461 1165 l 4461 1168 l 4461 1168 l 4461 1168 l 4458 1168 l 4458 1171 l 4458 1174 l 4456 1174 l 4453 1174 l 4453 1179 l 4450 1179 l 4447 1179 l 4447 1176 l 4447 1176 l 4444 1176 l 4444 1176 l 4444 1179 l 4444 1182 l 4442 1182 l 4439 1182 l 4433 1182 l 4433 1190 l 4428 1190 l 4425 1190 l 4425 1193 l 4425 1193 l 4419 1193 l 4417 1193 l 4417 1196 l 4417 1196 l 4408 1196 l 4403 1196 l 4403 1201 l 4403 1204 l 4400 1204 l 4397 1204 l 4397 1201 l 4397 1201 l 4386 1201 l 4375 1201 l 4375 1201 l 4375 1204 l 4367 1204 l 4358 1204 l 4358 1201 l 4358 1196 l 4356 1196 l 4353 1196 l 4353 1199 l 4353 1201 l 4347 1201 l 4344 1201 l 4344 1199 l 4344 1196 l 4342 1196 l 4336 1196 l 4336 1196 l 4336 1193 l 4336 1193 l 4333 1193 l 4333 1196 l 4331 1196 l 4331 1196 l 4331 1193 l 4331 1190 l 4328 1190 l 4322 1190 l 4322 1188 l 4322 1185 l 4319 1185 l 4317 1185 l 4317 1185 l 4317 1182 l 4314 1182 l 4311 1182 l 4311 1182 l 4311 1179 l 4308 1179 l 4306 1179 l 4306 1176 l 4306 1174 l 4303 1174 l 4303 1174 l 4303 1168 l 4303 1165 l 4297 1165 l 4294 1165 l 4294 1160 l 4294 1157 l 4294 1157 l 4292 1157 l 4292 1154 l 4292 1151 l 4294 1151 l 4294 1151 l 4294 1146 l 4294 1140 l 4297 1140 l 4297 1140 l 4297 1140 l 4297 1138 l 4297 1138 l 4294 1138 l 4294 1138 l 4294 1135 l 4297 1135 l 4297 1135 l 4297 1129 l 4297 1124 l 4300 1124 l 4303 1124 l 4303 1118 l 4308 1118 l 4308 1115 l 4308 1113 l 4311 1113 l 4311 1113 l 4311 1113 l 4311 1110 l 4319 1110 l 4328 1110 l 4328 1107 l 4328 1107 l 4325 1107 l 4322 1107 l 4322 1104 l 4322 1101 l 4325 1101 l 4328 1101 l 4328 1101 l 4328 1101 l 4336 1101 l 4344 1101 l 4344 1099 l 4344 1096 l 4344 1096 l 4347 1096 l 4347 1093 l 4347 1090 l 4344 1090 l 4344 1090 l 4344 1093 l 4344 1096 l 4339 1096 l 4333 1096 l 4333 1093 l 4333 1093 l 4336 1093 l 4336 1093 l 4336 1090 l 4336 1090 l 4342 1090 l 4344 1090 l 4344 1088 l 4344 1085 l 4347 1085 l 4353 1085 l 4353 1085 l 4353 1082 l 4356 1082 l 4358 1082 l 4358 1085 m 4353 1090 l 4353 1093 l 4353 1093 l 4350 1093 l 4350 1099 l 4350 1101 l 4347 1101 l 4347 1101 l 4347 1104 l 4347 1107 l 4344 1107 l 4342 1107 l 4342 1107 l 4342 1110 l 4339 1110 l 4336 1110 l 4336 1113 l 4336 1113 l 4336 1113 l 4333 1113 l 4333 1115 l 4333 1118 l 4331 1118 l 4331 1118 l 4331 1121 l 4331 1124 l 4328 1124 l 4328 1124 l 4328 1126 l 4328 1129 l 4325 1129 l 4322 1129 l 4322 1135 l 4322 1140 l 4322 1140 l 4319 1140 l 4319 1143 l 4319 1146 l 4322 1146 l 4322 1146 l 4322 1154 l 4322 1163 l 4325 1163 l 4328 1163 l 4328 1165 l 4328 1168 l 4328 1168 l 4331 1168 l 4331 1171 l 4331 1176 l 4331 1176 l 4333 1176 l 4333 1176 l 4333 1179 l 4336 1179 l 4336 1179 l 4336 1182 l 4336 1185 l 4342 1185 l 4344 1185 l 4344 1188 l 4344 1190 l 4350 1190 l 4358 1190 l 4358 1193 l 4358 1193 l 4367 1193 l 4378 1193 l 4378 1193 l 4378 1190 l 4381 1190 l 4386 1190 l 4386 1188 l 4386 1185 l 4389 1185 l 4392 1185 l 4392 1185 l 4392 1182 l 4394 1182 l 4397 1182 l 4397 1182 l 4397 1179 l 4397 1179 l 4397 1179 l 4397 1176 l 4397 1176 l 4400 1176 l 4403 1176 l 4403 1171 l 4403 1168 l 4397 1168 l 4389 1168 l 4386 1168 l 4386 1163 l 4386 1163 l 4383 1163 l 4381 1163 l 4381 1157 l 4381 1151 l 4383 1151 l 4386 1151 l 4386 1149 l 4386 1149 l 4392 1149 l 4397 1149 l 4397 1149 l 4397 1151 l 4400 1151 l 4403 1151 l 4403 1154 l 4403 1157 l 4406 1157 l 4406 1157 l 4406 1160 l 4406 1163 l 4408 1163 l 4408 1163 l 4408 1160 l 4408 1157 l 4411 1157 l 4414 1157 l 4414 1146 l 4414 1138 l 4411 1138 l 4408 1138 l 4408 1132 l 4408 1126 l 4408 1126 l 4406 1126 l 4406 1124 l 4406 1121 l 4406 1121 l 4403 1121 l 4403 1118 l 4403 1113 l 4400 1113 l 4397 1113 l 4397 1107 l 4392 1107 l 4392 1104 l 4392 1101 l 4386 1101 l 4378 1101 l 4378 1099 l 4378 1096 l 4378 1096 l 4375 1096 l 4375 1099 l 4375 1101 l 4367 1101 l 4358 1101 l 4358 1099 l 4358 1096 l 4356 1096 l 4353 1096 l 4353 1093 l 4353 1093 l 4356 1093 l 4358 1093 l 4358 1093 l 4358 1096 l 4361 1096 l 4364 1096 l 4364 1093 l 4364 1093 l 4361 1093 l 4361 1093 l 4361 1090 l 4361 1090 l 4358 1090 l 4353 1090 l 4353 1090 m 4372 1090 l 4372 1093 l 4372 1093 l 4375 1093 l 4375 1090 l 4375 1090 l 4372 1090 l 4372 1090 l 4372 1090 m 4428 1088 l 4428 1090 l 4422 1090 l 4419 1090 l 4419 1088 l 4419 1085 l 4422 1085 l 4428 1085 l 4428 1088 m 4431 1093 l 4431 1096 l 4428 1096 l 4428 1096 l 4428 1093 l 4428 1093 l 4428 1093 l 4431 1093 l 4431 1093 m 4489 1093 l 4489 1096 l 4486 1096 l 4486 1096 l 4486 1093 l 4486 1093 l 4486 1093 l 4489 1093 l 4489 1093 m 4453 1099 l 4453 1101 l 4456 1101 l 4458 1101 l 4458 1101 l 4458 1101 l 4453 1101 l 4453 1096 l 4453 1096 l 4453 1096 l 4453 1099 m 4472 1101 l 4472 1101 l 4469 1101 l 4464 1101 l 4464 1101 l 4464 1101 l 4469 1101 l 4472 1101 l 4472 1101 m 4519 1101 l 4519 1101 l 4517 1101 l 4514 1101 l 4514 1101 l 4514 1101 l 4517 1101 l 4519 1101 l 4519 1101 m 4508 1110 l 4503 1110 l 4503 1107 l 4503 1101 l 4506 1101 l 4508 1101 l 4508 1110 m 4478 1107 l 4478 1110 l 4475 1110 l 4472 1110 l 4472 1107 l 4472 1107 l 4475 1107 l 4478 1107 l 4478 1107 m 4489 1110 l 4489 1113 l 4486 1113 l 4486 1113 l 4486 1115 l 4486 1118 l 4489 1118 l 4492 1118 l 4492 1113 l 4492 1110 l 4494 1110 l 4497 1110 l 4497 1113 l 4497 1118 l 4494 1118 l 4492 1118 l 4492 1121 l 4492 1124 l 4494 1124 l 4497 1124 l 4497 1126 l 4497 1126 l 4492 1126 l 4486 1126 l 4486 1126 l 4486 1124 l 4486 1124 l 4489 1124 l 4489 1121 l 4489 1121 l 4486 1121 l 4486 1121 l 4486 1118 l 4486 1118 l 4483 1118 l 4481 1118 l 4481 1118 l 4481 1121 l 4478 1121 l 4475 1121 l 4475 1118 l 4475 1118 l 4478 1118 l 4481 1118 l 4481 1113 l 4481 1107 l 4486 1107 l 4489 1107 l 4489 1110 m 4461 1115 l 4461 1118 l 4461 1118 l 4458 1118 l 4458 1115 l 4458 1113 l 4461 1113 l 4461 1113 l 4461 1115 m 4506 1118 l 4506 1121 l 4506 1121 l 4503 1121 l 4503 1118 l 4503 1113 l 4506 1113 l 4506 1113 l 4506 1118 m 4528 1121 l 4528 1124 l 4525 1124 l 4519 1124 l 4519 1121 l 4519 1121 l 4525 1121 l 4528 1121 l 4528 1121 m 4292 1132 l 4292 1135 l 4292 1135 l 4289 1135 l 4289 1132 l 4289 1129 l 4292 1129 l 4292 1129 l 4292 1132 m 4556 1138 l 4556 1140 l 4553 1140 l 4553 1140 l 4553 1138 l 4553 1135 l 4553 1135 l 4556 1135 l 4556 1138 m 4525 1146 l 4525 1149 l 4519 1149 l 4517 1149 l 4517 1146 l 4517 1146 l 4519 1146 l 4525 1146 l 4525 1146 m 4497 1154 l 4497 1157 l 4494 1157 l 4492 1157 l 4492 1154 l 4492 1151 l 4494 1151 l 4497 1151 l 4497 1154 m 4517 1157 l 4517 1157 l 4514 1157 l 4514 1157 l 4514 1157 l 4514 1157 l 4514 1157 l 4517 1157 l 4517 1157 m 4531 1163 l 4531 1165 l 4525 1165 l 4519 1165 l 4519 1163 l 4519 1163 l 4525 1163 l 4531 1163 l 4531 1163 m 4506 1168 l 4506 1168 l 4506 1168 l 4503 1168 l 4503 1168 l 4503 1165 l 4506 1165 l 4506 1165 l 4506 1168 m 4472 1171 l 4472 1174 l 4475 1174 l 4475 1174 l 4475 1171 l 4475 1168 l 4478 1168 l 4481 1168 l 4481 1174 l 4475 1174 l 4475 1176 l 4475 1179 l 4475 1179 l 4472 1179 l 4472 1176 l 4472 1176 l 4469 1176 l 4469 1176 l 4469 1171 l 4469 1168 l 4469 1168 l 4472 1168 l 4472 1171 m 4514 1171 l 4514 1174 l 4514 1174 l 4517 1174 l 4517 1179 l 4517 1182 l 4514 1182 l 4514 1182 l 4514 1182 l 4514 1179 l 4511 1179 l 4508 1179 l 4508 1174 l 4508 1168 l 4511 1168 l 4514 1168 l 4514 1171 m 4464 1176 l 4464 1179 l 4467 1179 l 4469 1179 l 4469 1182 l 4469 1182 l 4464 1182 l 4464 1190 l 4461 1190 l 4458 1190 l 4458 1193 l 4458 1193 l 4456 1193 l 4453 1193 l 4453 1193 l 4453 1190 l 4453 1190 l 4453 1190 l 4453 1193 l 4453 1193 l 4447 1193 l 4442 1193 l 4442 1193 l 4442 1190 l 4444 1190 l 4447 1190 l 4447 1188 l 4447 1185 l 4450 1185 l 4453 1185 l 4453 1185 l 4453 1182 l 4456 1182 l 4458 1182 l 4458 1179 l 4458 1176 l 4461 1176 l 4464 1176 l 4464 1176 m 4500 1176 l 4500 1179 l 4497 1179 l 4497 1179 l 4497 1176 l 4497 1176 l 4497 1176 l 4500 1176 l 4500 1176 m 4525 1176 l 4525 1179 l 4522 1179 l 4519 1179 l 4519 1176 l 4519 1176 l 4522 1176 l 4525 1176 l 4525 1176 m 4489 1188 l 4489 1190 l 4486 1190 l 4486 1190 l 4486 1188 l 4486 1185 l 4486 1185 l 4489 1185 l 4489 1188 m 4481 1193 l 4481 1193 l 4481 1193 l 4478 1193 l 4478 1193 l 4478 1190 l 4481 1190 l 4481 1190 l 4481 1193 m 4433 1199 l 4433 1201 l 4436 1201 l 4442 1201 l 4442 1199 l 4442 1196 l 4442 1196 l 4444 1196 l 4444 1199 l 4444 1201 l 4442 1201 l 4442 1201 l 4442 1201 l 4442 1204 l 4436 1204 l 4433 1204 l 4433 1207 l 4433 1207 l 4431 1207 l 4428 1207 l 4428 1210 l 4428 1210 l 4422 1210 l 4419 1210 l 4419 1213 l 4419 1213 l 4417 1213 l 4417 1213 l 4417 1213 l 4417 1210 l 4411 1210 l 4406 1210 l 4406 1213 l 4406 1213 l 4406 1213 l 4403 1213 l 4403 1210 l 4403 1207 l 4408 1207 l 4414 1207 l 4414 1207 l 4414 1204 l 4417 1204 l 4419 1204 l 4419 1201 l 4419 1201 l 4422 1201 l 4425 1201 l 4425 1201 l 4425 1204 l 4425 1204 l 4428 1204 l 4428 1201 l 4428 1201 l 4428 1201 l 4431 1201 l 4431 1199 l 4431 1196 l 4433 1196 l 4433 1196 l 4433 1199 m 4464 1201 l 4464 1204 l 4464 1204 l 4461 1204 l 4461 1201 l 4461 1196 l 4464 1196 l 4464 1196 l 4464 1201 m 4481 1199 l 4481 1201 l 4481 1201 l 4478 1201 l 4478 1199 l 4478 1196 l 4481 1196 l 4481 1196 l 4481 1199 m 4342 1207 l 4342 1210 l 4339 1210 l 4336 1210 l 4336 1207 l 4336 1204 l 4339 1204 l 4342 1204 l 4342 1207 m 4333 1210 l 4333 1210 l 4331 1210 l 4331 1210 l 4331 1210 l 4331 1207 l 4331 1207 l 4333 1207 l 4333 1210 m 4350 1210 l 4350 1210 l 4350 1213 l 4350 1215 l 4350 1218 l 4347 1218 l 4347 1218 l 4347 1215 l 4347 1213 l 4344 1213 l 4344 1213 l 4344 1213 l 4344 1210 l 4344 1210 l 4347 1210 l 4347 1210 l 4347 1207 l 4347 1207 l 4350 1207 l 4350 1210 m 4369 1213 l 4369 1218 l 4364 1218 l 4361 1218 l 4361 1215 l 4361 1213 l 4358 1213 l 4353 1213 l 4353 1210 l 4353 1207 l 4361 1207 l 4369 1207 l 4369 1213 m 4381 1210 l 4381 1210 l 4381 1210 l 4378 1210 l 4378 1210 l 4378 1207 l 4381 1207 l 4381 1207 l 4381 1210 m 4397 1207 l 4397 1213 l 4394 1213 l 4392 1213 l 4386 1213 l 4386 1210 l 4389 1210 l 4389 1210 l 4389 1207 l 4394 1207 l 4397 1207 l 4397 1207 m 4453 1210 l 4453 1210 l 4450 1210 l 4447 1210 l 4447 1210 l 4447 1207 l 4450 1207 l 4453 1207 l 4453 1210 m 4389 1218 l 4389 1221 l 4386 1221 l 4386 1221 l 4386 1218 l 4386 1218 l 4386 1218 l 4389 1218 l 4389 1218 m 4381 1224 l 4381 1224 l 4381 1224 l 4378 1224 l 4378 1226 l 4378 1229 l 4381 1229 l 4381 1229 l 4381 1229 l 4381 1232 l 4378 1232 l 4375 1232 l 4375 1229 l 4375 1229 l 4372 1229 l 4372 1229 l 4372 1226 l 4372 1224 l 4375 1224 l 4378 1224 l 4378 1224 l 4378 1221 l 4381 1221 l 4381 1221 l 4381 1224 m 4322 1226 l 4322 1229 l 4322 1229 l 4319 1229 l 4319 1226 l 4319 1224 l 4322 1224 l 4322 1224 l 4322 1226 m 4389 1226 l 4389 1229 l 4386 1229 l 4386 1229 l 4386 1226 l 4386 1224 l 4386 1224 l 4389 1224 l 4389 1226 m 4289 1229 l 4289 1232 l 4286 1232 l 4283 1232 l 4283 1235 l 4283 1235 l 4281 1235 l 4281 1232 l 4283 1232 l 4283 1232 l 4283 1229 l 4283 1229 l 4286 1229 l 4289 1229 l 4289 1229 m 4306 1229 l 4306 1232 l 4303 1232 l 4303 1232 l 4303 1229 l 4303 1229 l 4303 1229 l 4306 1229 l 4306 1229 m 4361 1229 l 4361 1232 l 4358 1232 l 4358 1232 l 4358 1229 l 4358 1229 l 4358 1229 l 4361 1229 l 4361 1229 m 4297 1232 l 4297 1235 l 4303 1235 l 4306 1235 l 4306 1238 l 4306 1238 l 4303 1238 l 4303 1238 l 4303 1240 l 4303 1243 l 4308 1243 l 4317 1243 l 4317 1240 l 4317 1238 l 4311 1238 l 4308 1238 l 4308 1238 l 4308 1235 l 4314 1235 l 4319 1235 l 4319 1238 l 4319 1238 l 4322 1238 l 4322 1238 l 4322 1240 l 4322 1243 l 4319 1243 l 4317 1243 l 4317 1243 l 4317 1246 l 4314 1246 l 4311 1246 l 4311 1246 l 4311 1249 l 4311 1249 l 4308 1249 l 4308 1246 l 4308 1246 l 4303 1246 l 4297 1246 l 4297 1243 l 4297 1243 l 4292 1243 l 4283 1243 l 4283 1240 l 4283 1238 l 4286 1238 l 4289 1238 l 4289 1238 l 4289 1235 l 4292 1235 l 4292 1235 l 4292 1238 l 4292 1238 l 4294 1238 l 4294 1238 l 4294 1235 l 4294 1232 l 4297 1232 l 4297 1232 l 4297 1232 m 4328 1238 l 4328 1238 l 4325 1238 l 4322 1238 l 4322 1238 l 4322 1235 l 4325 1235 l 4328 1235 l 4328 1238 m 4336 1240 l 4336 1243 l 4333 1243 l 4331 1243 l 4331 1240 l 4331 1238 l 4333 1238 l 4336 1238 l 4336 1240 m 4347 1240 l 4347 1243 l 4344 1243 l 4344 1243 l 4344 1246 l 4342 1246 l 4342 1243 l 4342 1238 l 4344 1238 l 4347 1238 l 4347 1240 m 4275 1246 l 4275 1249 l 4272 1249 l 4272 1249 l 4272 1246 l 4272 1246 l 4272 1246 l 4275 1246 l 4275 1246 m 4294 1251 l 4294 1257 l 4294 1257 l 4292 1257 l 4292 1254 l 4292 1251 l 4292 1251 l 4289 1251 l 4289 1251 l 4289 1249 l 4292 1249 l 4294 1249 l 4294 1251 m 4303 1251 l 4303 1251 l 4300 1251 l 4297 1251 l 4297 1251 l 4297 1249 l 4300 1249 l 4303 1249 l 4303 1251 m 4317 1263 l 4317 1265 l 4314 1265 l 4311 1265 l 4311 1263 l 4311 1263 l 4314 1263 l 4317 1263 l 4317 1263 m 4414 1043 l 4414 1043 l 4417 1043 l 4419 1043 l 4419 1043 l 4419 1040 l 4417 1040 l 4414 1040 l 4414 1043 m 4428 1043 l 4428 1043 l 4428 1043 l 4431 1043 l 4431 1043 l 4431 1040 l 4428 1040 l 4428 1040 l 4428 1043 m 4333 1046 l 4333 1049 l 4336 1049 l 4336 1049 l 4336 1046 l 4336 1043 l 4336 1043 l 4333 1043 l 4333 1046 m 4392 1057 l 4392 1057 l 4394 1057 l 4397 1057 l 4397 1057 l 4397 1054 l 4394 1054 l 4392 1054 l 4392 1057 m 4469 1068 l 4469 1071 l 4478 1071 l 4478 1071 l 4478 1071 l 4478 1068 l 4478 1068 l 4475 1068 l 4475 1068 l 4475 1065 l 4472 1065 l 4469 1065 l 4469 1068 m 4486 1076 l 4486 1079 l 4486 1079 l 4489 1079 l 4489 1076 l 4489 1076 l 4486 1076 l 4486 1076 l 4486 1076 m 4506 1093 l 4506 1093 l 4503 1093 l 4503 1093 l 4503 1096 l 4506 1096 l 4506 1096 l 4506 1093 l 4506 1093 m 4183 1101 l 4183 1101 l 4186 1101 l 4189 1101 l 4189 1101 l 4189 1101 l 4186 1101 l 4183 1101 l 4183 1101 m 4558 1121 l 4558 1124 l 4561 1124 l 4561 1124 l 4561 1121 l 4561 1121 l 4561 1121 l 4558 1121 l 4558 1121 m 4553 1126 l 4553 1126 l 4553 1126 l 4556 1126 l 4556 1126 l 4556 1124 l 4553 1124 l 4553 1124 l 4553 1126 m 4572 1132 l 4572 1135 l 4575 1135 l 4575 1135 l 4575 1132 l 4575 1129 l 4575 1129 l 4572 1129 l 4572 1132 m 4547 1157 l 4547 1157 l 4550 1157 l 4553 1157 l 4553 1160 l 4553 1163 l 4553 1163 l 4556 1163 l 4556 1160 l 4556 1157 l 4553 1157 l 4553 1157 l 4553 1157 l 4553 1157 l 4550 1157 l 4547 1157 l 4547 1157 m 4547 1168 l 4547 1168 l 4550 1168 l 4553 1168 l 4553 1168 l 4553 1165 l 4550 1165 l 4547 1165 l 4547 1168 m 4503 1199 l 4503 1201 l 4506 1201 l 4506 1201 l 4506 1199 l 4506 1196 l 4506 1196 l 4503 1196 l 4503 1199 m 4464 1218 l 4464 1221 l 4467 1221 l 4469 1221 l 4469 1218 l 4469 1218 l 4467 1218 l 4464 1218 l 4464 1218 m 4328 1271 l 4328 1274 l 4325 1274 l 4322 1274 l 4322 1274 l 4322 1276 l 4328 1276 l 4331 1276 l 4331 1279 l 4331 1279 l 4336 1279 l 4342 1279 l 4342 1279 l 4342 1276 l 4342 1276 l 4344 1276 l 4344 1279 l 4344 1279 l 4344 1279 l 4347 1279 l 4347 1279 l 4347 1276 l 4344 1276 l 4344 1276 l 4344 1274 l 4344 1274 l 4342 1274 l 4342 1274 l 4342 1274 l 4342 1276 l 4336 1276 l 4333 1276 l 4333 1274 l 4333 1271 l 4331 1271 l 4328 1271 l 4328 1271 m 4353 1271 l 4353 1274 l 4356 1274 l 4358 1274 l 4358 1271 l 4358 1271 l 4356 1271 l 4353 1271 l 4353 1271 m 914 388 l 914 388 l 917 388 l 919 388 l 919 388 l 919 385 l 917 385 l 914 385 l 914 388 m 864 393 l 864 396 l 856 396 l 850 396 l 850 399 l 850 401 l 847 401 l 842 401 l 842 404 l 842 410 l 839 410 l 836 410 l 836 404 l 836 401 l 833 401 l 833 401 l 833 404 l 833 404 l 831 404 l 828 404 l 828 410 l 828 413 l 822 413 l 819 413 l 819 415 l 819 418 l 817 418 l 814 418 l 814 418 l 814 415 l 814 415 l 811 415 l 811 418 l 811 424 l 808 424 l 806 424 l 806 421 l 806 418 l 803 418 l 800 418 l 800 421 l 800 424 l 797 424 l 794 424 l 794 424 l 794 426 l 792 426 l 789 426 l 789 432 l 789 432 l 789 429 l 781 429 l 781 432 l 778 432 l 778 432 l 778 435 l 778 438 l 775 438 l 772 438 l 772 435 l 772 432 l 775 432 l 778 432 l 778 432 l 778 429 l 775 429 l 772 429 l 772 432 l 772 432 l 772 432 l 769 432 l 769 435 l 769 438 l 764 438 l 758 438 l 758 438 l 758 440 l 753 440 l 744 440 l 744 443 l 744 443 l 739 443 l 736 443 l 736 449 l 736 451 l 733 451 l 733 451 l 733 451 l 733 454 l 731 454 l 728 454 l 728 454 l 728 457 l 725 457 l 725 457 l 725 463 l 725 468 l 722 468 l 722 468 l 722 468 l 722 471 l 722 471 l 725 471 l 725 476 l 725 482 l 722 482 l 722 482 l 722 488 l 722 493 l 722 493 l 725 493 l 725 499 l 725 504 l 725 504 l 728 504 l 728 504 l 728 504 l 731 504 l 733 504 l 733 513 l 733 518 l 736 518 l 739 518 l 739 524 l 739 529 l 739 532 l 742 532 l 744 532 l 744 538 l 744 540 l 747 540 l 750 540 l 750 546 l 750 551 l 753 551 l 756 551 l 756 554 l 756 557 l 758 557 l 761 557 l 761 563 l 761 565 l 761 568 l 764 568 l 767 568 l 767 568 l 767 565 l 769 565 l 769 565 l 769 571 l 769 576 l 772 576 l 772 576 l 772 576 l 772 579 l 775 579 l 778 579 l 778 582 l 778 585 l 783 585 l 789 585 l 789 585 l 789 593 l 792 593 l 794 593 l 797 593 l 797 596 l 797 599 l 806 599 l 811 599 l 811 604 l 811 607 l 819 607 l 825 607 l 825 610 l 825 613 l 828 613 l 828 613 l 828 615 l 828 618 l 833 618 l 836 618 l 836 615 l 836 613 l 839 613 l 842 613 l 842 618 l 842 621 l 850 621 l 856 621 l 856 621 l 856 624 l 858 624 l 858 624 l 858 621 l 858 621 l 864 621 l 867 621 l 867 618 l 867 618 l 869 618 l 869 618 l 869 615 l 869 613 l 872 613 l 875 613 l 875 610 l 875 604 l 869 604 l 867 604 l 867 604 l 867 607 l 864 607 l 864 607 l 864 599 l 864 593 l 864 593 l 867 593 l 867 593 l 867 596 l 869 596 l 869 596 l 869 593 l 869 590 l 872 590 l 872 593 l 875 593 l 878 593 l 878 596 l 878 599 l 878 599 l 881 599 l 881 599 l 881 596 l 886 596 l 892 596 l 892 593 l 892 593 l 894 593 l 897 593 l 897 590 l 897 590 l 897 590 l 894 590 l 894 582 l 894 571 l 897 571 l 897 571 l 897 579 l 897 585 l 900 585 l 903 585 l 903 585 l 903 582 l 919 582 l 936 582 l 936 579 l 936 576 l 939 576 l 939 576 l 939 582 l 947 582 l 947 579 l 947 576 l 944 576 l 942 576 l 942 574 l 942 571 l 944 571 l 947 571 l 947 574 l 947 576 l 956 576 l 964 576 l 964 574 l 964 571 l 969 571 l 969 565 l 969 560 l 975 560 l 978 560 l 978 565 l 978 568 l 981 568 l 981 568 l 981 568 l 981 565 l 983 565 l 989 565 l 989 563 l 989 560 l 992 560 l 994 560 l 994 563 l 994 565 l 997 565 l 997 565 l 997 557 l 997 551 l 1000 551 l 1003 551 l 1003 554 l 1003 557 l 1006 557 l 1008 557 l 1008 560 l 1008 560 l 1011 560 l 1014 560 l 1014 560 l 1014 557 l 1014 557 l 1017 557 l 1017 557 l 1017 554 l 1014 554 l 1014 554 l 1014 551 l 1014 549 l 1017 549 l 1019 549 l 1019 549 l 1019 551 l 1025 551 l 1031 551 l 1031 546 l 1031 540 l 1036 540 l 1036 546 l 1036 549 l 1039 549 l 1039 549 l 1039 543 l 1039 538 l 1042 538 l 1044 538 l 1044 540 l 1044 540 l 1044 540 l 1047 540 l 1047 538 l 1047 532 l 1050 532 l 1053 532 l 1053 532 l 1053 532 l 1056 532 l 1058 532 l 1058 532 l 1058 532 l 1061 532 l 1064 532 l 1064 532 l 1064 532 l 1067 532 l 1067 532 l 1067 529 l 1067 526 l 1069 526 l 1072 526 l 1072 521 l 1072 515 l 1075 515 l 1078 515 l 1078 510 l 1078 504 l 1081 504 l 1083 504 l 1083 504 l 1083 504 l 1081 504 l 1078 504 l 1078 504 l 1078 504 l 1072 504 l 1067 504 l 1067 504 l 1067 504 l 1072 504 l 1078 504 l 1078 499 l 1078 493 l 1075 493 l 1075 493 l 1075 490 l 1075 488 l 1078 488 l 1083 488 l 1083 496 l 1083 504 l 1083 504 l 1086 504 l 1086 507 l 1086 510 l 1086 510 l 1089 510 l 1089 504 l 1089 499 l 1086 499 l 1086 499 l 1086 496 l 1086 493 l 1092 493 l 1100 493 l 1103 493 l 1103 485 l 1106 485 l 1106 482 l 1106 476 l 1103 476 l 1103 476 l 1103 476 l 1103 479 l 1100 479 l 1094 479 l 1094 476 l 1094 476 l 1094 476 l 1092 476 l 1092 474 l 1092 471 l 1089 471 l 1086 471 l 1086 474 l 1086 476 l 1089 476 l 1089 482 l 1089 482 l 1089 482 l 1086 482 l 1086 479 l 1086 479 l 1086 479 l 1083 479 l 1083 474 l 1083 471 l 1083 468 l 1086 468 l 1092 468 l 1092 465 l 1092 465 l 1094 465 l 1094 465 l 1094 463 l 1094 460 l 1089 460 l 1086 460 l 1086 460 l 1086 457 l 1086 457 l 1089 457 l 1089 454 l 1089 454 l 1086 454 l 1086 454 l 1086 454 l 1086 449 l 1072 449 l 1072 457 l 1075 457 l 1078 457 l 1078 454 l 1078 454 l 1081 454 l 1083 454 l 1083 457 l 1083 460 l 1078 460 l 1075 460 l 1075 463 l 1075 465 l 1072 465 l 1072 465 l 1072 460 l 1072 457 l 1069 457 l 1067 457 l 1067 449 l 1067 440 l 1064 440 l 1061 440 l 1061 438 l 1061 438 l 1058 438 l 1058 438 l 1058 440 l 1058 443 l 1056 443 l 1053 443 l 1053 446 l 1053 449 l 1050 449 l 1044 449 l 1044 443 l 1044 440 l 1042 440 l 1039 440 l 1039 438 l 1039 438 l 1044 438 l 1047 438 l 1047 432 l 1047 429 l 1042 429 l 1036 429 l 1036 432 l 1036 432 l 1036 432 l 1033 432 l 1033 432 l 1033 429 l 1031 429 l 1031 429 l 1031 429 l 1031 426 l 1028 426 l 1025 426 l 1025 424 l 1025 424 l 1022 424 l 1017 424 l 1017 424 l 1017 426 l 1014 426 l 1014 426 l 1014 424 l 1014 424 l 1006 424 l 997 424 l 997 418 l 997 415 l 1000 415 l 1003 415 l 1003 418 l 1003 418 l 1003 418 l 1008 418 l 1008 413 l 1008 413 l 1008 413 l 1006 413 l 1006 415 l 1006 415 l 1003 415 l 1003 415 l 1003 413 l 1003 410 l 1000 410 l 997 410 l 997 407 l 997 404 l 1000 404 l 1003 404 l 1003 401 l 1003 399 l 1000 399 l 997 399 l 997 401 l 997 404 l 997 404 l 994 404 l 994 410 l 994 415 l 994 415 l 992 415 l 992 415 l 992 413 l 989 413 l 989 413 l 989 404 l 989 396 l 986 396 l 986 396 l 986 399 l 986 401 l 978 401 l 969 401 l 969 401 l 969 399 l 967 399 l 964 399 l 964 399 l 964 396 l 961 396 l 958 396 l 958 399 l 958 399 l 953 399 l 947 399 l 947 401 l 947 401 l 944 401 l 942 401 l 942 404 l 942 404 l 942 404 l 939 404 l 939 410 l 939 413 l 939 413 l 936 413 l 936 410 l 936 410 l 933 410 l 933 410 l 933 407 l 933 404 l 931 404 l 931 404 l 931 404 l 931 401 l 925 401 l 919 401 l 919 401 l 919 399 l 936 399 l 936 399 l 936 396 l 939 396 l 939 396 l 939 393 l 939 390 l 939 390 l 936 390 l 936 390 l 936 388 l 933 388 l 931 388 l 931 390 l 931 390 l 933 390 l 936 390 l 936 393 l 936 396 l 931 396 l 925 396 l 925 393 l 925 390 l 922 390 l 922 390 l 922 393 l 922 396 l 919 396 l 914 396 l 914 393 l 914 390 l 914 390 l 914 390 l 914 393 l 914 396 l 911 396 l 908 396 l 908 393 l 908 390 l 906 390 l 906 390 l 906 393 l 906 396 l 903 396 l 903 396 l 903 404 l 903 413 l 897 413 l 894 413 l 894 410 l 894 404 l 897 404 l 897 404 l 897 404 l 897 401 l 894 401 l 892 401 l 892 401 l 892 399 l 894 399 l 897 399 l 897 399 l 897 396 l 900 396 l 903 396 l 903 393 l 903 390 l 897 390 l 894 390 l 894 393 l 894 396 l 892 396 l 889 396 l 889 399 l 889 401 l 883 401 l 881 401 l 881 401 l 881 399 l 878 399 l 878 399 l 878 399 l 878 396 l 875 396 l 875 396 l 875 393 l 875 390 l 872 390 l 869 390 l 869 393 l 869 396 l 869 396 l 867 396 l 867 393 l 867 388 l 864 388 l 864 388 l 864 393 m 856 399 l 856 401 l 858 401 l 858 401 l 858 404 l 858 404 l 861 404 l 864 404 l 864 410 l 864 413 l 861 413 l 858 413 l 858 410 l 858 410 l 858 410 l 856 410 l 856 407 l 856 404 l 856 404 l 853 404 l 853 401 l 853 399 l 856 399 l 856 399 m 914 401 l 914 401 l 911 401 l 908 401 l 908 401 l 908 399 l 911 399 l 914 399 l 914 401 m 969 404 l 969 404 l 967 404 l 964 404 l 964 404 l 964 401 l 967 401 l 969 401 l 969 404 m 922 407 l 922 410 l 919 410 l 919 410 l 919 407 l 919 404 l 919 404 l 922 404 l 922 407 m 950 407 l 950 410 l 947 410 l 947 410 l 947 407 l 947 404 l 947 404 l 950 404 l 950 407 m 981 410 l 981 415 l 981 415 l 978 415 l 978 410 l 978 404 l 981 404 l 981 404 l 981 410 m 936 415 l 936 415 l 933 415 l 933 415 l 933 415 l 933 413 l 933 413 l 936 413 l 936 415 m 964 424 l 964 426 l 961 426 l 958 426 l 958 424 l 958 424 l 961 424 l 964 424 l 964 424 m 903 432 l 903 432 l 908 432 l 914 432 l 914 432 l 914 429 l 922 429 l 933 429 l 933 432 l 933 432 l 936 432 l 939 432 l 939 432 l 939 429 l 947 429 l 953 429 l 953 432 l 953 432 l 956 432 l 958 432 l 958 438 l 958 440 l 958 440 l 958 438 l 953 438 l 950 438 l 950 438 l 950 440 l 947 440 l 947 440 l 947 438 l 947 438 l 936 438 l 925 438 l 925 438 l 925 440 l 928 440 l 931 440 l 931 443 l 931 443 l 933 443 l 936 443 l 936 443 l 936 440 l 939 440 l 942 440 l 942 443 l 942 449 l 944 449 l 947 449 l 947 449 l 947 451 l 950 451 l 953 451 l 953 451 l 953 454 l 956 454 l 958 454 l 958 451 l 958 449 l 958 449 l 958 449 l 958 446 l 958 443 l 961 443 l 964 443 l 964 449 l 964 451 l 961 451 l 958 451 l 958 451 l 958 454 l 964 454 l 967 454 l 967 451 l 967 449 l 969 449 l 969 451 l 972 451 l 975 451 l 975 451 l 975 454 l 978 454 l 981 454 l 981 454 l 981 457 l 983 457 l 986 457 l 986 460 l 986 460 l 986 460 l 989 460 l 989 465 l 989 468 l 989 468 l 992 468 l 992 465 l 992 460 l 994 460 l 994 460 l 994 463 l 994 465 l 1000 465 l 1003 465 l 1003 465 l 1003 468 l 1006 468 l 1008 468 l 1008 471 l 1008 476 l 1011 476 l 1014 476 l 1014 471 l 1014 468 l 1014 468 l 1017 468 l 1017 471 l 1017 476 l 1019 476 l 1022 476 l 1022 476 l 1022 479 l 1028 479 l 1033 479 l 1033 479 l 1033 482 l 1031 482 l 1031 482 l 1031 485 l 1031 485 l 1022 485 l 1017 485 l 1017 488 l 1017 488 l 1022 488 l 1025 488 l 1025 490 l 1025 493 l 1022 493 l 1019 493 l 1019 493 l 1019 496 l 1022 496 l 1022 496 l 1022 499 l 1022 499 l 1017 499 l 1014 499 l 1014 507 l 1014 513 l 1008 513 l 1006 513 l 1006 515 l 1006 515 l 1003 515 l 1003 515 l 1003 518 l 1003 521 l 1000 521 l 994 521 l 994 526 l 994 526 l 992 526 l 992 524 l 992 524 l 989 524 l 989 524 l 989 526 l 989 532 l 986 532 l 983 532 l 978 532 l 978 538 l 972 538 l 967 538 l 967 540 l 967 540 l 964 540 l 958 540 l 958 543 l 958 543 l 953 543 l 947 543 l 947 549 l 947 551 l 944 551 l 942 551 l 942 549 l 942 549 l 931 549 l 919 549 l 919 549 l 919 551 l 911 551 l 903 551 l 903 549 l 903 543 l 900 543 l 897 543 l 897 546 l 897 549 l 892 549 l 889 549 l 889 546 l 889 543 l 883 543 l 881 543 l 881 543 l 881 540 l 878 540 l 878 540 l 878 543 l 875 543 l 875 543 l 875 540 l 875 538 l 869 538 l 867 538 l 867 535 l 867 532 l 864 532 l 858 532 l 858 532 l 858 532 l 858 532 l 856 532 l 856 529 l 856 526 l 853 526 l 850 526 l 850 524 l 850 521 l 847 521 l 847 521 l 847 518 l 847 513 l 842 513 l 839 513 l 839 507 l 839 504 l 839 504 l 836 504 l 836 501 l 836 499 l 839 499 l 839 499 l 839 493 l 839 488 l 842 488 l 842 488 l 842 488 l 842 485 l 842 485 l 839 485 l 839 485 l 839 482 l 842 482 l 842 482 l 842 476 l 842 471 l 844 471 l 847 471 l 847 465 l 853 465 l 853 463 l 853 460 l 856 460 l 856 460 l 856 460 l 856 457 l 864 457 l 869 457 l 869 454 l 869 454 l 869 454 l 867 454 l 867 451 l 867 451 l 869 451 l 869 451 l 869 449 l 869 449 l 878 449 l 889 449 l 889 446 l 889 443 l 889 443 l 892 443 l 892 440 l 892 438 l 889 438 l 889 438 l 889 440 l 889 443 l 883 443 l 878 443 l 878 443 l 878 440 l 878 440 l 881 440 l 881 438 l 881 438 l 883 438 l 889 438 l 889 435 l 889 432 l 892 432 l 897 432 l 897 432 l 897 429 l 900 429 l 903 429 l 903 432 m 897 438 l 897 440 l 897 440 l 894 440 l 894 446 l 894 451 l 892 451 l 892 451 l 892 451 l 892 454 l 889 454 l 886 454 l 886 454 l 886 457 l 883 457 l 881 457 l 881 460 l 881 460 l 878 460 l 878 460 l 878 463 l 878 465 l 875 465 l 875 465 l 875 468 l 875 471 l 872 471 l 869 471 l 869 474 l 869 479 l 869 479 l 867 479 l 867 482 l 867 488 l 864 488 l 864 488 l 864 490 l 864 493 l 864 493 l 867 493 l 867 501 l 867 510 l 869 510 l 869 510 l 869 513 l 869 515 l 872 515 l 875 515 l 875 518 l 875 524 l 875 524 l 878 524 l 878 524 l 878 526 l 878 526 l 881 526 l 881 529 l 881 532 l 883 532 l 889 532 l 889 535 l 889 538 l 894 538 l 903 538 l 903 540 l 903 540 l 911 540 l 922 540 l 922 540 l 922 538 l 925 538 l 931 538 l 931 535 l 931 532 l 933 532 l 936 532 l 936 532 l 936 532 l 939 532 l 939 532 l 939 529 l 939 526 l 942 526 l 942 526 l 942 524 l 942 524 l 944 524 l 947 524 l 947 518 l 947 515 l 939 515 l 933 515 l 931 515 l 931 510 l 931 510 l 928 510 l 925 510 l 925 504 l 925 499 l 928 499 l 931 499 l 931 499 l 931 496 l 936 496 l 939 496 l 939 499 l 939 499 l 944 499 l 947 499 l 947 501 l 947 504 l 947 504 l 950 504 l 950 507 l 950 510 l 953 510 l 953 510 l 953 507 l 953 504 l 956 504 l 958 504 l 958 493 l 958 485 l 956 485 l 953 485 l 953 482 l 953 476 l 953 476 l 950 476 l 950 471 l 950 468 l 947 468 l 947 468 l 947 465 l 947 460 l 944 460 l 942 460 l 942 454 l 936 454 l 936 451 l 936 449 l 928 449 l 922 449 l 922 446 l 922 443 l 919 443 l 919 443 l 919 446 l 919 449 l 911 449 l 903 449 l 903 446 l 903 443 l 900 443 l 897 443 l 897 443 l 897 440 l 900 440 l 903 440 l 903 443 l 903 443 l 906 443 l 908 443 l 908 443 l 908 440 l 906 440 l 906 440 l 906 438 l 906 438 l 903 438 l 897 438 l 897 438 m 914 438 l 914 440 l 917 440 l 919 440 l 919 438 l 919 438 l 917 438 l 914 438 l 914 438 m 969 435 l 969 438 l 967 438 l 964 438 l 964 435 l 964 432 l 967 432 l 969 432 l 969 435 m 975 443 l 975 443 l 972 443 l 969 443 l 969 443 l 969 440 l 972 440 l 975 440 l 975 443 m 1033 443 l 1033 443 l 1031 443 l 1031 443 l 1031 443 l 1031 440 l 1031 440 l 1033 440 l 1033 443 m 997 446 l 997 449 l 1000 449 l 1003 449 l 1003 449 l 1003 451 l 994 451 l 994 443 l 997 443 l 997 443 l 997 446 m 1017 449 l 1017 451 l 1014 451 l 1008 451 l 1008 449 l 1008 449 l 1014 449 l 1017 449 l 1017 449 m 1064 449 l 1064 451 l 1061 451 l 1058 451 l 1058 449 l 1058 449 l 1061 449 l 1064 449 l 1064 449 m 1053 457 l 1047 457 l 1047 454 l 1047 451 l 1050 451 l 1053 451 l 1053 457 m 1022 454 l 1022 457 l 1019 457 l 1017 457 l 1017 454 l 1017 454 l 1019 454 l 1022 454 l 1022 454 m 1033 457 l 1033 460 l 1031 460 l 1031 460 l 1031 463 l 1031 465 l 1033 465 l 1036 465 l 1036 460 l 1036 457 l 1039 457 l 1039 457 l 1039 460 l 1039 465 l 1039 465 l 1036 465 l 1036 468 l 1036 471 l 1039 471 l 1039 471 l 1039 474 l 1039 476 l 1036 476 l 1031 476 l 1031 474 l 1031 471 l 1031 471 l 1033 471 l 1033 468 l 1033 468 l 1031 468 l 1031 468 l 1031 465 l 1031 465 l 1028 465 l 1025 465 l 1025 465 l 1025 468 l 1022 468 l 1019 468 l 1019 465 l 1019 465 l 1022 465 l 1025 465 l 1025 460 l 1025 454 l 1031 454 l 1033 454 l 1033 457 m 1006 463 l 1006 465 l 1003 465 l 1003 465 l 1003 463 l 1003 460 l 1003 460 l 1006 460 l 1006 463 m 1050 465 l 1050 468 l 1050 468 l 1047 468 l 1047 465 l 1047 460 l 1050 460 l 1050 460 l 1050 465 m 1072 468 l 1072 471 l 1067 471 l 1064 471 l 1064 468 l 1064 468 l 1067 468 l 1072 468 l 1072 468 m 836 479 l 836 482 l 833 482 l 833 482 l 833 479 l 833 479 l 833 479 l 836 479 l 836 479 m 1100 485 l 1100 488 l 1097 488 l 1094 488 l 1094 485 l 1094 482 l 1097 482 l 1100 482 l 1100 485 m 1067 493 l 1067 496 l 1064 496 l 1061 496 l 1061 493 l 1061 493 l 1064 493 l 1067 493 l 1067 493 m 1039 501 l 1039 504 l 1039 504 l 1036 504 l 1036 501 l 1036 499 l 1039 499 l 1039 499 l 1039 501 m 1061 504 l 1061 504 l 1058 504 l 1058 504 l 1058 504 l 1058 504 l 1058 504 l 1061 504 l 1061 504 m 1075 513 l 1075 513 l 1069 513 l 1064 513 l 1064 513 l 1064 510 l 1069 510 l 1075 510 l 1075 513 m 1050 515 l 1050 515 l 1050 515 l 1047 515 l 1047 515 l 1047 513 l 1050 513 l 1050 513 l 1050 515 m 1017 518 l 1017 521 l 1017 521 l 1019 521 l 1019 518 l 1019 515 l 1022 515 l 1025 515 l 1025 521 l 1019 521 l 1019 524 l 1019 526 l 1017 526 l 1017 526 l 1017 524 l 1017 524 l 1014 524 l 1014 524 l 1014 518 l 1014 515 l 1014 515 l 1017 515 l 1017 518 m 1058 518 l 1058 521 l 1058 521 l 1061 521 l 1061 526 l 1061 532 l 1058 532 l 1058 532 l 1058 529 l 1058 526 l 1056 526 l 1053 526 l 1053 521 l 1053 515 l 1056 515 l 1058 515 l 1058 518 m 1008 524 l 1008 526 l 1011 526 l 1014 526 l 1014 529 l 1014 532 l 1006 532 l 1006 538 l 1003 538 l 1003 538 l 1003 540 l 1003 540 l 1000 540 l 997 540 l 997 540 l 997 538 l 997 538 l 994 538 l 994 540 l 994 540 l 989 540 l 986 540 l 986 540 l 986 538 l 989 538 l 992 538 l 992 535 l 992 532 l 994 532 l 997 532 l 997 532 l 997 532 l 1000 532 l 1003 532 l 1003 526 l 1003 524 l 1006 524 l 1008 524 l 1008 524 m 1044 524 l 1044 526 l 1042 526 l 1039 526 l 1039 524 l 1039 524 l 1042 524 l 1044 524 l 1044 524 m 1067 524 l 1067 526 l 1067 526 l 1064 526 l 1064 524 l 1064 524 l 1067 524 l 1067 524 l 1067 524 m 1033 535 l 1033 538 l 1031 538 l 1031 538 l 1031 535 l 1031 532 l 1031 532 l 1033 532 l 1033 535 m 1025 540 l 1025 540 l 1025 540 l 1022 540 l 1022 540 l 1022 538 l 1025 538 l 1025 538 l 1025 540 m 978 546 l 978 549 l 981 549 l 986 549 l 986 546 l 986 543 l 986 543 l 989 543 l 989 546 l 989 549 l 986 549 l 986 549 l 986 549 l 986 551 l 981 551 l 978 551 l 978 554 l 978 554 l 975 554 l 969 554 l 969 557 l 969 557 l 967 557 l 964 557 l 964 560 l 964 560 l 961 560 l 958 560 l 958 560 l 958 557 l 956 557 l 950 557 l 950 560 l 950 560 l 947 560 l 947 560 l 947 557 l 947 554 l 953 554 l 958 554 l 958 554 l 958 551 l 961 551 l 964 551 l 964 549 l 964 549 l 967 549 l 967 549 l 967 549 l 967 551 l 969 551 l 969 551 l 969 549 l 969 549 l 972 549 l 975 549 l 975 546 l 975 543 l 975 543 l 978 543 l 978 546 m 1008 549 l 1008 551 l 1008 551 l 1006 551 l 1006 549 l 1006 543 l 1008 543 l 1008 543 l 1008 549 m 1025 546 l 1025 549 l 1025 549 l 1022 549 l 1022 546 l 1022 543 l 1025 543 l 1025 543 l 1025 546 m 886 554 l 886 557 l 883 557 l 881 557 l 881 554 l 881 551 l 883 551 l 886 551 l 886 554 m 878 557 l 878 557 l 875 557 l 875 557 l 875 557 l 875 554 l 875 554 l 878 554 l 878 557 m 894 557 l 894 557 l 894 560 l 894 563 l 894 565 l 892 565 l 892 565 l 892 563 l 892 560 l 889 560 l 889 560 l 889 560 l 889 557 l 889 557 l 892 557 l 892 557 l 892 554 l 892 554 l 894 554 l 894 557 m 914 560 l 914 565 l 908 565 l 906 565 l 906 563 l 906 560 l 903 560 l 897 560 l 897 557 l 897 554 l 906 554 l 914 554 l 914 560 m 925 557 l 925 557 l 922 557 l 922 557 l 922 557 l 922 554 l 922 554 l 925 554 l 925 557 m 942 554 l 942 560 l 939 560 l 933 560 l 931 560 l 931 560 l 933 560 l 933 557 l 933 554 l 939 554 l 942 554 l 942 554 m 994 557 l 994 557 l 994 557 l 992 557 l 992 557 l 992 554 l 994 554 l 994 554 l 994 557 m 933 568 l 933 568 l 931 568 l 931 568 l 931 568 l 931 565 l 931 565 l 933 565 l 933 568 m 925 571 l 925 571 l 922 571 l 922 571 l 922 574 l 922 576 l 922 576 l 925 576 l 925 576 l 925 579 l 922 579 l 919 579 l 919 576 l 919 576 l 917 576 l 914 576 l 914 574 l 914 571 l 919 571 l 922 571 l 922 571 l 922 568 l 922 568 l 925 568 l 925 571 m 867 574 l 867 576 l 864 576 l 864 576 l 864 574 l 864 571 l 864 571 l 867 571 l 867 574 m 933 574 l 933 576 l 931 576 l 931 576 l 931 574 l 931 571 l 931 571 l 933 571 l 933 574 m 833 576 l 833 579 l 831 579 l 828 579 l 828 582 l 828 582 l 825 582 l 825 579 l 825 579 l 828 579 l 828 576 l 828 576 l 831 576 l 833 576 l 833 576 m 850 576 l 850 579 l 847 579 l 847 579 l 847 576 l 847 576 l 847 576 l 850 576 l 850 576 m 906 576 l 906 579 l 903 579 l 903 579 l 903 576 l 903 576 l 903 576 l 906 576 l 906 576 m 842 582 l 842 582 l 847 582 l 850 582 l 850 585 l 850 585 l 847 585 l 847 585 l 847 588 l 847 590 l 853 590 l 858 590 l 858 588 l 858 585 l 856 585 l 853 585 l 853 585 l 853 582 l 858 582 l 864 582 l 864 585 l 864 585 l 864 585 l 867 585 l 867 588 l 867 590 l 864 590 l 858 590 l 858 590 l 858 593 l 858 593 l 856 593 l 856 593 l 856 596 l 856 596 l 853 596 l 853 593 l 853 593 l 847 593 l 842 593 l 842 590 l 842 590 l 836 590 l 828 590 l 828 588 l 828 585 l 831 585 l 833 585 l 833 585 l 833 582 l 833 582 l 836 582 l 836 585 l 836 585 l 839 585 l 839 585 l 839 582 l 839 579 l 842 579 l 842 579 l 842 582 m 869 585 l 869 585 l 869 585 l 867 585 l 867 585 l 867 582 l 869 582 l 869 582 l 869 585 m 881 588 l 881 590 l 878 590 l 875 590 l 875 588 l 875 585 l 878 585 l 881 585 l 881 588 m 892 588 l 892 590 l 889 590 l 889 590 l 889 593 l 886 593 l 886 590 l 886 585 l 889 585 l 892 585 l 892 588 m 819 593 l 819 596 l 817 596 l 814 596 l 814 593 l 814 593 l 817 593 l 819 593 l 819 593 m 839 599 l 839 604 l 839 604 l 836 604 l 836 601 l 836 599 l 833 599 l 833 599 l 833 599 l 833 596 l 836 596 l 839 596 l 839 599 m 847 599 l 847 599 l 844 599 l 842 599 l 842 599 l 842 596 l 844 596 l 847 596 l 847 599 m 858 613 l 858 613 l 858 613 l 856 613 l 856 613 l 856 610 l 858 610 l 858 610 l 858 613 m 958 390 l 958 390 l 961 390 l 964 390 l 964 390 l 964 388 l 961 388 l 958 388 l 958 390 m 969 390 l 969 390 l 972 390 l 975 390 l 975 390 l 975 388 l 972 388 l 969 388 l 969 390 m 878 393 l 878 396 l 878 396 l 881 396 l 881 393 l 881 390 l 878 390 l 878 390 l 878 393 m 936 404 l 936 404 l 939 404 l 939 404 l 939 404 l 939 401 l 939 401 l 936 401 l 936 404 m 1014 415 l 1014 418 l 1022 418 l 1022 418 l 1022 418 l 1022 415 l 1022 415 l 1019 415 l 1019 415 l 1019 413 l 1017 413 l 1014 413 l 1014 415 m 1031 424 l 1031 426 l 1031 426 l 1033 426 l 1033 424 l 1033 424 l 1031 424 l 1031 424 l 1031 424 m 1050 440 l 1050 440 l 1047 440 l 1047 443 l 1047 443 l 1050 443 l 1050 443 l 1050 443 l 1050 440 m 728 449 l 728 451 l 731 451 l 733 451 l 733 449 l 733 449 l 731 449 l 728 449 l 728 449 m 1103 468 l 1103 471 l 1103 471 l 1106 471 l 1106 468 l 1106 468 l 1103 468 l 1103 468 l 1103 468 m 1094 474 l 1094 476 l 1097 476 l 1100 476 l 1100 474 l 1100 471 l 1097 471 l 1094 471 l 1094 474 m 1117 479 l 1117 482 l 1117 482 l 1119 482 l 1119 479 l 1119 479 l 1117 479 l 1117 479 l 1117 479 m 1092 504 l 1092 504 l 1094 504 l 1094 504 l 1094 507 l 1094 510 l 1097 510 l 1100 510 l 1100 507 l 1100 504 l 1097 504 l 1094 504 l 1094 504 l 1094 504 l 1094 504 l 1092 504 l 1092 504 m 1092 515 l 1092 515 l 1094 515 l 1094 515 l 1094 515 l 1094 513 l 1094 513 l 1092 513 l 1092 515 m 1047 546 l 1047 549 l 1050 549 l 1050 549 l 1050 546 l 1050 543 l 1050 543 l 1047 543 l 1047 546 m 1008 568 l 1008 568 l 1011 568 l 1014 568 l 1014 568 l 1014 565 l 1011 565 l 1008 565 l 1008 568 m 869 618 l 869 621 l 869 621 l 867 621 l 867 621 l 867 624 l 869 624 l 875 624 l 875 626 l 875 629 l 881 629 l 886 629 l 886 626 l 886 624 l 886 624 l 889 624 l 889 626 l 889 629 l 889 629 l 892 629 l 892 626 l 892 624 l 889 624 l 889 624 l 889 621 l 889 621 l 886 621 l 886 621 l 886 621 l 886 624 l 881 624 l 878 624 l 878 621 l 878 618 l 872 618 l 869 618 l 869 618 m 897 618 l 897 621 l 900 621 l 903 621 l 903 618 l 903 618 l 900 618 l 897 618 l 897 618 m 88 0 l 88 760 l 190 760 l 190 672 q 283 753 233 729 q 404 778 332 778 q 549 743 489 778 q 653 632 608 708 q 917 779 746 779 q 1154 671 1072 779 q 1215 451 1215 594 l 1215 0 l 1113 0 l 1113 440 q 1071 613 1113 554 q 911 685 1017 685 q 739 597 796 685 q 703 440 703 544 l 703 0 l 600 0 l 600 443 q 553 614 600 558 q 394 683 494 683 q 244 620 299 683 q 190 443 190 557 l 190 0 l 88 0 z "},"n":{"ha":847,"x_min":88,"x_max":760,"o":"m 88 0 l 88 760 l 190 760 l 190 661 q 435 778 286 778 q 693 660 599 778 q 744 553 729 611 q 760 399 760 494 l 760 0 l 657 0 l 657 399 q 607 601 657 536 q 422 683 540 683 q 231 590 294 683 q 190 418 190 531 l 190 0 l 88 0 z "},"o":{"ha":910,"x_min":58,"x_max":851,"o":"m 457 778 q 740 665 628 778 q 851 378 851 551 q 742 94 851 207 q 465 -18 632 -18 q 174 96 289 -18 q 58 385 58 210 q 173 665 58 551 q 457 778 288 778 m 457 683 q 247 597 331 683 q 163 382 163 511 q 247 163 163 249 q 463 76 332 76 q 667 161 586 76 q 747 376 747 246 q 665 596 747 508 q 457 683 582 683 z "},"p":{"ha":947,"x_min":88,"x_max":889,"o":"m 88 760 l 190 760 l 190 629 q 489 778 289 778 q 774 663 658 778 q 889 378 889 547 q 772 97 889 211 q 486 -18 656 -18 q 190 131 292 -18 l 190 -267 l 88 -267 l 88 760 m 485 683 q 271 597 358 683 q 183 383 183 510 q 269 164 183 251 q 486 76 356 76 q 699 163 613 76 q 785 378 785 250 q 699 596 785 508 q 485 683 613 683 z "},"q":{"ha":947,"x_min":58,"x_max":860,"o":"m 860 760 l 860 -267 l 757 -267 l 757 131 q 461 -18 656 -18 q 175 97 292 -18 q 58 379 58 211 q 174 663 58 549 q 458 778 289 778 q 757 629 660 778 l 757 760 l 860 760 m 463 683 q 249 596 335 683 q 163 378 163 508 q 249 163 163 250 q 463 76 335 76 q 676 163 589 76 q 764 375 764 250 q 678 595 764 507 q 463 683 592 683 z "},"r":{"ha":418,"x_min":88,"x_max":406,"o":"m 88 0 l 88 760 l 190 760 l 190 651 q 272 744 221 714 q 406 778 324 774 l 406 676 q 190 443 190 656 l 190 0 l 88 0 z "},"s":{"ha":539,"x_min":25,"x_max":3435,"o":"m 3149 -118 l 3193 -315 l 3238 -324 l 3382 -229 l 3413 -140 l 3401 -65 l 3224 13 l 3149 -118 m 3124 -112 l 3215 38 l 3421 -51 l 3435 -140 l 3399 -240 l 3243 -346 l 3174 -332 l 3124 -112 m 364 1194 l 408 997 l 456 989 l 597 1083 l 631 1172 l 617 1244 l 439 1322 l 364 1194 m 342 1197 l 431 1350 l 636 1261 l 650 1169 l 614 1069 l 458 967 l 389 978 l 342 1197 m 411 -372 l 383 -372 l 253 -64 l 283 -64 l 411 -372 m 608 -622 l 581 -622 l 450 -314 l 481 -314 l 608 -622 m 25 224 l 126 224 q 168 115 131 154 q 269 76 206 76 q 329 90 303 76 l 303 153 l 333 153 l 351 106 q 361 114 357 110 q 397 208 397 151 q 349 307 397 274 q 250 354 315 329 q 151 398 168 389 q 110 428 133 407 q 53 564 53 481 q 114 717 53 657 q 268 778 175 778 q 419 721 360 778 q 482 572 479 664 l 378 572 q 267 683 369 683 q 189 651 221 683 q 157 574 157 619 q 226 474 157 508 q 369 413 238 468 q 501 218 501 357 q 436 47 501 114 q 390 13 415 26 l 461 -156 l 433 -156 l 367 0 q 269 -18 324 -18 q 93 48 160 -18 q 25 224 26 114 z "},"t":{"ha":471,"x_min":17,"x_max":2896,"o":"m 600 -708 q 636 -697 619 -708 q 753 -667 694 -661 q 697 -619 675 -658 l 733 -550 l 739 -550 l 733 -656 l 775 -567 l 778 -567 l 778 -650 l 819 -578 l 819 -644 l 850 -592 l 858 -628 q 872 -644 861 -644 q 883 -642 878 -644 l 900 -628 l 911 -633 q 899 -643 906 -636 q 889 -651 892 -650 q 881 -656 886 -653 q 867 -658 875 -658 q 851 -651 856 -658 q 844 -622 847 -644 l 811 -678 l 808 -614 l 767 -692 l 767 -608 l 725 -700 l 722 -700 l 725 -592 l 700 -639 l 678 -672 l 653 -700 l 628 -714 l 597 -719 q 554 -700 567 -719 q 542 -657 542 -681 q 553 -606 542 -633 q 588 -556 564 -578 q 639 -533 611 -533 q 669 -546 658 -533 q 681 -578 681 -558 q 661 -639 681 -608 q 614 -669 642 -669 q 593 -658 600 -669 q 586 -636 586 -647 q 597 -608 586 -619 q 617 -597 608 -597 q 633 -619 633 -597 q 624 -642 633 -631 q 606 -653 614 -653 l 603 -653 q 617 -656 608 -656 q 653 -631 636 -656 q 669 -581 669 -606 q 661 -557 669 -567 q 636 -547 653 -547 q 581 -582 606 -547 q 556 -653 556 -617 q 558 -678 556 -667 q 572 -699 561 -689 q 600 -708 583 -708 m 619 -619 q 614 -611 619 -611 q 603 -618 608 -611 q 597 -633 597 -625 q 606 -642 597 -642 l 606 -642 q 615 -635 611 -642 q 619 -619 619 -628 m 2690 1856 l 2690 2061 l 2896 1958 l 2690 1856 m 2690 1439 l 2690 1647 l 2896 1544 l 2690 1439 m 2690 1647 l 2690 1856 l 2896 1750 l 2690 1647 m 989 -233 l 989 -25 l 1197 -131 l 989 -233 m 783 -131 l 783 78 l 989 -25 l 783 -131 m 181 0 l 181 667 l 17 667 l 17 760 l 181 760 l 181 1026 l 283 1026 l 283 760 l 454 760 l 454 667 l 283 667 l 283 0 l 181 0 z "},"u":{"ha":844,"x_min":88,"x_max":757,"o":"m 757 760 l 757 0 l 654 0 l 654 118 q 410 -18 581 -18 q 147 103 235 -18 q 88 350 88 185 l 88 760 l 190 760 l 190 350 q 226 172 190 232 q 303 101 253 126 q 418 76 354 76 q 608 171 540 76 q 654 369 654 239 l 654 760 l 757 760 z "},"v":{"ha":769,"x_min":11,"x_max":758,"o":"m 331 0 l 11 760 l 115 760 l 382 121 l 654 760 l 758 760 l 439 0 l 331 0 z "},"w":{"ha":1154,"x_min":10,"x_max":1144,"o":"m 300 0 l 10 760 l 113 760 l 354 124 l 533 667 l 618 667 l 797 124 l 1044 760 l 1144 760 l 850 0 l 740 0 l 575 504 l 411 0 l 300 0 z "},"x":{"ha":667,"x_min":11,"x_max":656,"o":"m 11 0 l 275 388 l 11 760 l 128 760 l 333 467 l 538 760 l 656 760 l 390 388 l 656 0 l 538 0 l 333 304 l 128 0 l 11 0 z "},"y":{"ha":744,"x_min":13,"x_max":732,"o":"m 183 -267 l 307 25 l 13 760 l 125 760 l 365 154 l 622 760 l 732 760 l 293 -267 l 183 -267 z "},"z":{"ha":590,"x_min":14,"x_max":576,"o":"m 14 0 l 14 93 l 433 667 l 28 667 l 28 760 l 550 760 l 550 672 l 135 93 l 576 93 l 576 0 l 14 0 z "},"{":{"ha":488,"x_min":51,"x_max":376,"o":"m 268 835 l 268 599 q 247 491 268 526 q 169 435 225 456 q 144 425 153 429 q 169 417 167 417 q 247 360 226 394 q 268 253 268 325 l 268 17 q 287 -56 268 -36 q 361 -81 306 -75 l 376 -82 l 376 -175 q 278 -168 307 -174 q 225 -146 250 -162 q 161 18 161 -104 l 161 254 q 140 342 161 318 q 51 378 119 365 l 51 474 q 140 508 119 485 q 161 597 161 532 l 161 833 q 225 997 161 956 q 278 1019 250 1014 q 376 1026 306 1024 l 376 933 q 300 919 314 926 q 268 835 268 903 z "},"|":{"ha":933,"x_min":422,"x_max":511,"o":"m 511 1026 l 511 0 l 422 0 l 422 1026 l 511 1026 z "},"}":{"ha":488,"x_min":53,"x_max":374,"o":"m 161 17 l 161 253 q 182 360 161 325 q 260 417 203 394 q 285 425 263 417 q 260 435 276 429 q 182 492 203 457 q 161 599 161 526 l 161 835 q 142 910 161 886 q 68 932 128 926 l 53 933 l 53 1026 q 167 1015 133 1024 q 228 978 201 1006 q 268 833 268 935 l 268 597 q 288 508 268 532 q 374 474 308 485 l 374 378 q 288 343 308 367 q 268 254 268 319 l 268 18 q 221 -133 268 -90 q 161 -165 194 -157 q 53 -175 128 -174 l 53 -82 l 68 -81 q 144 -54 131 -75 q 161 17 161 -31 z "},"~":{"ha":842,"x_min":71,"x_max":771,"o":"m 710 542 l 771 476 q 682 363 735 406 q 576 321 629 321 q 447 357 531 321 l 371 388 q 269 417 301 417 q 178 368 215 417 q 129 292 161 344 l 71 357 q 166 485 121 447 q 269 524 211 524 q 376 497 315 524 l 467 460 q 578 428 543 428 q 710 542 643 428 z "},"":{"ha":410,"x_min":154,"x_max":257,"o":"m 154 -267 l 154 489 l 257 489 l 257 -267 l 154 -267 m 154 585 l 154 760 l 257 760 l 257 585 l 154 585 z "},"":{"ha":769,"x_min":63,"x_max":707,"o":"m 360 86 l 360 211 q 147 312 232 221 q 63 531 63 403 q 145 750 63 661 q 360 853 228 839 l 360 982 l 451 982 l 451 853 q 608 785 540 840 q 707 643 676 729 l 592 643 q 393 760 526 760 q 230 695 294 760 q 165 532 165 631 q 231 368 165 435 q 392 301 297 301 q 586 403 499 301 l 699 403 q 603 274 671 326 q 451 211 535 222 l 451 86 l 360 86 z "},"":{"ha":769,"x_min":25,"x_max":822,"o":"m 82 0 l 82 93 l 275 93 q 333 254 333 158 q 306 365 333 318 q 200 482 279 411 l 25 482 l 25 575 l 129 575 q 99 711 99 649 q 191 951 99 857 q 425 1044 283 1044 q 659 963 564 1044 q 769 751 754 882 l 674 751 q 588 899 653 846 q 426 951 522 951 q 264 885 326 951 q 201 713 201 818 q 240 575 201 647 l 635 575 l 635 482 l 336 482 q 436 256 436 376 q 396 93 436 185 l 475 93 q 653 144 597 93 q 701 215 683 171 q 719 304 719 260 q 711 372 719 331 l 811 372 q 822 296 822 329 q 794 165 822 226 q 715 64 765 103 q 478 0 633 0 l 82 0 z "},"":{"ha":769,"x_min":36,"x_max":733,"o":"m 40 686 l 117 761 l 176 703 q 383 768 278 768 q 592 704 501 768 l 651 763 l 726 686 l 669 628 q 733 417 733 533 q 668 213 733 293 l 726 154 l 651 81 l 594 139 q 490 85 536 100 q 383 69 443 69 q 175 139 276 69 l 117 81 l 43 156 l 100 213 q 36 421 36 300 q 101 628 36 536 l 40 686 m 389 671 q 206 600 278 671 q 135 419 135 529 q 207 241 135 313 q 388 169 279 169 q 564 242 493 169 q 635 421 635 314 q 565 599 635 528 q 389 671 494 671 z "},"":{"ha":769,"x_min":0,"x_max":818,"o":"m 361 0 l 361 329 l 69 329 l 69 422 l 324 422 l 256 550 l 60 550 l 60 643 l 206 643 l 0 1026 l 106 1026 l 413 454 l 713 1026 l 818 1026 l 615 643 l 758 643 l 758 550 l 565 550 l 499 422 l 749 422 l 749 329 l 463 329 l 463 0 l 361 0 z "},"":{"ha":933,"x_min":422,"x_max":511,"o":"m 511 1026 l 511 617 l 422 617 l 422 1026 l 511 1026 m 511 410 l 511 0 l 422 0 l 422 410 l 511 410 z "},"":{"ha":854,"x_min":121,"x_max":735,"o":"m 671 842 l 572 842 q 426 951 549 951 q 322 915 363 951 q 282 821 282 878 q 364 701 282 742 l 583 599 q 735 401 735 526 q 629 203 735 281 q 696 51 696 132 q 621 -125 696 -54 q 435 -196 546 -196 q 232 -116 313 -196 q 147 89 151 -36 l 242 89 q 301 -50 249 3 q 435 -103 354 -103 q 553 -59 506 -103 q 601 49 601 -15 q 571 123 601 90 q 471 190 540 156 l 272 288 q 153 370 186 331 q 121 471 121 410 q 240 682 121 597 q 188 818 188 739 q 256 980 188 915 q 426 1044 324 1044 q 596 988 528 1044 q 671 842 664 932 m 556 507 l 294 631 q 215 486 215 576 q 290 386 215 424 l 565 253 q 640 389 640 307 q 556 507 640 468 z "},"":{"ha":513,"x_min":103,"x_max":410,"o":"m 103 1040 l 206 1040 l 206 865 l 103 865 l 103 1040 m 307 1040 l 410 1040 l 410 865 l 307 865 l 307 1040 z "},"":{"ha":1038,"x_min":-12,"x_max":1049,"o":"m 696 363 l 800 363 q 687 247 758 289 q 531 206 615 206 q 316 298 406 206 q 226 518 226 390 q 316 735 226 646 q 532 825 406 825 q 804 663 713 825 l 701 663 q 533 747 631 747 q 376 680 442 747 q 311 517 311 613 q 376 353 311 422 q 532 283 442 283 q 696 363 629 283 m 517 1044 q 894 889 740 1044 q 1049 507 1049 733 q 892 137 1049 292 q 518 -18 736 -18 q 143 138 299 -18 q -12 514 -12 293 q 143 889 -12 733 q 517 1044 299 1044 m 517 972 q 198 838 331 972 q 65 514 65 703 q 198 189 65 324 q 518 54 331 54 q 837 188 703 54 q 971 507 971 322 q 839 838 971 703 q 517 972 707 972 z "},"":{"ha":513,"x_min":43,"x_max":471,"o":"m 463 1026 l 463 622 l 396 622 l 396 685 q 253 613 339 613 q 106 676 168 613 q 43 825 43 739 q 105 973 43 911 q 254 1035 167 1035 q 337 1015 297 1035 q 396 964 376 994 l 396 1026 l 463 1026 m 351 924 q 330 945 351 924 q 256 967 310 967 q 159 924 201 967 q 117 826 117 882 q 158 724 117 768 q 256 681 200 681 q 351 724 310 681 q 392 822 392 767 q 351 924 392 881 m 43 514 l 471 514 l 471 443 l 43 443 l 43 514 z "},"":{"ha":590,"x_min":56,"x_max":535,"o":"m 213 138 l 56 417 l 213 693 l 294 649 l 164 417 l 294 183 l 213 138 m 453 138 l 293 417 l 453 693 l 535 649 l 404 417 l 535 183 l 453 138 z "},"":{"ha":842,"x_min":71,"x_max":771,"o":"m 71 606 l 771 606 l 771 206 l 671 206 l 671 504 l 71 504 l 71 606 z "},"":{"ha":1038,"x_min":-12,"x_max":1049,"o":"m 736 218 l 631 218 l 429 499 l 429 218 l 344 218 l 344 813 l 528 813 q 688 763 636 813 q 742 622 742 708 q 667 472 742 521 q 568 440 633 450 l 736 218 m 429 507 l 490 507 q 654 622 654 507 q 618 702 654 672 q 522 732 582 732 l 429 732 l 429 507 m 517 1044 q 894 889 740 1044 q 1049 507 1049 733 q 892 137 1049 292 q 518 -18 736 -18 q 143 138 299 -18 q -12 514 -12 293 q 143 889 -12 733 q 517 1044 299 1044 m 517 972 q 198 838 331 972 q 65 514 65 703 q 198 189 65 324 q 518 54 331 54 q 837 188 703 54 q 971 507 971 322 q 839 838 971 703 q 517 972 707 972 z "},"":{"ha":674,"x_min":103,"x_max":571,"o":"m 103 982 l 571 982 l 571 893 l 103 893 l 103 982 z "},"":{"ha":556,"x_min":69,"x_max":486,"o":"m 283 953 q 428 891 369 953 q 486 740 486 829 q 426 590 486 651 q 278 528 365 528 q 130 590 190 528 q 69 742 69 651 q 131 892 69 831 q 283 953 193 953 m 281 874 q 186 835 225 874 q 147 740 147 796 q 186 646 147 685 q 278 607 225 607 q 369 646 332 607 q 407 740 407 685 q 370 835 407 796 q 281 874 333 874 z "},"":{"ha":842,"x_min":71,"x_max":771,"o":"m 368 513 l 368 813 l 475 813 l 475 513 l 771 513 l 771 410 l 475 410 l 475 172 l 368 172 l 368 410 l 71 410 l 71 513 l 368 513 m 771 103 l 771 0 l 71 0 l 71 103 l 771 103 z "},"":{"ha":461,"x_min":17,"x_max":444,"o":"m 17 400 l 17 471 l 243 679 q 318 751 300 731 q 360 844 360 800 q 322 926 360 892 q 233 961 285 961 q 122 899 160 961 q 106 817 106 871 l 106 810 l 22 810 q 38 913 24 878 q 115 1003 61 969 q 238 1038 169 1038 q 384 981 324 1038 q 444 842 444 924 q 417 749 444 793 q 325 644 390 704 l 140 476 l 442 476 l 442 400 l 17 400 z "},"":{"ha":461,"x_min":18,"x_max":443,"o":"m 144 854 l 60 854 q 108 988 61 938 q 232 1038 154 1038 q 353 990 304 1038 q 403 872 403 942 q 390 812 403 836 q 346 758 378 788 q 443 593 443 699 q 380 449 443 510 q 231 389 317 389 q 126 416 175 389 q 49 489 76 443 q 18 610 22 532 l 103 610 q 126 519 106 549 q 229 465 167 465 q 319 503 281 465 q 358 590 358 540 q 331 668 358 633 q 260 713 303 703 q 178 718 238 718 l 178 793 q 207 792 203 792 q 288 815 258 792 q 318 876 318 838 q 293 937 318 913 q 231 961 268 961 q 153 910 175 961 q 144 854 144 890 z "},"":{"ha":521,"x_min":103,"x_max":418,"o":"m 103 925 l 371 1086 l 418 1006 l 150 847 l 103 925 z "},"":{"ha":783,"x_min":51,"x_max":682,"o":"m 315 -185 l 315 493 q 122 578 193 506 q 51 763 51 650 q 165 981 51 906 q 361 1026 238 1026 l 682 1026 l 682 -185 l 578 -185 l 578 933 l 419 933 l 419 -185 l 315 -185 z "},"":{"ha":385,"x_min":140,"x_max":243,"o":"m 140 318 l 140 493 l 243 493 l 243 318 l 140 318 z "},"":{"ha":450,"x_min":103,"x_max":347,"o":"m 172 0 l 222 0 l 196 -65 q 242 -54 224 -54 q 318 -85 289 -54 q 347 -167 347 -117 q 313 -259 347 -222 q 225 -296 278 -296 q 103 -194 126 -296 l 164 -187 q 226 -236 178 -236 q 270 -218 253 -236 q 288 -172 288 -200 q 269 -120 288 -140 q 224 -100 251 -100 q 164 -133 192 -100 l 124 -110 l 172 0 z "},"":{"ha":461,"x_min":136,"x_max":324,"o":"m 240 400 l 240 950 l 136 950 l 136 1026 l 324 1026 l 324 400 l 240 400 z "},"":{"ha":513,"x_min":44,"x_max":468,"o":"m 108 973 q 139 1004 108 973 q 257 1035 171 1035 q 406 972 343 1035 q 468 825 468 910 q 405 676 468 739 q 256 614 342 614 q 106 676 168 614 q 44 828 44 739 q 108 973 44 911 m 256 967 q 158 925 199 967 q 118 825 118 883 q 158 724 118 765 q 257 682 199 682 q 353 724 313 682 q 394 822 394 765 q 355 925 394 883 q 256 967 315 967 m 44 514 l 468 514 l 468 443 l 44 443 l 44 514 z "},"":{"ha":590,"x_min":56,"x_max":535,"o":"m 378 138 l 296 183 l 426 417 l 296 649 l 378 693 l 535 417 l 378 138 m 138 138 l 56 183 l 186 417 l 56 649 l 138 693 l 297 417 l 138 138 z "},"":{"ha":1154,"x_min":140,"x_max":1115,"o":"m 974 0 l 974 110 l 653 110 l 653 179 l 967 626 l 1057 626 l 1057 186 l 1115 186 l 1115 110 l 1057 110 l 1057 0 l 974 0 m 974 186 l 974 499 l 757 186 l 974 186 m 293 0 l 767 1026 l 843 1026 l 368 0 l 293 0 m 244 400 l 244 950 l 140 950 l 140 1026 l 328 1026 l 328 400 l 244 400 z "},"":{"ha":1154,"x_min":133,"x_max":1131,"o":"m 286 0 l 760 1026 l 836 1026 l 361 0 l 286 0 m 238 400 l 238 950 l 133 950 l 133 1026 l 321 1026 l 321 400 l 238 400 m 703 0 l 703 71 l 929 279 q 1004 351 986 331 q 1046 444 1046 400 q 1008 526 1046 492 q 919 561 971 561 q 808 499 846 561 q 792 417 792 471 l 792 410 l 708 410 q 724 513 710 478 q 801 603 747 569 q 924 638 856 638 q 1070 581 1010 638 q 1131 442 1131 524 q 1103 349 1131 393 q 1011 244 1076 304 l 826 76 l 1128 76 l 1128 0 l 703 0 z "},"":{"ha":1154,"x_min":18,"x_max":1115,"o":"m 974 0 l 974 110 l 653 110 l 653 179 l 967 626 l 1057 626 l 1057 186 l 1115 186 l 1115 110 l 1057 110 l 1057 0 l 974 0 m 974 186 l 974 499 l 757 186 l 974 186 m 332 0 l 806 1026 l 882 1026 l 407 0 l 332 0 m 144 854 l 60 854 q 108 988 61 938 q 232 1038 154 1038 q 353 990 304 1038 q 403 872 403 942 q 390 812 403 836 q 346 758 378 788 q 443 593 443 697 q 380 449 443 510 q 231 389 317 389 q 126 416 175 389 q 49 489 76 443 q 18 610 19 535 l 103 610 q 126 519 106 549 q 229 465 165 465 q 319 503 281 465 q 358 590 358 540 q 331 668 358 633 q 260 713 303 703 q 178 718 236 718 l 178 793 q 207 792 203 792 q 288 815 258 792 q 318 876 318 838 q 293 937 318 913 q 231 961 268 961 q 153 910 175 961 q 144 854 144 890 z "},"":{"ha":821,"x_min":92,"x_max":731,"o":"m 458 760 l 458 585 l 356 585 l 356 760 l 458 760 m 633 54 l 731 54 q 681 -142 729 -65 q 406 -285 589 -285 q 181 -199 269 -285 q 92 17 92 -114 q 119 138 92 85 q 217 253 147 190 q 326 374 294 321 q 360 492 358 428 l 457 492 l 457 471 q 411 322 457 396 q 311 208 386 279 q 217 103 240 142 q 194 14 194 64 q 254 -134 194 -76 q 407 -192 314 -192 q 520 -163 468 -192 q 600 -85 572 -135 q 633 54 628 -33 z "},"":{"ha":1028,"x_min":15,"x_max":1013,"o":"m 15 0 l 456 1026 l 571 1026 l 1013 0 l 900 0 l 751 346 l 274 346 l 124 0 l 15 0 m 313 439 l 711 439 l 514 910 l 313 439 m 353 1331 l 628 1178 l 582 1100 l 308 1250 l 353 1331 z "},"":{"ha":1028,"x_min":15,"x_max":1013,"o":"m 15 0 l 456 1026 l 571 1026 l 1013 0 l 900 0 l 751 346 l 274 346 l 124 0 l 15 0 m 313 439 l 711 439 l 514 910 l 313 439 m 403 1178 l 671 1339 l 718 1258 l 450 1100 l 403 1178 z "},"":{"ha":1028,"x_min":15,"x_max":1013,"o":"m 15 0 l 456 1026 l 571 1026 l 1013 0 l 900 0 l 751 346 l 274 346 l 124 0 l 15 0 m 313 439 l 711 439 l 514 910 l 313 439 m 268 1118 l 469 1293 l 561 1293 l 760 1118 l 636 1118 l 517 1221 l 394 1118 l 268 1118 z "},"":{"ha":1028,"x_min":15,"x_max":1013,"o":"m 15 0 l 456 1026 l 571 1026 l 1013 0 l 900 0 l 751 346 l 274 346 l 124 0 l 15 0 m 313 439 l 711 439 l 514 910 l 313 439 m 674 1264 l 719 1200 q 665 1152 703 1172 q 593 1132 628 1132 q 501 1163 564 1132 q 446 1176 467 1176 q 413 1170 426 1176 q 372 1140 400 1164 l 363 1132 l 317 1196 q 446 1264 369 1264 q 528 1240 478 1264 q 594 1221 572 1221 q 674 1264 632 1221 z "},"":{"ha":1028,"x_min":15,"x_max":1013,"o":"m 15 0 l 456 1026 l 571 1026 l 1013 0 l 900 0 l 751 346 l 274 346 l 124 0 l 15 0 m 313 439 l 711 439 l 514 910 l 313 439 m 361 1293 l 464 1293 l 464 1118 l 361 1118 l 361 1293 m 565 1293 l 668 1293 l 668 1118 l 565 1118 l 565 1293 z "},"":{"ha":1028,"x_min":15,"x_max":1013,"o":"m 15 0 l 456 1026 l 571 1026 l 1013 0 l 900 0 l 751 346 l 274 346 l 124 0 l 15 0 m 313 439 l 711 439 l 514 910 l 313 439 m 515 1356 q 604 1318 567 1356 q 642 1228 642 1281 q 604 1138 642 1175 q 514 1100 567 1100 q 424 1137 461 1100 q 386 1226 386 1174 q 424 1318 386 1281 q 515 1356 461 1356 m 564 1277 q 553 1288 564 1277 q 514 1299 543 1299 q 464 1278 485 1299 q 443 1226 443 1257 q 464 1178 443 1199 q 514 1157 485 1157 q 564 1178 543 1157 q 585 1228 585 1199 q 564 1277 585 1256 z "},"":{"ha":1378,"x_min":15,"x_max":1300,"o":"m 15 0 l 725 1026 l 1300 1026 l 1300 933 l 857 933 l 857 565 l 1285 565 l 1285 472 l 857 472 l 857 93 l 1300 93 l 1300 0 l 754 0 l 754 347 l 378 347 l 138 0 l 15 0 m 443 440 l 754 440 l 754 894 l 443 440 z "},"":{"ha":1129,"x_min":61,"x_max":1069,"o":"m 596 -18 l 563 -94 q 610 -85 590 -85 q 687 -117 657 -85 q 717 -201 717 -149 q 681 -297 717 -260 q 589 -333 646 -333 q 460 -231 490 -333 l 525 -221 q 588 -268 540 -268 q 633 -251 617 -268 q 650 -204 650 -233 q 632 -156 650 -175 q 586 -137 614 -137 q 525 -168 554 -137 l 483 -143 l 542 -17 q 293 72 389 6 q 121 261 181 149 q 61 510 61 374 q 213 892 61 740 q 593 1044 364 1044 q 879 968 753 1044 q 1065 760 1006 892 l 950 760 q 838 881 897 843 q 597 950 735 950 q 290 824 414 950 q 165 514 165 699 q 293 205 165 333 q 599 76 421 76 q 853 161 746 76 q 956 269 894 193 l 1069 269 q 875 54 996 128 q 596 -18 754 -19 z "},"":{"ha":744,"x_min":106,"x_max":667,"o":"m 106 0 l 106 1026 l 667 1026 l 667 933 l 208 933 l 208 565 l 651 565 l 651 472 l 208 472 l 208 93 l 667 93 l 667 0 l 106 0 m 225 1331 l 500 1178 l 454 1100 l 181 1250 l 225 1331 z "},"":{"ha":744,"x_min":106,"x_max":667,"o":"m 106 0 l 106 1026 l 667 1026 l 667 933 l 208 933 l 208 565 l 651 565 l 651 472 l 208 472 l 208 93 l 667 93 l 667 0 l 106 0 m 275 1178 l 543 1339 l 590 1258 l 322 1100 l 275 1178 z "},"":{"ha":744,"x_min":106,"x_max":667,"o":"m 106 0 l 106 1026 l 667 1026 l 667 933 l 208 933 l 208 565 l 651 565 l 651 472 l 208 472 l 208 93 l 667 93 l 667 0 l 106 0 m 140 1118 l 342 1293 l 433 1293 l 632 1118 l 508 1118 l 389 1221 l 267 1118 l 140 1118 z "},"":{"ha":744,"x_min":106,"x_max":667,"o":"m 106 0 l 106 1026 l 667 1026 l 667 933 l 208 933 l 208 565 l 651 565 l 651 472 l 208 472 l 208 93 l 667 93 l 667 0 l 106 0 m 233 1293 l 336 1293 l 336 1118 l 233 1118 l 233 1293 m 438 1293 l 540 1293 l 540 1118 l 438 1118 l 438 1293 z "},"":{"ha":314,"x_min":-3,"x_max":317,"o":"m 106 0 l 106 1026 l 208 1026 l 208 0 l 106 0 m 42 1331 l 317 1178 l 271 1100 l -3 1250 l 42 1331 z "},"":{"ha":314,"x_min":-1,"x_max":314,"o":"m 106 0 l 106 1026 l 208 1026 l 208 0 l 106 0 m -1 1178 l 267 1339 l 314 1258 l 46 1100 l -1 1178 z "},"":{"ha":314,"x_min":-89,"x_max":403,"o":"m 106 0 l 106 1026 l 208 1026 l 208 0 l 106 0 m -89 1118 l 113 1293 l 204 1293 l 403 1118 l 279 1118 l 160 1221 l 38 1118 l -89 1118 z "},"":{"ha":314,"x_min":4,"x_max":311,"o":"m 107 0 l 107 1026 l 210 1026 l 210 0 l 107 0 m 4 1293 l 107 1293 l 107 1118 l 4 1118 l 4 1293 m 208 1293 l 311 1293 l 311 1118 l 208 1118 l 208 1293 z "},"":{"ha":1097,"x_min":36,"x_max":1036,"o":"m 169 482 l 36 482 l 36 575 l 169 575 l 169 1026 l 411 1026 q 641 1008 551 1026 q 803 946 731 989 q 976 766 917 878 q 1036 510 1036 654 q 799 76 1036 217 q 446 0 668 0 l 169 0 l 169 482 m 272 482 l 272 93 l 415 93 q 638 115 551 93 q 785 185 724 136 q 932 514 932 304 q 883 722 932 629 q 746 867 835 814 q 415 933 636 933 l 272 933 l 272 575 l 557 575 l 557 482 l 272 482 z "},"":{"ha":1028,"x_min":106,"x_max":922,"o":"m 106 0 l 106 1026 l 244 1026 l 819 175 l 819 1026 l 922 1026 l 922 0 l 819 0 l 208 903 l 208 0 l 106 0 m 679 1264 l 725 1200 q 671 1152 708 1172 q 599 1132 633 1132 q 507 1163 569 1132 q 451 1176 472 1176 q 419 1170 432 1176 q 378 1140 406 1164 l 368 1132 l 322 1196 q 451 1264 375 1264 q 533 1240 483 1264 q 600 1221 578 1221 q 679 1264 638 1221 z "},"":{"ha":1207,"x_min":61,"x_max":1146,"o":"m 604 1044 q 987 888 828 1044 q 1146 513 1146 732 q 986 138 1146 294 q 604 -18 826 -18 q 219 139 378 -18 q 61 519 61 296 q 222 889 61 733 q 604 1044 383 1044 m 604 950 q 296 822 426 950 q 165 517 165 693 q 294 206 165 335 q 604 76 422 76 q 913 205 783 76 q 1042 511 1042 333 q 913 821 1042 692 q 604 950 783 950 m 442 1331 l 717 1178 l 671 1100 l 397 1250 l 442 1331 z "},"":{"ha":1207,"x_min":61,"x_max":1146,"o":"m 604 1044 q 987 888 828 1044 q 1146 513 1146 732 q 986 138 1146 294 q 604 -18 826 -18 q 219 139 378 -18 q 61 519 61 296 q 222 889 61 733 q 604 1044 383 1044 m 604 950 q 296 822 426 950 q 165 517 165 693 q 294 206 165 335 q 604 76 422 76 q 913 205 783 76 q 1042 511 1042 333 q 913 821 1042 692 q 604 950 783 950 m 492 1178 l 760 1339 l 807 1258 l 539 1100 l 492 1178 z "},"":{"ha":1207,"x_min":61,"x_max":1146,"o":"m 604 1044 q 987 888 828 1044 q 1146 513 1146 732 q 986 138 1146 294 q 604 -18 826 -18 q 219 139 378 -18 q 61 519 61 296 q 222 889 61 733 q 604 1044 383 1044 m 604 950 q 296 822 426 950 q 165 517 165 693 q 294 206 165 335 q 604 76 422 76 q 913 205 783 76 q 1042 511 1042 333 q 913 821 1042 692 q 604 950 783 950 m 357 1118 l 558 1293 l 650 1293 l 849 1118 l 725 1118 l 606 1221 l 483 1118 l 357 1118 z "},"":{"ha":1207,"x_min":61,"x_max":1146,"o":"m 604 1044 q 987 888 828 1044 q 1146 513 1146 732 q 986 138 1146 294 q 604 -18 826 -18 q 219 139 378 -18 q 61 519 61 296 q 222 889 61 733 q 604 1044 383 1044 m 604 950 q 296 822 426 950 q 165 517 165 693 q 294 206 165 335 q 604 76 422 76 q 913 205 783 76 q 1042 511 1042 333 q 913 821 1042 692 q 604 950 783 950 m 774 1264 l 819 1200 q 765 1152 803 1172 q 693 1132 728 1132 q 601 1163 664 1132 q 546 1176 567 1176 q 513 1170 526 1176 q 472 1140 500 1164 l 463 1132 l 417 1196 q 546 1264 469 1264 q 628 1240 578 1264 q 694 1221 672 1221 q 774 1264 732 1221 z "},"":{"ha":1207,"x_min":61,"x_max":1146,"o":"m 604 1044 q 987 888 828 1044 q 1146 513 1146 732 q 986 138 1146 294 q 604 -18 826 -18 q 219 139 378 -18 q 61 519 61 296 q 222 889 61 733 q 604 1044 383 1044 m 604 950 q 296 822 426 950 q 165 517 165 693 q 294 206 165 335 q 604 76 422 76 q 913 205 783 76 q 1042 511 1042 333 q 913 821 1042 692 q 604 950 783 950 m 450 1293 l 553 1293 l 553 1118 l 450 1118 l 450 1293 m 654 1293 l 757 1293 l 757 1118 l 654 1118 l 654 1293 z "},"":{"ha":842,"x_min":71,"x_max":771,"o":"m 493 415 l 771 138 l 699 67 l 421 344 l 143 67 l 71 138 l 349 415 l 71 694 l 143 765 l 421 488 l 699 765 l 771 694 l 493 415 z "},"":{"ha":1206,"x_min":61,"x_max":1144,"o":"m 115 -58 l 244 114 q 61 514 61 267 q 217 891 61 738 q 599 1044 372 1044 q 883 967 769 1044 l 1014 1140 l 1089 1082 l 961 911 q 1144 517 1144 757 q 988 138 1144 293 q 607 -18 832 -18 q 324 58 451 -18 l 193 -115 l 115 -58 m 304 192 l 826 890 q 597 950 728 950 q 290 822 415 950 q 165 508 165 693 q 304 192 165 322 m 903 833 l 381 135 q 606 76 492 76 q 914 203 788 76 q 1040 513 1040 331 q 903 833 1040 700 z "},"":{"ha":910,"x_min":106,"x_max":804,"o":"m 106 1026 l 208 1026 l 208 386 q 256 174 208 246 q 338 103 285 129 q 456 76 392 76 q 572 103 518 76 q 654 174 625 129 q 701 386 701 246 l 701 1026 l 804 1026 l 804 386 q 732 108 804 204 q 613 15 686 49 q 454 -18 539 -18 q 297 15 369 -18 q 178 108 224 49 q 106 386 106 204 l 106 1026 m 293 1331 l 568 1178 l 522 1100 l 249 1250 l 293 1331 z "},"":{"ha":910,"x_min":106,"x_max":804,"o":"m 106 1026 l 208 1026 l 208 386 q 256 174 208 246 q 338 103 285 129 q 456 76 392 76 q 572 103 518 76 q 654 174 625 129 q 701 386 701 246 l 701 1026 l 804 1026 l 804 386 q 732 108 804 204 q 613 15 686 49 q 454 -18 539 -18 q 297 15 369 -18 q 178 108 224 49 q 106 386 106 204 l 106 1026 m 343 1178 l 611 1339 l 658 1258 l 390 1100 l 343 1178 z "},"":{"ha":910,"x_min":106,"x_max":804,"o":"m 106 1026 l 208 1026 l 208 386 q 256 174 208 246 q 338 103 285 129 q 456 76 392 76 q 572 103 518 76 q 654 174 625 129 q 701 386 701 246 l 701 1026 l 804 1026 l 804 386 q 732 108 804 204 q 613 15 686 49 q 454 -18 539 -18 q 297 15 369 -18 q 178 108 224 49 q 106 386 106 204 l 106 1026 m 208 1118 l 410 1293 l 501 1293 l 700 1118 l 576 1118 l 457 1221 l 335 1118 l 208 1118 z "},"":{"ha":910,"x_min":106,"x_max":804,"o":"m 106 1026 l 208 1026 l 208 386 q 256 174 208 246 q 338 103 285 129 q 456 76 392 76 q 572 103 518 76 q 654 174 625 129 q 701 386 701 246 l 701 1026 l 804 1026 l 804 386 q 732 108 804 204 q 613 15 686 49 q 454 -18 539 -18 q 297 15 369 -18 q 178 108 224 49 q 106 386 106 204 l 106 1026 m 301 1293 l 404 1293 l 404 1118 l 301 1118 l 301 1293 m 506 1293 l 608 1293 l 608 1118 l 506 1118 l 506 1293 z "},"":{"ha":822,"x_min":3,"x_max":819,"o":"m 358 0 l 358 343 l 3 1026 l 117 1026 l 408 451 l 707 1026 l 819 1026 l 461 343 l 461 0 l 358 0 m 300 1178 l 568 1339 l 615 1258 l 347 1100 l 300 1178 z "},"":{"ha":822,"x_min":106,"x_max":785,"o":"m 106 0 l 106 1026 l 199 1026 l 199 842 l 389 842 q 663 788 574 842 q 785 531 785 715 q 682 294 785 369 q 406 231 594 231 l 208 231 l 208 0 l 106 0 m 208 324 l 399 324 q 596 358 536 324 q 681 531 681 406 q 588 718 681 671 q 354 749 526 749 l 208 749 l 208 324 z "},"":{"ha":769,"x_min":82,"x_max":728,"o":"m 82 0 l 82 668 q 132 922 82 838 q 227 1011 164 978 q 365 1044 290 1044 q 575 962 492 1044 q 658 756 658 879 q 540 540 658 611 q 679 443 631 511 q 728 276 728 375 q 647 66 728 150 q 443 -18 565 -18 q 185 151 263 -18 l 185 0 l 82 0 m 185 282 l 256 282 q 309 134 257 192 q 440 76 361 76 q 571 133 518 76 q 624 274 624 190 q 557 422 624 368 q 374 476 490 476 q 311 474 357 476 l 311 567 l 324 567 q 493 618 432 567 q 554 761 554 669 q 501 897 554 843 q 368 950 449 950 q 277 926 318 950 q 217 863 236 903 q 185 668 185 799 l 185 282 z "},"":{"ha":949,"x_min":58,"x_max":861,"o":"m 861 760 l 861 0 l 758 0 l 758 133 q 630 17 697 51 q 465 -18 563 -18 q 174 95 290 -18 q 58 378 58 208 q 173 663 58 549 q 458 778 288 778 q 758 625 650 778 l 758 760 l 861 760 m 461 683 q 250 596 338 683 q 163 385 163 508 q 250 165 163 254 q 467 76 338 76 q 674 165 589 76 q 758 383 758 254 q 672 597 758 510 q 461 683 586 683 m 326 1078 l 601 925 l 556 847 l 282 997 l 326 1078 z "},"":{"ha":949,"x_min":58,"x_max":861,"o":"m 861 760 l 861 0 l 758 0 l 758 133 q 630 17 697 51 q 465 -18 563 -18 q 174 95 290 -18 q 58 378 58 208 q 173 663 58 549 q 458 778 288 778 q 758 625 650 778 l 758 760 l 861 760 m 461 683 q 250 596 338 683 q 163 385 163 508 q 250 165 163 254 q 467 76 338 76 q 674 165 589 76 q 758 383 758 254 q 672 597 758 510 q 461 683 586 683 m 376 925 l 644 1086 l 692 1006 l 424 847 l 376 925 z "},"":{"ha":949,"x_min":58,"x_max":861,"o":"m 861 760 l 861 0 l 758 0 l 758 133 q 630 17 697 51 q 465 -18 563 -18 q 174 95 290 -18 q 58 378 58 208 q 173 663 58 549 q 458 778 288 778 q 758 625 650 778 l 758 760 l 861 760 m 461 683 q 250 596 338 683 q 163 385 163 508 q 250 165 163 254 q 467 76 338 76 q 674 165 589 76 q 758 383 758 254 q 672 597 758 510 q 461 683 586 683 m 242 865 l 443 1040 l 535 1040 l 733 865 l 610 865 l 490 968 l 368 865 l 242 865 z "},"":{"ha":949,"x_min":58,"x_max":861,"o":"m 861 760 l 861 0 l 758 0 l 758 133 q 630 17 697 51 q 465 -18 563 -18 q 174 95 290 -18 q 58 378 58 208 q 173 663 58 549 q 458 778 288 778 q 758 625 650 778 l 758 760 l 861 760 m 461 683 q 250 596 338 683 q 163 385 163 508 q 250 165 163 254 q 467 76 338 76 q 674 165 589 76 q 758 383 758 254 q 672 597 758 510 q 461 683 586 683 m 643 1011 l 689 947 q 635 899 672 919 q 563 879 597 879 q 471 910 533 879 q 415 924 436 924 q 383 917 396 924 q 342 888 369 911 l 332 879 l 286 943 q 415 1011 339 1011 q 497 988 447 1011 q 564 968 542 968 q 643 1011 601 968 z "},"":{"ha":949,"x_min":58,"x_max":861,"o":"m 861 760 l 861 0 l 758 0 l 758 133 q 630 17 697 51 q 465 -18 563 -18 q 174 95 290 -18 q 58 378 58 208 q 173 663 58 549 q 458 778 288 778 q 758 625 650 778 l 758 760 l 861 760 m 461 683 q 250 596 338 683 q 163 385 163 508 q 250 165 163 254 q 467 76 338 76 q 674 165 589 76 q 758 383 758 254 q 672 597 758 510 q 461 683 586 683 m 335 1040 l 438 1040 l 438 865 l 335 865 l 335 1040 m 539 1040 l 642 1040 l 642 865 l 539 865 l 539 1040 z "},"":{"ha":949,"x_min":58,"x_max":861,"o":"m 861 760 l 861 0 l 758 0 l 758 133 q 630 17 697 51 q 465 -18 563 -18 q 174 95 290 -18 q 58 378 58 208 q 173 663 58 549 q 458 778 288 778 q 758 625 650 778 l 758 760 l 861 760 m 461 683 q 250 596 338 683 q 163 385 163 508 q 250 165 163 254 q 467 76 338 76 q 674 165 589 76 q 758 383 758 254 q 672 597 758 510 q 461 683 586 683 m 489 1103 q 578 1065 540 1103 q 615 975 615 1028 q 578 885 615 922 q 488 847 540 847 q 397 884 435 847 q 360 974 360 921 q 397 1065 360 1028 q 489 1103 435 1103 m 538 1024 q 527 1035 538 1024 q 488 1046 517 1046 q 438 1025 458 1046 q 417 974 417 1004 q 438 925 417 946 q 488 904 458 904 q 538 925 517 904 q 558 975 558 946 q 538 1024 558 1003 z "},"":{"ha":1607,"x_min":58,"x_max":1553,"o":"m 1553 343 l 865 343 q 961 153 875 229 q 1165 76 1047 76 q 1324 123 1253 76 q 1428 247 1396 169 l 1535 247 q 1393 55 1494 128 q 1165 -18 1292 -18 q 860 128 985 -18 l 860 0 l 761 0 l 761 128 q 626 17 697 51 q 460 -18 554 -18 q 174 96 289 -18 q 58 378 58 210 q 165 656 58 540 q 458 778 276 778 q 761 628 651 778 l 761 760 l 860 760 l 860 628 q 1160 778 979 778 q 1350 731 1263 778 q 1493 597 1438 683 q 1553 343 1553 501 m 869 436 l 1453 436 q 1352 616 1432 549 q 1161 683 1272 683 q 967 615 1047 683 q 869 436 886 546 m 463 683 q 249 597 335 683 q 164 381 164 510 q 250 165 164 253 q 463 76 336 76 q 676 165 589 76 q 764 381 764 253 q 678 598 764 513 q 463 683 593 683 z "},"":{"ha":899,"x_min":58,"x_max":844,"o":"m 476 -18 l 450 -81 q 494 -71 479 -71 q 572 -102 542 -71 q 601 -182 601 -133 q 567 -275 601 -239 q 478 -311 532 -311 q 357 -210 379 -311 l 418 -203 q 479 -251 432 -251 q 524 -233 507 -251 q 542 -187 542 -215 q 523 -137 542 -157 q 476 -117 504 -117 q 418 -150 446 -117 l 376 -125 l 425 -15 q 161 113 264 1 q 58 382 58 225 q 176 663 58 547 q 465 778 294 778 q 695 710 593 778 q 843 529 797 643 l 728 529 q 464 683 638 683 q 250 595 338 683 q 163 379 163 507 q 251 165 163 253 q 468 76 340 76 q 608 110 549 76 q 728 224 668 144 l 844 224 q 476 -18 731 -14 z "},"":{"ha":903,"x_min":58,"x_max":849,"o":"m 849 346 l 161 346 q 253 155 167 233 q 457 76 340 76 q 617 124 543 76 q 722 250 690 172 l 829 250 q 718 83 800 161 q 460 -18 610 -18 q 175 98 292 -18 q 58 383 58 214 q 173 663 58 549 q 453 778 288 778 q 653 724 561 778 q 797 581 746 671 q 849 346 849 489 m 164 439 l 746 439 q 641 618 719 553 q 451 683 563 683 q 264 616 343 683 q 164 439 185 549 m 297 1078 l 572 925 l 526 847 l 253 997 l 297 1078 z "},"":{"ha":903,"x_min":58,"x_max":849,"o":"m 849 346 l 161 346 q 253 155 167 233 q 457 76 340 76 q 617 124 543 76 q 722 250 690 172 l 829 250 q 718 83 800 161 q 460 -18 610 -18 q 175 98 292 -18 q 58 383 58 214 q 173 663 58 549 q 453 778 288 778 q 653 724 561 778 q 797 581 746 671 q 849 346 849 489 m 164 439 l 746 439 q 641 618 719 553 q 451 683 563 683 q 264 616 343 683 q 164 439 185 549 m 342 925 l 610 1086 l 657 1006 l 389 847 l 342 925 z "},"":{"ha":903,"x_min":58,"x_max":849,"o":"m 849 346 l 161 346 q 253 155 167 233 q 457 76 340 76 q 617 124 543 76 q 722 250 690 172 l 829 250 q 718 83 800 161 q 460 -18 610 -18 q 175 98 292 -18 q 58 383 58 214 q 173 663 58 549 q 453 778 288 778 q 653 724 561 778 q 797 581 746 671 q 849 346 849 489 m 164 439 l 746 439 q 641 618 719 553 q 451 683 563 683 q 264 616 343 683 q 164 439 185 549 m 213 865 l 414 1040 l 506 1040 l 704 865 l 581 865 l 461 968 l 339 865 l 213 865 z "},"":{"ha":903,"x_min":58,"x_max":849,"o":"m 849 346 l 161 346 q 253 155 167 233 q 457 76 340 76 q 617 124 543 76 q 722 250 690 172 l 829 250 q 718 83 800 161 q 460 -18 610 -18 q 175 98 292 -18 q 58 383 58 214 q 173 663 58 549 q 453 778 288 778 q 653 724 561 778 q 797 581 746 671 q 849 346 849 489 m 164 439 l 746 439 q 641 618 719 553 q 451 683 563 683 q 264 616 343 683 q 164 439 185 549 m 304 1040 l 407 1040 l 407 865 l 304 865 l 304 1040 m 508 1040 l 611 1040 l 611 865 l 508 865 l 508 1040 z "},"":{"ha":278,"x_min":-21,"x_max":299,"o":"m 88 0 l 88 760 l 190 760 l 190 0 l 88 0 m 24 1078 l 299 925 l 253 847 l -21 997 l 24 1078 z "},"":{"ha":278,"x_min":-18,"x_max":297,"o":"m 88 0 l 88 760 l 190 760 l 190 0 l 88 0 m -18 925 l 250 1086 l 297 1006 l 29 847 l -18 925 z "},"":{"ha":278,"x_min":-107,"x_max":385,"o":"m 88 0 l 88 760 l 190 760 l 190 0 l 88 0 m -107 865 l 94 1040 l 186 1040 l 385 865 l 261 865 l 142 968 l 19 865 l -107 865 z "},"":{"ha":278,"x_min":-14,"x_max":293,"o":"m -14 1040 l 89 1040 l 89 865 l -14 865 l -14 1040 m 190 1040 l 293 1040 l 293 865 l 190 865 l 190 1040 m 89 0 l 89 760 l 192 760 l 192 0 l 89 0 z "},"":{"ha":910,"x_min":58,"x_max":851,"o":"m 296 1010 l 369 1050 q 464 974 426 1008 l 596 1032 l 650 971 l 526 917 q 700 746 604 849 q 816 574 781 657 q 851 388 851 490 q 743 95 851 208 q 464 -18 635 -18 q 174 95 289 -18 q 58 381 58 208 q 167 660 58 547 q 439 772 276 772 q 572 747 496 772 q 440 875 485 836 l 319 821 l 269 885 l 379 933 q 333 976 356 957 l 296 1010 m 457 683 q 247 597 331 683 q 163 382 163 511 q 247 163 163 249 q 463 76 332 76 q 667 161 588 76 q 747 378 747 246 q 665 597 747 510 q 457 683 582 683 z "},"":{"ha":847,"x_min":88,"x_max":760,"o":"m 88 0 l 88 760 l 190 760 l 190 661 q 435 778 286 778 q 693 660 599 778 q 744 553 729 611 q 760 399 760 494 l 760 0 l 657 0 l 657 399 q 607 601 657 536 q 422 683 540 683 q 231 590 294 683 q 190 418 190 531 l 190 0 l 88 0 m 569 1011 l 615 947 q 561 899 599 919 q 489 879 524 879 q 397 910 460 879 q 342 924 363 924 q 309 917 322 924 q 268 888 296 911 l 258 879 l 213 943 q 342 1011 265 1011 q 424 988 374 1011 q 490 968 468 968 q 569 1011 528 968 z "},"":{"ha":910,"x_min":58,"x_max":851,"o":"m 457 778 q 740 665 628 778 q 851 378 851 551 q 742 94 851 207 q 465 -18 632 -18 q 174 96 289 -18 q 58 385 58 210 q 173 665 58 551 q 457 778 288 778 m 457 683 q 247 597 331 683 q 163 382 163 511 q 247 163 163 249 q 463 76 332 76 q 667 161 586 76 q 747 376 747 246 q 665 596 747 508 q 457 683 582 683 m 293 1078 l 568 925 l 522 847 l 249 997 l 293 1078 z "},"":{"ha":910,"x_min":58,"x_max":851,"o":"m 457 778 q 740 665 628 778 q 851 378 851 551 q 742 94 851 207 q 465 -18 632 -18 q 174 96 289 -18 q 58 385 58 210 q 173 665 58 551 q 457 778 288 778 m 457 683 q 247 597 331 683 q 163 382 163 511 q 247 163 163 249 q 463 76 332 76 q 667 161 586 76 q 747 376 747 246 q 665 596 747 508 q 457 683 582 683 m 343 925 l 611 1086 l 658 1006 l 390 847 l 343 925 z "},"":{"ha":910,"x_min":58,"x_max":851,"o":"m 457 778 q 740 665 628 778 q 851 378 851 551 q 742 94 851 207 q 465 -18 632 -18 q 174 96 289 -18 q 58 385 58 210 q 173 665 58 551 q 457 778 288 778 m 457 683 q 247 597 331 683 q 163 382 163 511 q 247 163 163 249 q 463 76 332 76 q 667 161 586 76 q 747 376 747 246 q 665 596 747 508 q 457 683 582 683 m 208 865 l 410 1040 l 501 1040 l 700 865 l 576 865 l 457 968 l 335 865 l 208 865 z "},"":{"ha":910,"x_min":58,"x_max":851,"o":"m 457 778 q 740 665 628 778 q 851 378 851 551 q 742 94 851 207 q 465 -18 632 -18 q 174 96 289 -18 q 58 385 58 210 q 173 665 58 551 q 457 778 288 778 m 457 683 q 247 597 331 683 q 163 382 163 511 q 247 163 163 249 q 463 76 332 76 q 667 161 586 76 q 747 376 747 246 q 665 596 747 508 q 457 683 582 683 m 619 1011 l 665 947 q 611 899 649 919 q 539 879 574 879 q 447 910 510 879 q 392 924 413 924 q 359 917 372 924 q 318 888 346 911 l 308 879 l 263 943 q 392 1011 315 1011 q 474 988 424 1011 q 540 968 518 968 q 619 1011 578 968 z "},"":{"ha":910,"x_min":58,"x_max":851,"o":"m 457 778 q 740 665 628 778 q 851 378 851 551 q 742 94 851 207 q 465 -18 632 -18 q 174 96 289 -18 q 58 385 58 210 q 173 665 58 551 q 457 778 288 778 m 457 683 q 247 597 331 683 q 163 382 163 511 q 247 163 163 249 q 463 76 332 76 q 667 161 586 76 q 747 376 747 246 q 665 596 747 508 q 457 683 582 683 m 301 1040 l 404 1040 l 404 865 l 301 865 l 301 1040 m 506 1040 l 608 1040 l 608 865 l 506 865 l 506 1040 z "},"":{"ha":842,"x_min":71,"x_max":771,"o":"m 481 568 l 360 568 l 360 689 l 481 689 l 481 568 m 481 156 l 360 156 l 360 276 l 481 276 l 481 156 m 771 474 l 771 371 l 71 371 l 71 474 l 771 474 z "},"":{"ha":907,"x_min":58,"x_max":849,"o":"m 101 1 l 172 94 q 84 231 110 167 q 58 378 58 296 q 174 661 58 544 q 456 778 290 778 q 658 721 567 778 l 738 825 l 811 767 l 733 664 q 849 390 849 558 q 738 97 849 213 q 456 -18 628 -18 q 247 39 354 -18 l 175 -54 l 101 1 m 231 168 l 603 650 q 457 683 536 683 q 247 593 332 683 q 163 369 163 503 q 231 168 163 264 m 676 592 l 303 110 q 449 76 376 76 q 662 164 579 76 q 744 389 744 251 q 676 592 744 507 z "},"":{"ha":844,"x_min":88,"x_max":757,"o":"m 757 760 l 757 0 l 654 0 l 654 118 q 410 -18 581 -18 q 147 103 235 -18 q 88 350 88 185 l 88 760 l 190 760 l 190 350 q 226 172 190 232 q 303 101 253 126 q 418 76 354 76 q 608 171 540 76 q 654 369 654 239 l 654 760 l 757 760 m 261 1078 l 536 925 l 490 847 l 217 997 l 261 1078 z "},"":{"ha":844,"x_min":88,"x_max":757,"o":"m 757 760 l 757 0 l 654 0 l 654 118 q 410 -18 581 -18 q 147 103 235 -18 q 88 350 88 185 l 88 760 l 190 760 l 190 350 q 226 172 190 232 q 303 101 253 126 q 418 76 354 76 q 608 171 540 76 q 654 369 654 239 l 654 760 l 757 760 m 311 925 l 579 1086 l 626 1006 l 358 847 l 311 925 z "},"":{"ha":844,"x_min":88,"x_max":757,"o":"m 757 760 l 757 0 l 654 0 l 654 118 q 410 -18 581 -18 q 147 103 235 -18 q 88 350 88 185 l 88 760 l 190 760 l 190 350 q 226 172 190 232 q 303 101 253 126 q 418 76 354 76 q 608 171 540 76 q 654 369 654 239 l 654 760 l 757 760 m 176 865 l 378 1040 l 469 1040 l 668 865 l 544 865 l 425 968 l 303 865 l 176 865 z "},"":{"ha":844,"x_min":88,"x_max":757,"o":"m 757 760 l 757 0 l 654 0 l 654 118 q 410 -18 581 -18 q 147 103 235 -18 q 88 350 88 185 l 88 760 l 190 760 l 190 350 q 226 172 190 232 q 303 101 253 126 q 418 76 354 76 q 608 171 540 76 q 654 369 654 239 l 654 760 l 757 760 m 269 1040 l 372 1040 l 372 865 l 269 865 l 269 1040 m 474 1040 l 576 1040 l 576 865 l 474 865 l 474 1040 z "},"":{"ha":744,"x_min":13,"x_max":732,"o":"m 183 -267 l 307 25 l 13 760 l 125 760 l 365 154 l 622 760 l 732 760 l 293 -267 l 183 -267 m 271 925 l 539 1086 l 586 1006 l 318 847 l 271 925 z "},"":{"ha":947,"x_min":88,"x_max":889,"o":"m 88 1026 l 190 1026 l 190 629 q 489 778 289 778 q 774 663 658 778 q 889 378 889 547 q 772 97 889 211 q 486 -18 656 -18 q 190 131 292 -18 l 190 -267 l 88 -267 l 88 1026 m 485 683 q 271 597 358 683 q 183 383 183 510 q 269 164 183 251 q 486 76 356 76 q 699 163 613 76 q 785 378 785 250 q 699 596 785 508 q 485 683 613 683 z "},"":{"ha":744,"x_min":13,"x_max":732,"o":"m 183 -267 l 307 25 l 13 760 l 125 760 l 365 154 l 622 760 l 732 760 l 293 -267 l 183 -267 m 215 1040 l 318 1040 l 318 865 l 215 865 l 215 1040 m 419 1040 l 522 1040 l 522 865 l 419 865 l 419 1040 z "},"":{"ha":1028,"x_min":15,"x_max":1013,"o":"m 15 0 l 456 1026 l 571 1026 l 1013 0 l 900 0 l 751 346 l 274 346 l 124 0 l 15 0 m 313 439 l 711 439 l 514 910 l 313 439 m 281 1235 l 749 1235 l 749 1146 l 281 1146 l 281 1235 z "},"":{"ha":949,"x_min":58,"x_max":861,"o":"m 861 760 l 861 0 l 758 0 l 758 133 q 630 17 697 51 q 465 -18 563 -18 q 174 95 290 -18 q 58 378 58 208 q 173 663 58 549 q 458 778 288 778 q 758 625 650 778 l 758 760 l 861 760 m 461 683 q 250 596 338 683 q 163 385 163 508 q 250 165 163 254 q 467 76 338 76 q 674 165 589 76 q 758 383 758 254 q 672 597 758 510 q 461 683 586 683 m 240 982 l 708 982 l 708 893 l 240 893 l 240 982 z "},"":{"ha":1028,"x_min":15,"x_max":1013,"o":"m 15 0 l 456 1026 l 571 1026 l 1013 0 l 900 0 l 751 346 l 274 346 l 124 0 l 15 0 m 313 439 l 711 439 l 514 910 l 313 439 m 303 1285 l 392 1285 q 428 1221 399 1240 q 514 1199 468 1199 q 600 1221 560 1199 q 636 1285 629 1240 l 725 1285 q 701 1206 715 1233 q 657 1158 686 1179 q 514 1118 601 1118 q 303 1285 333 1118 z "},"":{"ha":949,"x_min":58,"x_max":861,"o":"m 861 760 l 861 0 l 758 0 l 758 133 q 630 17 697 51 q 465 -18 563 -18 q 174 95 290 -18 q 58 378 58 208 q 173 663 58 549 q 458 778 288 778 q 758 625 650 778 l 758 760 l 861 760 m 461 683 q 250 596 338 683 q 163 385 163 508 q 250 165 163 254 q 467 76 338 76 q 674 165 589 76 q 758 383 758 254 q 672 597 758 510 q 461 683 586 683 m 263 1032 l 351 1032 q 388 968 358 988 q 474 946 428 946 q 560 968 519 946 q 596 1032 589 988 l 685 1032 q 660 953 675 981 q 617 906 646 926 q 474 865 561 865 q 263 1032 293 865 z "},"":{"ha":1028,"x_min":15,"x_max":1056,"o":"m 456 1026 l 572 1026 l 1013 0 q 939 -69 967 -32 q 911 -135 911 -107 q 935 -183 911 -164 q 993 -203 958 -203 q 1056 -189 1026 -203 l 1056 -253 q 985 -265 1017 -265 q 882 -230 922 -265 q 842 -140 842 -194 q 942 0 842 -61 l 900 0 l 751 346 l 274 346 l 124 0 l 15 0 l 456 1026 m 313 439 l 711 439 l 514 910 l 313 439 z "},"":{"ha":949,"x_min":58,"x_max":904,"o":"m 861 760 l 861 0 q 804 -51 828 -24 q 760 -135 760 -100 q 783 -184 760 -165 q 842 -203 806 -203 q 904 -189 875 -203 l 904 -253 q 833 -265 864 -265 q 731 -230 771 -265 q 690 -140 690 -194 q 789 0 690 -60 l 758 0 l 758 133 q 630 17 697 51 q 465 -18 563 -18 q 174 95 290 -18 q 58 378 58 208 q 173 663 58 549 q 458 778 288 778 q 758 625 650 778 l 758 760 l 861 760 m 461 683 q 250 596 338 683 q 163 385 163 508 q 250 165 163 254 q 467 76 338 76 q 674 165 589 76 q 758 383 758 254 q 672 597 758 510 q 461 683 586 683 z "},"":{"ha":1129,"x_min":61,"x_max":1069,"o":"m 956 269 l 1069 269 q 600 -18 914 -18 q 215 133 369 -18 q 61 510 61 285 q 213 892 61 740 q 593 1044 364 1044 q 879 968 753 1044 q 1065 760 1006 892 l 950 760 q 838 881 897 843 q 597 950 735 950 q 290 824 414 950 q 165 514 165 699 q 293 205 165 333 q 599 76 421 76 q 853 161 746 76 q 956 269 894 193 m 463 1178 l 731 1339 l 778 1258 l 510 1100 l 463 1178 z "},"":{"ha":899,"x_min":58,"x_max":844,"o":"m 728 224 l 844 224 q 725 68 790 119 q 472 -18 615 -18 q 178 97 297 -18 q 58 382 58 213 q 176 663 58 547 q 465 778 294 778 q 695 710 593 778 q 843 529 797 643 l 728 529 q 464 683 638 683 q 250 595 338 683 q 163 379 163 507 q 251 165 163 253 q 468 76 340 76 q 608 110 549 76 q 728 224 668 144 m 347 925 l 615 1086 l 663 1006 l 394 847 l 347 925 z "},"":{"ha":1129,"x_min":61,"x_max":1069,"o":"m 311 1165 l 513 1340 l 604 1340 l 803 1165 l 679 1165 l 560 1268 l 438 1165 l 311 1165 m 956 269 l 1069 269 q 600 -18 914 -18 q 215 133 369 -18 q 61 510 61 285 q 213 892 61 740 q 593 1044 364 1044 q 879 968 753 1044 q 1065 760 1006 892 l 950 760 q 838 881 897 843 q 597 950 735 950 q 290 824 414 950 q 165 514 165 699 q 293 205 165 333 q 599 76 421 76 q 853 161 746 76 q 956 269 894 193 z "},"":{"ha":899,"x_min":58,"x_max":844,"o":"m 200 899 l 401 1074 l 493 1074 l 692 899 l 568 899 l 449 1001 l 326 899 l 200 899 m 728 224 l 844 224 q 725 68 790 119 q 472 -18 615 -18 q 178 97 297 -18 q 58 382 58 213 q 176 663 58 547 q 465 778 294 778 q 695 710 593 778 q 843 529 797 643 l 728 529 q 464 683 638 683 q 250 595 338 683 q 163 379 163 507 q 251 165 163 253 q 468 76 340 76 q 608 110 549 76 q 728 224 668 144 z "},"":{"ha":1129,"x_min":61,"x_max":1069,"o":"m 506 1340 l 608 1340 l 608 1165 l 506 1165 l 506 1340 m 956 269 l 1069 269 q 600 -18 914 -18 q 215 133 369 -18 q 61 510 61 285 q 213 892 61 740 q 593 1044 364 1044 q 879 968 753 1044 q 1065 760 1006 892 l 950 760 q 838 881 897 843 q 597 950 735 950 q 290 824 414 950 q 165 514 165 699 q 293 205 165 333 q 599 76 421 76 q 853 161 746 76 q 956 269 894 193 z "},"":{"ha":899,"x_min":58,"x_max":844,"o":"m 394 1074 l 497 1074 l 497 899 l 394 899 l 394 1074 m 728 224 l 844 224 q 725 68 790 119 q 472 -18 615 -18 q 178 97 297 -18 q 58 382 58 213 q 176 663 58 547 q 465 778 294 778 q 695 710 593 778 q 843 529 797 643 l 728 529 q 464 683 638 683 q 250 595 338 683 q 163 379 163 507 q 251 165 163 253 q 468 76 340 76 q 608 110 549 76 q 728 224 668 144 z "},"":{"ha":1129,"x_min":61,"x_max":1069,"o":"m 956 269 l 1069 269 q 600 -18 914 -18 q 215 133 369 -18 q 61 510 61 285 q 213 892 61 740 q 593 1044 364 1044 q 879 968 753 1044 q 1065 760 1006 892 l 950 760 q 838 881 897 843 q 597 950 735 950 q 290 824 414 950 q 165 514 165 699 q 293 205 165 333 q 599 76 421 76 q 853 161 746 76 q 956 269 894 193 m 839 1293 l 638 1118 l 546 1118 l 347 1293 l 471 1293 l 590 1190 l 713 1293 l 839 1293 z "},"":{"ha":899,"x_min":58,"x_max":844,"o":"m 728 224 l 844 224 q 725 68 790 119 q 472 -18 615 -18 q 178 97 297 -18 q 58 382 58 213 q 176 663 58 547 q 465 778 294 778 q 695 710 593 778 q 843 529 797 643 l 728 529 q 464 683 638 683 q 250 595 338 683 q 163 379 163 507 q 251 165 163 253 q 468 76 340 76 q 608 110 549 76 q 728 224 668 144 m 710 1040 l 508 865 l 417 865 l 218 1040 l 342 1040 l 461 938 l 583 1040 l 710 1040 z "},"":{"ha":1033,"x_min":106,"x_max":972,"o":"m 106 0 l 106 1026 l 347 1026 q 577 1008 488 1026 q 739 946 667 989 q 972 510 972 808 q 735 76 972 217 q 382 0 604 0 l 106 0 m 208 93 l 351 93 q 574 115 488 93 q 721 185 660 136 q 868 514 868 304 q 819 722 868 629 q 682 867 771 814 q 351 933 572 933 l 208 933 l 208 93 m 707 1293 l 506 1118 l 414 1118 l 215 1293 l 339 1293 l 458 1190 l 581 1293 l 707 1293 z "},"":{"ha":1007,"x_min":58,"x_max":1063,"o":"m 864 1026 l 864 0 l 761 0 l 761 138 q 635 19 704 56 q 472 -18 567 -18 q 177 96 296 -18 q 58 379 58 210 q 174 663 58 549 q 463 778 290 778 q 761 639 646 778 l 761 1026 l 864 1026 m 460 683 q 249 596 336 683 q 163 383 163 508 q 251 165 163 253 q 469 76 339 76 q 678 167 592 76 q 765 382 765 257 q 676 595 765 507 q 460 683 586 683 m 893 760 l 960 1026 l 1063 1026 l 996 760 l 893 760 z "},"":{"ha":1097,"x_min":36,"x_max":1036,"o":"m 169 482 l 36 482 l 36 575 l 169 575 l 169 1026 l 411 1026 q 641 1008 551 1026 q 803 946 731 989 q 976 766 917 878 q 1036 510 1036 654 q 799 76 1036 217 q 446 0 668 0 l 169 0 l 169 482 m 272 482 l 272 93 l 415 93 q 638 115 551 93 q 785 185 724 136 q 932 514 932 304 q 883 722 932 629 q 746 867 835 814 q 415 933 636 933 l 272 933 l 272 575 l 557 575 l 557 482 l 272 482 z "},"":{"ha":951,"x_min":58,"x_max":951,"o":"m 864 1026 l 864 924 l 951 924 l 951 836 l 864 836 l 864 0 l 761 0 l 761 138 q 635 19 704 56 q 472 -18 567 -18 q 177 96 296 -18 q 58 379 58 210 q 174 663 58 549 q 463 778 290 778 q 761 639 646 778 l 761 836 l 550 836 l 550 924 l 761 924 l 761 1026 l 864 1026 m 460 683 q 249 596 336 683 q 163 385 163 508 q 250 165 163 253 q 469 76 338 76 q 678 167 592 76 q 765 382 765 257 q 676 595 765 507 q 460 683 586 683 z "},"":{"ha":744,"x_min":106,"x_max":667,"o":"m 106 0 l 106 1026 l 667 1026 l 667 933 l 208 933 l 208 565 l 651 565 l 651 472 l 208 472 l 208 93 l 667 93 l 667 0 l 106 0 m 139 1235 l 607 1235 l 607 1146 l 139 1146 l 139 1235 z "},"":{"ha":903,"x_min":58,"x_max":849,"o":"m 849 346 l 161 346 q 253 155 167 233 q 457 76 340 76 q 617 124 543 76 q 722 250 690 172 l 829 250 q 718 83 800 161 q 460 -18 610 -18 q 175 98 292 -18 q 58 383 58 214 q 173 663 58 549 q 453 778 288 778 q 653 724 561 778 q 797 581 746 671 q 849 346 849 489 m 164 439 l 746 439 q 641 618 719 553 q 451 683 563 683 q 264 616 343 683 q 164 439 185 549 m 218 982 l 686 982 l 686 893 l 218 893 l 218 982 z "},"":{"ha":744,"x_min":106,"x_max":667,"o":"m 175 1332 l 264 1332 q 300 1268 271 1288 q 386 1246 340 1246 q 472 1268 432 1246 q 508 1332 501 1288 l 597 1332 q 573 1253 588 1281 q 529 1206 558 1226 q 386 1165 474 1165 q 175 1332 206 1165 m 106 0 l 106 1026 l 667 1026 l 667 933 l 208 933 l 208 565 l 651 565 l 651 472 l 208 472 l 208 93 l 667 93 l 667 0 l 106 0 z "},"":{"ha":903,"x_min":58,"x_max":849,"o":"m 294 1065 l 383 1065 q 419 1001 390 1021 q 506 979 460 979 q 592 1001 551 979 q 628 1065 621 1021 l 717 1065 q 692 987 707 1014 q 649 939 678 960 q 506 899 593 899 q 294 1065 325 899 m 849 346 l 161 346 q 253 155 167 233 q 457 76 340 76 q 617 124 543 76 q 722 250 690 172 l 829 250 q 718 83 800 161 q 460 -18 610 -18 q 175 98 292 -18 q 58 383 58 214 q 173 663 58 549 q 453 778 288 778 q 653 724 561 778 q 797 581 746 671 q 849 346 849 489 m 164 439 l 746 439 q 641 618 719 553 q 451 683 563 683 q 264 616 343 683 q 164 439 185 549 z "},"":{"ha":744,"x_min":106,"x_max":667,"o":"m 106 0 l 106 1026 l 667 1026 l 667 933 l 208 933 l 208 565 l 651 565 l 651 472 l 208 472 l 208 93 l 667 93 l 667 0 l 106 0 m 349 1293 l 451 1293 l 451 1118 l 349 1118 l 349 1293 z "},"":{"ha":903,"x_min":58,"x_max":849,"o":"m 849 346 l 161 346 q 253 155 167 233 q 457 76 340 76 q 617 124 543 76 q 722 250 690 172 l 829 250 q 718 83 800 161 q 460 -18 610 -18 q 175 98 292 -18 q 58 383 58 214 q 173 663 58 549 q 453 778 288 778 q 653 724 561 778 q 797 581 746 671 q 849 346 849 489 m 164 439 l 746 439 q 641 618 719 553 q 451 683 563 683 q 264 616 343 683 q 164 439 185 549 m 400 1040 l 503 1040 l 503 865 l 400 865 l 400 1040 z "},"":{"ha":744,"x_min":106,"x_max":710,"o":"m 106 1026 l 667 1026 l 667 933 l 208 933 l 208 565 l 651 565 l 651 472 l 208 472 l 208 93 l 667 93 l 667 0 q 565 -135 565 -74 q 588 -184 565 -165 q 647 -203 611 -203 q 710 -189 681 -203 l 710 -253 q 639 -265 669 -265 q 536 -230 576 -265 q 496 -140 496 -194 q 594 0 496 -60 l 106 0 l 106 1026 z "},"":{"ha":903,"x_min":58,"x_max":849,"o":"m 849 346 l 161 346 q 254 155 168 233 q 457 76 340 76 q 617 124 544 76 q 724 250 690 172 l 831 250 q 772 142 806 182 q 579 -51 739 101 q 535 -136 535 -96 q 558 -183 535 -164 q 617 -203 582 -203 q 679 -189 650 -203 l 679 -253 q 608 -265 639 -265 q 506 -230 546 -265 q 465 -140 465 -194 q 553 -7 465 -64 q 460 -18 507 -18 q 175 98 292 -18 q 58 383 58 214 q 173 663 58 549 q 453 778 288 778 q 653 725 561 778 q 797 581 746 672 q 849 346 849 489 m 164 439 l 746 439 q 641 618 719 553 q 451 683 563 683 q 264 616 343 683 q 164 439 185 549 z "},"":{"ha":744,"x_min":106,"x_max":667,"o":"m 106 0 l 106 1026 l 667 1026 l 667 933 l 208 933 l 208 565 l 651 565 l 651 472 l 208 472 l 208 93 l 667 93 l 667 0 l 106 0 m 646 1293 l 444 1118 l 353 1118 l 154 1293 l 278 1293 l 397 1190 l 519 1293 l 646 1293 z "},"":{"ha":903,"x_min":58,"x_max":849,"o":"m 849 346 l 161 346 q 253 155 167 233 q 457 76 340 76 q 617 124 543 76 q 722 250 690 172 l 829 250 q 718 83 800 161 q 460 -18 610 -18 q 175 98 292 -18 q 58 383 58 214 q 173 663 58 549 q 453 778 288 778 q 653 724 561 778 q 797 581 746 671 q 849 346 849 489 m 164 439 l 746 439 q 641 618 719 553 q 451 683 563 683 q 264 616 343 683 q 164 439 185 549 m 697 1040 l 496 865 l 404 865 l 206 1040 l 329 1040 l 449 938 l 571 1040 l 697 1040 z "},"":{"ha":1211,"x_min":61,"x_max":1154,"o":"m 325 1165 l 526 1340 l 618 1340 l 817 1165 l 693 1165 l 574 1268 l 451 1165 l 325 1165 m 457 474 l 1154 474 q 1019 156 1143 299 q 619 -18 867 -18 q 222 136 383 -18 q 61 515 61 290 q 219 891 61 738 q 606 1044 376 1044 q 907 964 774 1044 q 1092 753 1040 883 l 976 753 q 828 898 924 846 q 614 950 733 950 q 294 824 424 950 q 165 513 165 697 q 296 203 165 329 q 615 76 426 76 q 922 199 800 76 q 1031 381 1008 285 l 457 381 l 457 474 z "},"":{"ha":935,"x_min":58,"x_max":847,"o":"m 258 899 l 460 1074 l 551 1074 l 750 899 l 626 899 l 507 1001 l 385 899 l 258 899 m 847 760 l 847 136 q 831 -42 847 25 q 776 -162 815 -110 q 468 -299 674 -299 q 226 -228 325 -299 q 86 -24 128 -157 l 186 -24 q 261 -128 229 -100 q 465 -204 342 -204 q 618 -168 553 -204 q 714 -67 683 -132 q 744 103 744 -1 l 744 154 q 454 -18 657 -18 q 173 96 288 -18 q 58 376 58 210 q 169 663 58 549 q 447 778 281 778 q 744 625 632 778 l 744 760 l 847 760 m 453 683 q 244 599 326 683 q 163 385 163 515 q 246 165 163 253 q 454 76 329 76 q 661 166 578 76 q 744 389 744 256 q 660 598 744 513 q 453 683 575 683 z "},"":{"ha":1211,"x_min":61,"x_max":1154,"o":"m 457 474 l 1154 474 q 1019 156 1143 299 q 619 -18 867 -18 q 222 136 383 -18 q 61 515 61 290 q 219 891 61 738 q 606 1044 376 1044 q 907 964 774 1044 q 1092 753 1040 883 l 976 753 q 828 898 924 846 q 614 950 733 950 q 294 824 424 950 q 165 513 165 697 q 296 203 165 329 q 615 76 426 76 q 922 199 800 76 q 1031 381 1008 285 l 457 381 l 457 474 m 394 1285 l 483 1285 q 519 1221 490 1240 q 606 1199 560 1199 q 692 1221 651 1199 q 728 1285 721 1240 l 817 1285 q 792 1206 807 1233 q 749 1158 778 1179 q 606 1118 693 1118 q 394 1285 425 1118 z "},"":{"ha":935,"x_min":58,"x_max":847,"o":"m 847 760 l 847 136 q 831 -42 847 25 q 776 -162 815 -110 q 468 -299 674 -299 q 226 -228 325 -299 q 86 -24 128 -157 l 186 -24 q 261 -128 229 -100 q 465 -204 342 -204 q 618 -168 553 -204 q 714 -67 683 -132 q 744 103 744 -1 l 744 154 q 454 -18 657 -18 q 173 96 288 -18 q 58 376 58 210 q 169 663 58 549 q 447 778 281 778 q 744 625 632 778 l 744 760 l 847 760 m 453 683 q 244 599 326 683 q 163 385 163 515 q 246 165 163 253 q 454 76 329 76 q 661 166 578 76 q 744 389 744 256 q 660 598 744 513 q 453 683 575 683 m 256 1032 l 344 1032 q 381 968 351 988 q 467 946 421 946 q 553 968 513 946 q 589 1032 582 988 l 678 1032 q 653 953 668 981 q 610 906 639 926 q 467 865 554 865 q 256 1032 286 865 z "},"":{"ha":1211,"x_min":61,"x_max":1154,"o":"m 519 1340 l 622 1340 l 622 1165 l 519 1165 l 519 1340 m 457 474 l 1154 474 q 1019 156 1143 299 q 619 -18 867 -18 q 222 136 383 -18 q 61 515 61 290 q 219 891 61 738 q 606 1044 376 1044 q 907 964 774 1044 q 1092 753 1040 883 l 976 753 q 828 898 924 846 q 614 950 733 950 q 294 824 424 950 q 165 513 165 697 q 296 203 165 329 q 615 76 426 76 q 922 199 800 76 q 1031 381 1008 285 l 457 381 l 457 474 z "},"":{"ha":935,"x_min":58,"x_max":847,"o":"m 453 1074 l 556 1074 l 556 899 l 453 899 l 453 1074 m 847 760 l 847 136 q 831 -42 847 25 q 776 -162 815 -110 q 468 -299 674 -299 q 226 -228 325 -299 q 86 -24 128 -157 l 186 -24 q 261 -128 229 -100 q 465 -204 342 -204 q 618 -168 553 -204 q 714 -67 683 -132 q 744 103 744 -1 l 744 154 q 454 -18 657 -18 q 173 96 288 -18 q 58 376 58 210 q 169 663 58 549 q 447 778 281 778 q 744 625 632 778 l 744 760 l 847 760 m 453 683 q 244 599 326 683 q 163 385 163 515 q 246 165 163 253 q 454 76 329 76 q 661 166 578 76 q 744 389 744 256 q 660 598 744 513 q 453 683 575 683 z "},"":{"ha":1211,"x_min":61,"x_max":1154,"o":"m 457 474 l 1154 474 q 1019 156 1143 299 q 619 -18 867 -18 q 222 136 383 -18 q 61 515 61 290 q 219 891 61 738 q 606 1044 376 1044 q 907 964 774 1044 q 1092 753 1040 883 l 976 753 q 828 898 924 846 q 614 950 733 950 q 294 824 424 950 q 165 513 165 697 q 296 203 165 329 q 615 76 426 76 q 922 199 800 76 q 1031 381 1008 285 l 457 381 l 457 474 m 503 -312 l 569 -74 l 672 -74 l 606 -312 l 503 -312 z "},"":{"ha":935,"x_min":58,"x_max":847,"o":"m 847 760 l 847 136 q 831 -42 847 25 q 776 -162 815 -110 q 468 -299 674 -299 q 226 -228 325 -299 q 86 -24 128 -157 l 186 -24 q 261 -128 229 -100 q 465 -204 342 -204 q 618 -168 553 -204 q 714 -67 683 -132 q 744 103 744 -1 l 744 154 q 454 -18 657 -18 q 173 96 288 -18 q 58 376 58 210 q 169 663 58 549 q 447 778 281 778 q 744 625 632 778 l 744 760 l 847 760 m 453 683 q 244 599 326 683 q 163 385 163 515 q 246 165 163 253 q 454 76 329 76 q 661 166 578 76 q 744 389 744 256 q 660 598 744 513 q 453 683 575 683 m 533 1097 l 467 858 l 364 858 l 431 1097 l 533 1097 z "},"":{"ha":949,"x_min":106,"x_max":843,"o":"m 228 1165 l 429 1340 l 521 1340 l 719 1165 l 596 1165 l 476 1268 l 354 1165 l 228 1165 m 106 0 l 106 1026 l 208 1026 l 208 575 l 740 575 l 740 1026 l 843 1026 l 843 0 l 740 0 l 740 482 l 208 482 l 208 0 l 106 0 z "},"":{"ha":847,"x_min":88,"x_max":760,"o":"m 146 1165 l 347 1340 l 439 1340 l 638 1165 l 514 1165 l 394 1268 l 272 1165 l 146 1165 m 88 0 l 88 1026 l 190 1026 l 190 661 q 432 778 271 778 q 694 660 604 778 q 760 408 760 572 l 760 0 l 657 0 l 657 408 q 606 600 657 536 q 422 683 540 683 q 232 589 297 683 q 190 417 190 532 l 190 0 l 88 0 z "},"":{"ha":949,"x_min":17,"x_max":936,"o":"m 843 785 l 843 0 l 740 0 l 740 482 l 208 482 l 208 0 l 106 0 l 106 785 l 17 785 l 17 874 l 106 874 l 106 1026 l 208 1026 l 208 874 l 740 874 l 740 1026 l 843 1026 l 843 874 l 936 874 l 936 785 l 843 785 m 740 785 l 208 785 l 208 575 l 740 575 l 740 785 z "},"":{"ha":847,"x_min":13,"x_max":758,"o":"m 189 854 l 189 661 q 431 778 269 778 q 693 660 603 778 q 758 408 758 572 l 758 0 l 656 0 l 656 408 q 604 600 656 536 q 421 683 539 683 q 231 589 296 683 q 189 417 189 532 l 189 0 l 86 0 l 86 854 l 13 854 l 13 943 l 88 943 l 88 1026 l 190 1026 l 190 943 l 328 943 l 328 854 l 189 854 z "},"":{"ha":314,"x_min":-44,"x_max":358,"o":"m 313 1297 l 358 1233 q 304 1185 342 1206 q 232 1165 267 1165 q 140 1196 203 1165 q 85 1210 106 1210 q 52 1203 65 1210 q 11 1174 39 1197 l 1 1165 l -44 1229 q 85 1297 8 1297 q 167 1274 117 1297 q 233 1254 211 1254 q 313 1297 271 1254 m 106 0 l 106 1026 l 208 1026 l 208 0 l 106 0 z "},"":{"ha":278,"x_min":-62,"x_max":340,"o":"m 294 1031 l 340 967 q 286 919 324 939 q 214 899 249 899 q 122 929 185 899 q 67 943 88 943 q 34 937 47 943 q -7 907 21 931 l -17 899 l -62 963 q 67 1031 -10 1031 q 149 1007 99 1031 q 215 988 193 988 q 294 1031 253 988 m 88 0 l 88 760 l 190 760 l 190 0 l 88 0 z "},"":{"ha":314,"x_min":-78,"x_max":390,"o":"m 106 0 l 106 1026 l 208 1026 l 208 0 l 106 0 m -78 1235 l 390 1235 l 390 1146 l -78 1146 l -78 1235 z "},"":{"ha":278,"x_min":-96,"x_max":372,"o":"m 88 0 l 88 760 l 190 760 l 190 0 l 88 0 m -96 982 l 372 982 l 372 893 l -96 893 l -96 982 z "},"":{"ha":314,"x_min":-54,"x_max":368,"o":"m -54 1332 l 35 1332 q 71 1268 42 1288 q 157 1246 111 1246 q 243 1268 203 1246 q 279 1332 272 1288 l 368 1332 q 344 1253 358 1281 q 300 1206 329 1226 q 157 1165 244 1165 q -54 1332 -24 1165 m 106 0 l 106 1026 l 208 1026 l 208 0 l 106 0 z "},"":{"ha":278,"x_min":-72,"x_max":350,"o":"m -72 1065 l 17 1065 q 53 1001 24 1021 q 139 979 93 979 q 225 1001 185 979 q 261 1065 254 1021 l 350 1065 q 326 987 340 1014 q 282 939 311 960 q 139 899 226 899 q -72 1065 -42 899 m 88 0 l 88 760 l 190 760 l 190 0 l 88 0 z "},"":{"ha":314,"x_min":38,"x_max":251,"o":"m 208 1026 l 208 0 q 151 -51 175 -24 q 107 -135 107 -100 q 130 -184 107 -165 q 189 -203 153 -203 q 251 -189 222 -203 l 251 -253 q 181 -265 213 -265 q 78 -230 118 -265 q 38 -140 38 -194 q 136 0 38 -60 l 106 0 l 106 1026 l 208 1026 z "},"":{"ha":278,"x_min":19,"x_max":233,"o":"m 190 760 l 190 0 q 133 -51 157 -24 q 89 -135 89 -100 q 112 -184 89 -165 q 171 -203 135 -203 q 233 -189 204 -203 l 233 -253 q 163 -265 194 -265 q 60 -230 100 -265 q 19 -140 19 -194 q 118 0 19 -60 l 88 0 l 88 760 l 190 760 m 88 851 l 88 1026 l 190 1026 l 190 851 l 88 851 z "},"":{"ha":314,"x_min":106,"x_max":208,"o":"m 106 0 l 106 1026 l 208 1026 l 208 0 l 106 0 m 106 1293 l 208 1293 l 208 1118 l 106 1118 l 106 1293 z "},"":{"ha":278,"x_min":88,"x_max":190,"o":"m 88 0 l 88 760 l 190 760 l 190 0 l 88 0 z "},"":{"ha":953,"x_min":106,"x_max":842,"o":"m 106 0 l 106 1026 l 208 1026 l 208 0 l 106 0 m 842 1026 l 842 321 q 801 114 842 190 q 568 -19 736 -19 q 373 50 446 -19 q 293 243 300 119 l 394 243 q 447 120 400 165 q 569 75 493 75 q 739 321 739 75 l 739 1026 l 842 1026 z "},"":{"ha":458,"x_min":88,"x_max":369,"o":"m 88 0 l 88 760 l 190 760 l 190 0 l 88 0 m 88 851 l 88 1026 l 190 1026 l 190 851 l 88 851 m 369 760 l 369 53 q 349 -116 369 -58 q 272 -215 328 -174 q 113 -267 207 -262 l 113 -168 q 233 -114 199 -162 q 267 53 267 -65 l 267 760 l 369 760 m 267 851 l 267 1026 l 369 1026 l 369 851 l 267 851 z "},"":{"ha":669,"x_min":15,"x_max":758,"o":"m 267 1165 l 468 1340 l 560 1340 l 758 1165 l 635 1165 l 515 1268 l 393 1165 l 267 1165 m 564 1026 l 564 321 q 524 114 564 190 q 290 -19 458 -19 q 95 50 168 -19 q 15 243 22 119 l 117 243 q 169 120 122 165 q 292 75 215 75 q 461 321 461 75 l 461 1026 l 564 1026 z "},"":{"ha":282,"x_min":-103,"x_max":389,"o":"m 194 760 l 194 53 q 174 -116 194 -58 q 97 -215 153 -174 q -62 -267 32 -262 l -62 -168 q 58 -114 24 -162 q 92 53 92 -65 l 92 760 l 194 760 m -103 904 l 99 1079 l 190 1079 l 389 904 l 265 904 l 146 1007 l 24 904 l -103 904 z "},"":{"ha":821,"x_min":106,"x_max":813,"o":"m 106 0 l 106 1026 l 208 1026 l 208 436 l 683 1026 l 813 1026 l 407 526 l 813 0 l 683 0 l 342 444 l 208 281 l 208 0 l 106 0 m 307 -312 l 374 -74 l 476 -74 l 410 -312 l 307 -312 z "},"":{"ha":697,"x_min":88,"x_max":690,"o":"m 88 0 l 88 1026 l 190 1026 l 190 299 l 544 760 l 671 760 l 375 378 l 690 0 l 563 0 l 310 304 l 190 157 l 190 0 l 88 0 m 246 -312 l 313 -74 l 415 -74 l 349 -312 l 246 -312 z "},"":{"ha":697,"x_min":88,"x_max":690,"o":"m 190 760 l 190 0 l 88 0 l 88 760 l 190 760 m 544 760 l 671 760 l 375 378 l 690 0 l 563 0 l 249 378 l 544 760 z "},"":{"ha":642,"x_min":106,"x_max":633,"o":"m 106 0 l 106 1026 l 208 1026 l 208 93 l 633 93 l 633 0 l 106 0 m 164 1178 l 432 1339 l 479 1258 l 211 1100 l 164 1178 z "},"":{"ha":278,"x_min":-19,"x_max":296,"o":"m 88 0 l 88 1026 l 190 1026 l 190 0 l 88 0 m -19 1178 l 249 1339 l 296 1258 l 28 1100 l -19 1178 z "},"":{"ha":642,"x_min":106,"x_max":633,"o":"m 106 0 l 106 1026 l 208 1026 l 208 93 l 633 93 l 633 0 l 106 0 m 218 -312 l 285 -74 l 388 -74 l 321 -312 l 218 -312 z "},"":{"ha":278,"x_min":36,"x_max":206,"o":"m 88 0 l 88 1026 l 190 1026 l 190 0 l 88 0 m 36 -312 l 103 -74 l 206 -74 l 139 -312 l 36 -312 z "},"":{"ha":642,"x_min":106,"x_max":633,"o":"m 106 0 l 106 1026 l 208 1026 l 208 93 l 633 93 l 633 0 l 106 0 m 379 760 l 446 1026 l 549 1026 l 482 760 l 379 760 z "},"":{"ha":340,"x_min":88,"x_max":396,"o":"m 88 0 l 88 1026 l 190 1026 l 190 0 l 88 0 m 226 760 l 293 1026 l 396 1026 l 329 760 l 226 760 z "},"":{"ha":642,"x_min":106,"x_max":633,"o":"m 363 426 l 363 601 l 465 601 l 465 426 l 363 426 m 106 0 l 106 1026 l 208 1026 l 208 93 l 633 93 l 633 0 l 106 0 z "},"":{"ha":444,"x_min":88,"x_max":396,"o":"m 88 0 l 88 1026 l 190 1026 l 190 0 l 88 0 m 293 347 l 293 522 l 396 522 l 396 347 l 293 347 z "},"":{"ha":718,"x_min":36,"x_max":697,"o":"m 169 0 l 169 421 l 36 311 l 36 426 l 169 538 l 169 1026 l 272 1026 l 272 606 l 494 790 l 494 674 l 272 490 l 272 93 l 697 93 l 697 0 l 169 0 z "},"":{"ha":417,"x_min":50,"x_max":375,"o":"m 158 0 l 158 481 l 50 407 l 50 507 l 158 581 l 158 1026 l 261 1026 l 261 626 l 375 703 l 375 601 l 261 526 l 261 0 l 158 0 z "},"":{"ha":1028,"x_min":106,"x_max":922,"o":"m 106 0 l 106 1026 l 244 1026 l 819 175 l 819 1026 l 922 1026 l 922 0 l 819 0 l 208 903 l 208 0 l 106 0 m 357 1178 l 625 1339 l 672 1258 l 404 1100 l 357 1178 z "},"":{"ha":847,"x_min":88,"x_max":760,"o":"m 88 0 l 88 760 l 190 760 l 190 661 q 435 778 286 778 q 693 660 599 778 q 744 553 729 611 q 760 399 760 494 l 760 0 l 657 0 l 657 399 q 607 601 657 536 q 422 683 540 683 q 231 590 294 683 q 190 418 190 531 l 190 0 l 88 0 m 267 925 l 535 1086 l 582 1006 l 314 847 l 267 925 z "},"":{"ha":1028,"x_min":106,"x_max":922,"o":"m 106 0 l 106 1026 l 244 1026 l 819 175 l 819 1026 l 922 1026 l 922 0 l 819 0 l 208 903 l 208 0 l 106 0 m 411 -312 l 478 -74 l 581 -74 l 514 -312 l 411 -312 z "},"":{"ha":847,"x_min":88,"x_max":760,"o":"m 88 0 l 88 760 l 190 760 l 190 661 q 435 778 286 778 q 693 660 599 778 q 744 553 729 611 q 760 399 760 494 l 760 0 l 657 0 l 657 399 q 607 601 657 536 q 422 683 540 683 q 231 590 294 683 q 190 418 190 531 l 190 0 l 88 0 m 321 -312 l 388 -74 l 490 -74 l 424 -312 l 321 -312 z "},"":{"ha":1028,"x_min":106,"x_max":922,"o":"m 106 0 l 106 1026 l 244 1026 l 819 175 l 819 1026 l 922 1026 l 922 0 l 819 0 l 208 903 l 208 0 l 106 0 m 760 1293 l 558 1118 l 467 1118 l 268 1293 l 392 1293 l 511 1190 l 633 1293 l 760 1293 z "},"":{"ha":847,"x_min":88,"x_max":760,"o":"m 88 0 l 88 760 l 190 760 l 190 661 q 435 778 286 778 q 693 660 599 778 q 744 553 729 611 q 760 399 760 494 l 760 0 l 657 0 l 657 399 q 607 601 657 536 q 422 683 540 683 q 231 590 294 683 q 190 418 190 531 l 190 0 l 88 0 m 669 1040 l 468 865 l 376 865 l 178 1040 l 301 1040 l 421 938 l 543 1040 l 669 1040 z "},"":{"ha":847,"x_min":88,"x_max":760,"o":"m 88 1040 l 190 1040 l 190 865 l 88 865 l 88 1040 m 88 0 l 88 760 l 190 760 l 190 661 q 435 778 286 778 q 693 660 599 778 q 744 553 729 611 q 760 399 760 494 l 760 0 l 657 0 l 657 399 q 607 601 657 536 q 422 683 540 683 q 231 590 294 683 q 190 418 190 531 l 190 0 l 88 0 z "},"":{"ha":1028,"x_min":106,"x_max":922,"o":"m 922 0 q 913 -105 922 -61 q 876 -191 903 -149 q 792 -256 849 -233 q 651 -278 736 -278 l 563 -278 l 563 -185 l 654 -185 q 790 -147 760 -185 q 819 0 819 -110 l 208 903 l 208 0 l 106 0 l 106 1026 l 244 1026 l 819 175 l 819 1026 l 922 1026 l 922 0 z "},"":{"ha":847,"x_min":88,"x_max":760,"o":"m 760 132 q 715 -136 760 -54 q 615 -249 665 -228 q 429 -279 543 -279 l 429 -193 q 600 -140 554 -193 q 657 76 657 -76 l 657 399 q 607 601 657 536 q 422 683 540 683 q 231 590 294 683 q 190 418 190 531 l 190 0 l 88 0 l 88 760 l 190 760 l 190 661 q 435 778 286 778 q 693 660 599 778 q 744 553 729 611 q 760 399 760 494 l 760 132 z "},"":{"ha":1207,"x_min":61,"x_max":1146,"o":"m 604 1044 q 987 888 828 1044 q 1146 513 1146 732 q 986 138 1146 294 q 604 -18 826 -18 q 219 139 378 -18 q 61 519 61 296 q 222 889 61 733 q 604 1044 383 1044 m 604 950 q 296 822 426 950 q 165 517 165 693 q 294 206 165 335 q 604 76 422 76 q 913 205 783 76 q 1042 511 1042 333 q 913 821 1042 692 q 604 950 783 950 m 369 1235 l 838 1235 l 838 1146 l 369 1146 l 369 1235 z "},"":{"ha":910,"x_min":58,"x_max":851,"o":"m 457 778 q 740 665 628 778 q 851 378 851 551 q 742 94 851 207 q 465 -18 632 -18 q 174 96 289 -18 q 58 385 58 210 q 173 665 58 551 q 457 778 288 778 m 457 683 q 247 597 331 683 q 163 382 163 511 q 247 163 163 249 q 463 76 332 76 q 667 161 586 76 q 747 376 747 246 q 665 596 747 508 q 457 683 582 683 m 221 982 l 689 982 l 689 893 l 221 893 l 221 982 z "},"":{"ha":1207,"x_min":61,"x_max":1146,"o":"m 392 1332 l 481 1332 q 517 1268 488 1288 q 603 1246 557 1246 q 689 1268 649 1246 q 725 1332 718 1288 l 814 1332 q 790 1253 804 1281 q 746 1206 775 1226 q 603 1165 690 1165 q 392 1332 422 1165 m 604 1044 q 987 888 828 1044 q 1146 513 1146 732 q 986 138 1146 294 q 604 -18 826 -18 q 219 139 378 -18 q 61 519 61 296 q 222 889 61 733 q 604 1044 383 1044 m 604 950 q 296 822 426 950 q 165 517 165 693 q 294 206 165 335 q 604 76 422 76 q 913 205 783 76 q 1042 511 1042 333 q 913 821 1042 692 q 604 950 783 950 z "},"":{"ha":910,"x_min":58,"x_max":851,"o":"m 244 1065 l 333 1065 q 369 1001 340 1021 q 456 979 410 979 q 542 1001 501 979 q 578 1065 571 1021 l 667 1065 q 642 987 657 1014 q 599 939 628 960 q 456 899 543 899 q 244 1065 275 899 m 457 778 q 740 665 628 778 q 851 378 851 551 q 742 94 851 207 q 465 -18 632 -18 q 174 96 289 -18 q 58 385 58 210 q 173 665 58 551 q 457 778 288 778 m 457 683 q 247 597 331 683 q 163 382 163 511 q 247 163 163 249 q 463 76 332 76 q 667 161 586 76 q 747 376 747 246 q 665 596 747 508 q 457 683 582 683 z "},"":{"ha":1207,"x_min":61,"x_max":1146,"o":"m 604 1044 q 987 888 828 1044 q 1146 513 1146 732 q 986 138 1146 294 q 604 -18 826 -18 q 219 139 378 -18 q 61 519 61 296 q 222 889 61 733 q 604 1044 383 1044 m 604 950 q 296 822 426 950 q 165 517 165 693 q 294 206 165 335 q 604 76 422 76 q 913 205 783 76 q 1042 511 1042 333 q 913 821 1042 692 q 604 950 783 950 m 379 1165 l 617 1336 l 669 1268 l 428 1100 l 379 1165 m 651 1165 l 889 1336 l 942 1268 l 700 1100 l 651 1165 z "},"":{"ha":910,"x_min":58,"x_max":851,"o":"m 457 778 q 740 665 628 778 q 851 378 851 551 q 742 94 851 207 q 465 -18 632 -18 q 174 96 289 -18 q 58 385 58 210 q 173 665 58 551 q 457 778 288 778 m 457 683 q 247 597 331 683 q 163 382 163 511 q 247 163 163 249 q 463 76 332 76 q 667 161 586 76 q 747 376 747 246 q 665 596 747 508 q 457 683 582 683 m 231 913 l 468 1083 l 521 1015 l 279 847 l 231 913 m 503 913 l 740 1083 l 793 1015 l 551 847 l 503 913 z "},"":{"ha":1658,"x_min":61,"x_max":1581,"o":"m 1035 1026 l 1581 1026 l 1581 933 l 1138 933 l 1138 565 l 1565 565 l 1565 472 l 1138 472 l 1138 93 l 1581 93 l 1581 0 l 1035 0 l 1035 210 q 618 -18 903 -18 q 219 133 378 -18 q 61 515 61 285 q 215 893 61 742 q 600 1044 368 1044 q 858 987 744 1044 q 1035 822 971 929 l 1035 1026 m 600 950 q 281 819 403 950 q 197 681 228 761 q 165 521 165 601 q 292 203 165 329 q 610 76 418 76 q 915 201 794 76 q 1036 517 1036 326 q 913 828 1036 706 q 600 950 790 950 z "},"":{"ha":1579,"x_min":58,"x_max":1525,"o":"m 1522 344 l 844 344 q 908 185 850 254 q 1144 76 1001 76 q 1406 249 1322 76 l 1508 249 q 1392 69 1483 153 q 1150 -18 1292 -18 q 936 38 1031 -18 q 793 192 842 93 q 651 32 731 82 q 460 -18 571 -18 q 174 97 290 -18 q 58 381 58 213 q 172 663 58 549 q 450 778 285 778 q 793 575 671 778 q 1135 778 911 778 q 1413 668 1300 778 q 1525 397 1525 558 q 1522 344 1525 392 m 844 438 l 1426 438 q 1326 615 1408 547 q 1132 683 1244 683 q 949 618 1026 683 q 844 438 872 553 m 661 597 q 619 640 661 597 q 453 683 578 683 q 245 597 328 683 q 163 379 163 510 q 248 164 163 251 q 460 76 333 76 q 663 164 581 76 q 744 379 744 251 q 661 597 744 510 z "},"":{"ha":843,"x_min":106,"x_max":801,"o":"m 499 383 l 786 0 l 658 0 l 313 465 q 542 483 471 465 q 697 700 697 525 q 589 896 697 844 q 353 933 510 933 l 208 933 l 208 0 l 106 0 l 106 1026 l 360 1026 q 647 976 556 1026 q 801 696 801 893 q 724 479 801 560 q 499 383 646 399 m 264 1178 l 532 1339 l 579 1258 l 311 1100 l 264 1178 z "},"":{"ha":418,"x_min":88,"x_max":450,"o":"m 88 0 l 88 760 l 190 760 l 190 651 q 272 744 221 714 q 406 778 324 774 l 406 676 q 190 443 190 656 l 190 0 l 88 0 m 135 925 l 403 1086 l 450 1006 l 182 847 l 135 925 z "},"":{"ha":843,"x_min":106,"x_max":801,"o":"m 499 383 l 786 0 l 658 0 l 313 465 q 542 483 471 465 q 697 700 697 525 q 589 896 697 844 q 353 933 510 933 l 208 933 l 208 0 l 106 0 l 106 1026 l 360 1026 q 647 976 556 1026 q 801 696 801 893 q 724 479 801 560 q 499 383 646 399 m 318 -312 l 385 -74 l 488 -74 l 421 -312 l 318 -312 z "},"":{"ha":418,"x_min":88,"x_max":406,"o":"m 88 0 l 88 760 l 190 760 l 190 651 q 272 744 221 714 q 406 778 324 774 l 406 676 q 190 443 190 656 l 190 0 l 88 0 m 106 -312 l 172 -74 l 275 -74 l 208 -312 l 106 -312 z "},"":{"ha":843,"x_min":106,"x_max":801,"o":"m 499 383 l 786 0 l 658 0 l 313 465 q 542 483 471 465 q 697 700 697 525 q 589 896 697 844 q 353 933 510 933 l 208 933 l 208 0 l 106 0 l 106 1026 l 360 1026 q 647 976 556 1026 q 801 696 801 893 q 724 479 801 560 q 499 383 646 399 m 668 1293 l 467 1118 l 375 1118 l 176 1293 l 300 1293 l 419 1190 l 542 1293 l 668 1293 z "},"":{"ha":418,"x_min":14,"x_max":506,"o":"m 88 0 l 88 760 l 190 760 l 190 651 q 272 744 221 714 q 406 778 324 774 l 406 676 q 190 443 190 656 l 190 0 l 88 0 m 506 1040 l 304 865 l 213 865 l 14 1040 l 138 1040 l 257 938 l 379 1040 l 506 1040 z "},"":{"ha":692,"x_min":31,"x_max":661,"o":"m 31 288 l 140 288 q 189 153 150 201 q 354 76 250 76 q 499 134 442 76 q 557 281 557 192 q 486 428 557 378 q 328 496 439 461 q 203 540 239 522 q 136 586 167 557 q 64 768 64 654 q 144 966 64 888 q 349 1044 225 1044 q 554 968 475 1044 q 636 767 633 892 l 529 767 q 474 900 524 850 q 346 950 424 950 q 219 899 269 950 q 168 771 168 849 q 217 651 168 696 q 368 588 250 622 q 558 506 501 547 q 661 286 661 429 q 573 69 661 156 q 351 -18 485 -18 q 125 65 213 -18 q 31 288 38 149 m 244 1178 l 513 1339 l 560 1258 l 292 1100 l 244 1178 z "},"":{"ha":539,"x_min":25,"x_max":501,"o":"m 25 224 l 126 224 q 168 115 131 154 q 269 76 206 76 q 361 114 325 76 q 397 208 397 151 q 349 307 397 274 q 250 354 315 329 q 151 398 168 389 q 110 428 133 407 q 53 564 53 481 q 114 717 53 657 q 268 778 175 778 q 419 721 360 778 q 482 572 479 664 l 378 572 q 267 683 369 683 q 189 651 221 683 q 157 574 157 619 q 226 474 157 508 q 369 413 254 460 q 501 218 501 357 q 437 48 501 114 q 269 -18 372 -18 q 93 48 160 -18 q 25 224 26 114 m 168 925 l 436 1086 l 483 1006 l 215 847 l 168 925 z "},"":{"ha":692,"x_min":31,"x_max":661,"o":"m 104 1165 l 306 1340 l 397 1340 l 596 1165 l 472 1165 l 353 1268 l 231 1165 l 104 1165 m 31 288 l 140 288 q 189 153 150 201 q 354 76 250 76 q 499 134 442 76 q 557 281 557 192 q 486 428 557 378 q 328 496 439 461 q 203 540 239 522 q 136 586 167 557 q 64 768 64 654 q 144 966 64 888 q 349 1044 225 1044 q 554 968 475 1044 q 636 767 633 892 l 529 767 q 474 900 524 850 q 346 950 424 950 q 219 899 269 950 q 168 771 168 849 q 217 651 168 696 q 368 588 250 622 q 558 506 501 547 q 661 286 661 429 q 573 69 661 156 q 351 -18 485 -18 q 125 65 213 -18 q 31 288 38 149 z "},"":{"ha":539,"x_min":25,"x_max":565,"o":"m 74 899 l 275 1074 l 367 1074 l 565 899 l 442 899 l 322 1001 l 200 899 l 74 899 m 25 224 l 126 224 q 168 115 131 154 q 269 76 206 76 q 361 114 325 76 q 397 208 397 151 q 349 307 397 274 q 250 354 315 329 q 151 398 168 389 q 110 428 133 407 q 53 564 53 481 q 114 717 53 657 q 268 778 175 778 q 419 721 360 778 q 482 572 479 664 l 378 572 q 267 683 369 683 q 189 651 221 683 q 157 574 157 619 q 226 474 157 508 q 369 413 254 460 q 501 218 501 357 q 437 48 501 114 q 269 -18 372 -18 q 93 48 160 -18 q 25 224 26 114 z "},"":{"ha":692,"x_min":31,"x_max":661,"o":"m 336 -18 l 317 -65 q 363 -54 344 -54 q 439 -85 410 -54 q 468 -167 468 -117 q 433 -259 468 -222 q 346 -296 399 -296 q 224 -194 247 -296 l 285 -187 q 347 -236 299 -236 q 391 -218 374 -236 q 408 -172 408 -200 q 390 -120 408 -140 q 344 -100 372 -100 q 285 -133 313 -100 l 244 -110 l 288 -12 q 102 90 172 8 q 31 288 32 172 l 140 288 q 189 153 150 201 q 354 76 250 76 q 499 134 442 76 q 557 281 557 192 q 486 428 557 378 q 328 496 439 461 q 203 540 239 522 q 136 586 167 557 q 64 768 64 654 q 144 966 64 888 q 349 1044 225 1044 q 554 968 475 1044 q 636 767 633 892 l 529 767 q 474 900 524 850 q 346 950 424 950 q 219 899 269 950 q 168 771 168 849 q 217 651 168 696 q 368 588 250 622 q 558 506 501 547 q 661 286 661 429 q 574 69 661 156 q 354 -18 486 -18 l 336 -18 z "}}}
